<svg width="24" height="24" viewBox="0 0 84 84" fill="none" xmlns="http://www.w3.org/2000/svg">
<circle cx="42" cy="42" r="42" fill="url(#paint0_linear_296_183)"/>
<path fill-rule="evenodd" clip-rule="evenodd" d="M40.4931 22L60.8204 57.2573L63 53.4765L44.8526 22H40.4931ZM21 53.4128L38.3976 23.2366L38.4336 23.2988L38.4678 23.2394L59.0851 59H54.7257L49.5171 49.9658C47.1503 49.2177 44.6304 48.8142 42.0162 48.8142C40.6686 48.8142 39.3535 48.9083 38.075 49.096L40.5857 44.7481C41.0597 44.725 41.5366 44.7133 42.0162 44.7133C43.6133 44.7133 45.18 44.8425 46.7068 45.0912L38.432 30.7386L23.1798 57.1936L21 53.4128ZM32.8277 52.9542L40.6453 39.3944L38.4656 35.6137L24.9827 58.9998H29.3421L29.3835 58.928C33.1226 56.6772 37.4131 55.5395 42.0982 55.5395C45.0898 55.5395 47.9579 56.0679 50.6144 57.0365L47.6938 51.9787C45.8504 51.6187 43.9764 51.4378 42.0982 51.4387C38.8561 51.4387 35.7383 51.9714 32.8277 52.9542Z" fill="white"/>
<defs>
<linearGradient id="paint0_linear_296_183" x1="69.5" y1="74.5" x2="9.11387" y2="14.9956" gradientUnits="userSpaceOnUse">
<stop stop-color="#5A81FF"/>
<stop offset="0.524" stop-color="#E40C5B"/>
<stop offset="1" stop-color="#FF4C3B"/>
</linearGradient>
</defs>
</svg>
