<svg width="24" height="24" viewBox="0 0 84 84" fill="none" xmlns="http://www.w3.org/2000/svg">
<path d="M84 42.0072C84.0286 64.9879 65.4034 84 42.0072 84C18.611 84 -0.0143189 64.9736 8.26009e-06 41.9785C0.0143354 18.9835 18.611 0 42.0215 0C65.432 0 84.043 19.0408 84 42.0072Z" fill="black"/>
<path d="M26.013 24.0019H31.9926V35.8476H36.2409C37.1325 35.8476 37.6582 35.9007 40.6991 33.0014C43.7399 30.1021 50.4551 24 50.4551 24H59L44.8824 37.6084L59 57.9109H51.8149L45.3635 48.697C45.3635 48.697 47.7245 54.4823 46.0452 60C45.8353 54.2147 44.7449 51.9606 41.535 46.661C40.0136 44.1431 38.5294 40.7486 45.3635 34.4985C44.9176 34.0431 42.4266 32.5707 38.9641 36.1056C38.3362 36.1056 36.5492 35.9994 34.6118 38.8379C32.6743 41.6765 29.8916 47.1866 28.2124 45.5359C28.2663 45.5359 28.7381 48.3213 32.1988 46.2322C32.1988 46.2853 32.9864 47.7862 31.4557 48.7501C31.9276 48.8564 33.7628 48.5888 33.9207 46.6629C34.6025 48.9664 35.1802 57.9128 29.3046 57.9128H26L26.013 24.0019ZM38.6446 37.3598C38.6446 37.3598 37.0006 37.5742 36.6012 39.6994C37.1195 39.5422 37.5845 39.2405 37.9442 38.8282C38.3038 38.416 38.5438 37.9094 38.6372 37.3655L38.6446 37.3598Z" fill="url(#paint0_linear_1169_532)"/>
<defs>
<linearGradient id="paint0_linear_1169_532" x1="42.5084" y1="60.0038" x2="42.5084" y2="24.0019" gradientUnits="userSpaceOnUse">
<stop stop-color="#EA2554"/>
<stop offset="1" stop-color="#F9413E"/>
</linearGradient>
</defs>
</svg>
