<?xml version="1.0" standalone="no"?>
<!DOCTYPE svg PUBLIC "-//W3C//DTD SVG 20010904//EN"
 "http://www.w3.org/TR/2001/REC-SVG-20010904/DTD/svg10.dtd">
<svg version="1.0" xmlns="http://www.w3.org/2000/svg"
 width="400.000000pt" height="400.000000pt" viewBox="0 0 400.000000 400.000000"
 preserveAspectRatio="xMidYMid meet">

<g transform="translate(0.000000,400.000000) scale(0.100000,-0.100000)"
fill="#000000" stroke="none">
<path d="M2186 3065 c-99 -69 -184 -125 -190 -125 -6 0 -58 33 -116 74 l-105
74 -5 -154 -5 -155 -95 -69 c-52 -39 -159 -115 -237 -171 l-143 -101 1 -361
c1 -308 3 -355 13 -317 14 50 39 101 70 144 12 15 317 235 679 489 l657 460 0
146 c0 202 11 191 -188 191 l-158 0 -178 -125z"/>
<path d="M2262 2459 l-202 -142 178 -124 c97 -68 178 -127 179 -131 3 -9 -406
-295 -421 -295 -6 0 -57 32 -112 71 -56 40 -105 72 -108 72 -3 0 -7 -68 -8
-152 l-3 -151 -85 -63 c-47 -35 -154 -111 -237 -171 l-153 -107 0 -288 c0
-272 1 -288 18 -279 9 6 328 228 707 494 l690 484 3 379 2 380 -110 77 c-61
43 -116 80 -123 83 -7 2 -104 -59 -215 -137z"/>
<path d="M2280 1299 c-102 -72 -193 -136 -202 -143 -15 -11 3 -26 135 -119
l152 -107 155 0 c108 0 160 4 168 12 8 8 12 60 12 169 l0 158 -115 80 c-63 45
-115 81 -117 81 -2 0 -86 -59 -188 -131z"/>
</g>
</svg>
