<svg viewBox="0 0 46 46" fill="none" xmlns="http://www.w3.org/2000/svg">
<path d="M22.7804 0.961916C35.1924 0.966736 45.2772 11.0446 45.2676 23.433C45.2563 35.9082 35.2069 45.9651 22.7547 45.9619C10.3106 45.9587 0.261153 35.8776 0.267581 23.4057C0.27401 11.0157 10.3637 0.957095 22.7804 0.961916ZM9.26758 30.4145L9.32062 30.6347C10.3556 30.5575 11.3938 30.5158 12.4208 30.3872C12.8595 30.3326 13.2774 30.0948 13.7033 29.9373C15.8826 29.1339 18.0474 28.2871 20.2508 27.5496C20.9949 27.3006 21.8306 27.3311 22.6245 27.2347L22.6792 27.4757C22.5538 27.6428 22.4285 27.8083 22.2324 28.0702C22.7081 28.0702 23.0585 28.0204 23.3863 28.0879C23.6113 28.1329 23.9424 28.3032 23.9874 28.4783C24.2204 29.3894 24.8617 29.9437 25.5978 30.392C26.1136 30.707 26.366 31.046 26.0799 31.5923H28.3476C27.687 30.9946 26.824 30.3744 26.1667 29.5854C25.2217 28.451 25.5704 27.1383 26.8674 26.457C27.671 26.0344 28.5179 25.6809 29.2845 25.1989C30.6185 24.3585 31.9026 23.4812 32.5004 21.868C33.2156 19.935 33.8392 17.8735 36.4411 17.1584C35.5138 16.5189 34.8179 15.9276 34.0256 15.5179C32.7704 14.8688 31.4301 14.9362 30.469 15.9887C29.0981 17.491 27.4942 18.5515 25.617 19.2569C25.4692 19.3132 25.3342 19.408 25.1976 19.4915C22.2822 21.2847 19.3669 23.0763 16.4515 24.8727C16.3053 24.9627 16.1751 25.0816 15.9308 25.268C16.4435 25.3611 16.834 25.4318 17.3949 25.5331C14.6515 26.8876 12.0929 28.1522 9.42347 29.4697C9.73044 29.6433 9.84294 29.7075 9.9699 29.7798L9.26758 30.4145Z" fill="black"/>
<path d="M9.26758 34.4141L9.9699 33.7794C9.84133 33.7071 9.73044 33.6428 9.42347 33.4693C12.0929 32.1517 14.6515 30.8871 17.3949 29.5326C16.834 29.4314 16.4435 29.3607 15.9308 29.2675C16.1735 29.0811 16.3036 28.9622 16.4515 28.8722C19.3653 27.0758 22.2806 25.2842 25.1976 23.491C25.3342 23.4075 25.4692 23.3127 25.617 23.2565C27.4942 22.5511 29.0981 21.4906 30.469 19.9882C31.4301 18.9358 32.7688 18.8683 34.0256 19.5174C34.8163 19.9256 35.5138 20.5185 36.4411 21.158C33.8392 21.873 33.2156 23.9345 32.5004 25.8675C31.9026 27.4807 30.6201 28.358 29.2845 29.1984C28.5179 29.6804 27.6726 30.0355 26.8674 30.4565C25.5704 31.1378 25.2217 32.4506 26.1667 33.585C26.8256 34.3755 27.687 34.9957 28.3476 35.5918H26.0799C26.366 35.0455 26.1136 34.7049 25.5978 34.3916C24.8633 33.9433 24.222 33.3889 23.9874 32.4779C23.9424 32.3027 23.6113 32.1324 23.3863 32.0874C23.0585 32.0215 22.7081 32.0697 22.2324 32.0697C22.4285 31.8094 22.5538 31.6423 22.6792 31.4752L22.6245 31.2342C21.8306 31.3306 20.9933 31.3001 20.2508 31.5491C18.049 32.2867 15.8842 33.1334 13.7033 33.9368C13.2774 34.0943 12.8611 34.3305 12.4208 34.3867C11.3938 34.5153 10.354 34.5571 9.32061 34.6342L9.26758 34.4141Z" fill="white"/>
</svg>
