<?xml version="1.0" standalone="no"?>
<!DOCTYPE svg PUBLIC "-//W3C//DTD SVG 20010904//EN"
 "http://www.w3.org/TR/2001/REC-SVG-20010904/DTD/svg10.dtd">
<svg version="1.0" xmlns="http://www.w3.org/2000/svg"
 width="500.000000pt" height="500.000000pt" viewBox="0 0 500.000000 500.000000"
 preserveAspectRatio="xMidYMid meet">

<g transform="translate(0.000000,500.000000) scale(0.100000,-0.100000)"
fill="#000000" stroke="none">
<path d="M2320 4980 c-326 -24 -618 -103 -915 -250 -752 -370 -1259 -1077
-1371 -1910 -22 -167 -22 -473 0 -640 71 -532 303 -1016 670 -1397 213 -221
426 -378 701 -514 352 -173 692 -252 1095 -252 403 0 743 79 1095 252 753 372
1260 1079 1371 1911 22 167 22 473 0 640 -71 531 -303 1016 -670 1397 -213
221 -426 378 -701 514 -392 193 -838 280 -1275 249z m-1122 -1116 c21 -14 22
-22 22 -150 l0 -134 910 0 910 0 0 128 c0 142 10 172 57 172 56 0 63 -20 63
-167 l0 -133 88 0 c93 0 115 -8 127 -47 4 -17 -1 -29 -19 -48 -23 -23 -33 -25
-111 -25 l-85 0 0 -162 c0 -141 -3 -169 -20 -207 -23 -50 -45 -70 -77 -71
l-23 0 0 220 0 220 -248 0 c-180 0 -266 4 -317 15 -90 19 -262 19 -362 0 -61
-12 -165 -15 -484 -15 l-407 0 -3 -587 c-2 -324 -2 -762 0 -975 l3 -388 307 0
c222 0 335 -4 407 -15 125 -19 213 -19 338 0 60 9 170 15 278 15 177 0 179 0
203 -25 30 -29 31 -49 5 -75 -20 -20 -33 -20 -780 -20 l-760 0 0 -135 c0 -134
0 -135 -26 -152 -24 -15 -29 -15 -53 -2 -26 15 -26 15 -29 152 l-3 137 -174 0
-175 0 -16 25 c-21 33 -11 73 22 85 14 6 97 10 185 10 l159 0 0 975 0 975
-165 0 c-164 0 -166 0 -191 25 -18 19 -23 31 -19 48 13 43 30 47 207 47 l168
0 0 134 c0 128 1 136 22 150 12 9 27 16 33 16 6 0 21 -7 33 -16z m2593 -3 l24
-19 3 -1077 c2 -1019 1 -1077 -15 -1071 -10 4 -37 21 -60 39 l-43 32 4 790 c2
435 4 799 4 810 1 11 -2 123 -4 250 -5 227 -5 230 17 247 27 23 41 23 70 -1z
m-1353 -691 c23 -10 42 -20 42 -22 0 -2 -196 -199 -435 -438 l-435 -435 0 85
0 84 372 373 c247 247 379 373 393 373 11 0 39 -9 63 -20z m267 -229 l29 -42
-487 -487 -488 -487 -40 44 -40 45 488 488 c268 268 492 487 498 485 5 -2 23
-23 40 -46z m139 -318 c17 -105 41 -73 -352 -466 l-357 -357 -55 0 c-122 0
-145 -30 321 436 233 233 427 424 430 424 4 0 9 -17 13 -37z m966 -1125 c52 0
159 3 238 7 123 6 145 5 167 -9 17 -11 25 -26 25 -46 0 -57 -12 -60 -225 -60
l-193 0 -4 -129 c-3 -110 -6 -132 -22 -150 -23 -25 -44 -27 -74 -5 -21 14 -22
22 -22 150 l0 134 -145 0 c-143 0 -145 0 -161 25 -20 31 -11 72 19 85 13 6 81
7 162 4 77 -3 183 -6 235 -6z"/>
</g>
</svg>
