<svg viewBox="0 0 41 46" fill="none" xmlns="http://www.w3.org/2000/svg">
<g clip-path="url(#clip0_341_2372)">
<path d="M0.750054 18.0431C0.726706 8.90348 8.27074 1.64301 18.2155 0.942576C28.1244 0.244368 36.4673 6.1373 38.4236 14.4899C38.8905 16.4838 38.7671 18.5162 38.5286 20.5376C38.4778 20.9692 38.2101 21.2069 37.8482 21.4475C33.6271 24.2559 27.2547 24.304 22.8502 21.6504C20.9723 20.5191 19.2387 19.1486 17.0723 18.4392C12.0774 16.8037 7.30429 17.071 2.84224 19.8438C2.30856 20.1755 1.7432 20.8893 1.15115 20.6383C0.639149 20.4213 0.854288 19.5906 0.803422 19.0249C0.765064 18.6058 0.758393 18.1845 0.750888 18.0446L0.750054 18.0431Z" fill="#E8B840"/>
<path d="M29.0579 27.8505C26.5872 27.9231 23.3859 26.5385 20.4841 24.4972C17.9741 22.7321 15.1356 21.7214 11.9485 21.6592C8.66976 21.5948 5.69534 22.4885 3.08782 24.2936C2.65171 24.5957 2.17473 24.8852 1.66524 25.0599C1.16658 25.2317 0.655419 25.1451 0.308528 24.6771C-0.0667139 24.1692 0.183448 23.7946 0.609556 23.4836C3.27795 21.5385 6.20567 20.1451 9.72294 19.7815C14.6053 19.2766 18.7396 20.7159 22.5054 23.3222C25.7516 25.5686 29.3981 26.3579 33.4299 25.5242C35.126 25.1732 36.6403 24.4321 38.0396 23.5302C38.7542 23.0704 39.3629 22.9668 39.9049 23.6687C40.4728 24.4047 39.8174 24.8037 39.2812 25.1732C36.6728 26.9672 33.6934 27.8106 29.0579 27.8498V27.8505Z" fill="#75C8C7"/>
<path d="M11.6122 34.8637C11.6122 31.728 11.6097 28.5916 11.6138 25.456C11.6147 24.7015 11.633 23.8923 12.8129 23.9204C13.9628 23.9485 13.967 24.7378 13.9662 25.5012C13.9603 31.7347 13.9628 37.9682 13.962 44.2017C13.962 44.3928 13.9628 44.5845 13.9537 44.7756C13.9195 45.4678 13.4275 45.8751 12.7329 45.8862C11.9757 45.898 11.6363 45.4175 11.638 44.7304C11.6455 42.0916 11.6305 39.4535 11.6238 36.8147C11.6222 36.1646 11.6238 35.5145 11.6238 34.8644H11.6113L11.6122 34.8637Z" fill="#75C8C7"/>
<path d="M25.4164 35.5323C25.4164 34.0426 25.4155 32.5529 25.4164 31.0624C25.4164 30.248 25.7466 29.5201 26.7439 29.5483C27.647 29.5742 27.9622 30.2739 27.9605 31.0476C27.9555 34.104 27.9613 37.1597 27.9563 40.2161C27.9547 41.0002 27.7304 41.7688 26.6972 41.7791C25.649 41.7895 25.4272 41.0106 25.4197 40.2309C25.4055 38.665 25.4155 37.0983 25.4155 35.5323H25.4164Z" fill="#76C8C7"/>
<path d="M9.32139 30.1607C9.32139 31.6889 9.36558 33.2178 9.30054 34.7438C9.27386 35.3717 9.16295 36.121 8.13479 36.1143C7.19751 36.1084 6.84062 35.4857 6.83978 34.8075C6.83561 31.6778 6.69636 28.5466 6.90816 25.4183C6.95903 24.6727 7.15999 23.9494 8.17982 24.0212C9.16212 24.0908 9.29804 24.8719 9.31138 25.5775C9.34057 27.105 9.32055 28.6332 9.32055 30.1607H9.32139Z" fill="#77C8C7"/>
<path d="M16.1088 30.1533C16.1088 29.1219 16.0829 28.0905 16.118 27.0598C16.1422 26.3416 16.3289 25.5938 17.3246 25.5642C18.3152 25.5353 18.6188 26.2676 18.6346 26.9813C18.6821 29.1189 18.6713 31.2587 18.6396 33.397C18.6288 34.1078 18.251 34.7164 17.3604 34.7164C16.4357 34.7164 16.1597 34.0449 16.1271 33.3607C16.0771 32.293 16.1138 31.2224 16.1138 30.1533H16.1096H16.1088Z" fill="#76C8C7"/>
<path d="M32.4125 35.3649C32.4125 36.7006 32.3958 38.0364 32.42 39.3713C32.4334 40.0762 32.1724 40.6537 31.336 40.6567C30.4996 40.6596 30.237 40.0858 30.2411 39.3795C30.2578 36.6318 30.2611 33.8841 30.2403 31.1372C30.2353 30.4382 30.5722 29.9888 31.3285 29.9859C32.0856 29.9829 32.4359 30.4279 32.4217 31.1298C32.3925 32.541 32.4134 33.9537 32.4134 35.3657L32.4125 35.3649Z" fill="#75C8C7"/>
<path d="M4.65416 30.9136C4.65416 31.9842 4.66834 33.0549 4.64916 34.1248C4.63749 34.7867 4.41401 35.3627 3.53094 35.4242C2.62452 35.4871 2.31766 34.9118 2.24261 34.2677C1.96076 31.8635 2.36352 29.4646 2.36852 27.0605C2.36936 26.4919 2.87635 26.1572 3.53427 26.2586C4.25641 26.3697 4.64082 26.8206 4.64999 27.4729C4.66584 28.6198 4.65416 29.7667 4.65416 30.9136Z" fill="#77C8C7"/>
<path d="M34.9143 31.8065C34.9134 31.1949 34.8884 30.5826 34.9209 29.9725C34.951 29.4106 35.2712 29.0241 35.9516 29.0026C36.6587 28.9804 37.1774 29.3291 37.2116 29.9207C37.2866 31.2157 37.28 32.5195 37.2074 33.8145C37.1741 34.4061 36.6971 34.7904 35.9674 34.7312C35.3262 34.6793 34.9443 34.3358 34.9218 33.7553C34.8959 33.1067 34.9159 32.4559 34.9151 31.8065H34.9143Z" fill="#76C8C7"/>
<path d="M23.2555 29.9178C23.2538 30.1829 23.2613 30.4487 23.253 30.7138C23.2296 31.446 22.736 31.891 21.9813 31.8762C21.2475 31.8621 20.8973 31.3668 20.9373 30.6871C20.964 30.2332 20.9573 29.7771 20.9373 29.3225C20.9065 28.5991 21.0482 28.0076 22.0772 28.0424C23.027 28.0749 23.298 28.6028 23.258 29.3492C23.248 29.538 23.2563 29.7283 23.2555 29.9178Z" fill="#78C9C8"/>
</g>
<defs>
<clipPath id="clip0_341_2372">
<rect width="40" height="45" fill="white" transform="translate(0.123047 0.88623)"/>
</clipPath>
</defs>
</svg>
