<?xml version="1.0" encoding="UTF-8"?><svg id="Layer_2" xmlns="http://www.w3.org/2000/svg" viewBox="0 0 146.22 146.46"><defs><style>.cls-1{fill:#010101;}.cls-2{fill:#fefefe;}</style></defs><g id="Layer_1-2"><g id="_0hqidS.tif"><path d="m69.23.23c2.74-.42,5.5-.16,8.24,0,2.73.16,5.43.65,8.15.99.03.26-.06.58.31.66.3.06.4-.16.44-.41,2.21.17,4.3.85,6.42,1.42,6.98,1.88,13.45,4.88,19.57,8.7,5.5,3.44,10.43,7.58,14.75,12.37,3.24,3.6,6.12,7.53,8.65,11.68,4.16,6.82,7.1,14.14,8.72,21.98.74,3.57,1.26,7.15,1.54,10.79.22,2.89.27,5.77.14,8.64-.22,5.04-1.12,10-2.42,14.89-1.53,5.77-3.63,11.29-6.5,16.52-2.18,3.97-4.76,7.67-7.6,11.21-2.07,2.58-4.4,4.89-6.73,7.21-2.11,2.09-4.54,3.81-6.9,5.6-3.84,2.91-8.02,5.27-12.4,7.24-4.37,1.97-8.92,3.45-13.55,4.73-2.28.63-4.62.91-6.92,1.43-.01-.31,0-.65-.44-.68-.51-.04-.55.31-.55.69-4.14.82-8.33.52-12.51.55-6.28.04-12.29-1.42-18.26-3.22-7.3-2.2-14.01-5.56-20.25-9.92-2.56-1.79-4.98-3.73-7.31-5.82-7.54-6.77-13.06-14.98-17.48-24-2.09-4.26-3.58-8.77-4.55-13.39-.78-3.69-1.5-7.43-1.64-11.26-.08-2.13-.14-4.26-.14-6.4.19-.03.39-.07.42-.32.04-.31-.17-.39-.42-.43,0-.83,0-1.65,0-2.48.16-.02.35-.04.35-.25,0-.21-.19-.22-.35-.25.18-1.97.32-3.94.55-5.91.16-1.35.46-2.68.7-4.02.36-.07.57-.19.16-.51.33-2.38,1.05-4.67,1.82-6.94.35-.07.58-.18.17-.51.66-2.54,1.7-4.94,2.77-7.33.05-.11.04-.24.06-.36.06-.09.12-.17.18-.26,1.7-3.54,3.52-7.02,5.7-10.3,3.27-4.92,7.14-9.32,11.44-13.36,1.18-1.11,2.47-2.1,3.71-3.14.09-.06.18-.12.27-.18l2.71-2.06c.09-.06.18-.12.27-.18,4.48-3.3,9.36-5.86,14.48-7.98,3.56-1.48,7.22-2.7,11-3.57,2.78-.64,5.57-1.21,8.43-1.43,1.45-.11,2.86-.61,4.34-.44.02.16.05.35.25.35.2,0,.22-.19.25-.35Zm18.12,117.66c-.12-.01-.28.02-.36-.05-1.78-1.5-3.56-2.99-5.3-4.54-1.82-1.61-3.67-3.21-5.53-4.75-2.14-1.77-4.28-3.58-6.47-5.3-2.37-1.86-4.59-3.92-6.9-5.85-3.33-2.79-6.72-5.51-10.01-8.34-.82-.7-1.35-.65-1.91.12-1.46,2.03-2.59,4.22-3.52,6.56-1.51,3.78-1.55,7.71-1.44,11.67-.11.3-.45.67.21.76.54,2.88,1.4,5.64,2.85,8.22,1.64,2.92,3.74,5.41,6.33,7.51,3.67,2.98,7.87,4.88,12.55,5.3,3.18.29,6.44.34,9.59-.66,3.62-1.15,6.92-2.81,9.89-5.24,1.39-1.14,2.41-2.67,4.24-3.39,3.87-1.52,7.04-4.12,9.65-7.35,1.26-1.56,2.23-3.32,3.08-5.14.06-.09.12-.18.19-.27,1.29-2.96,2.07-6.06,2.22-9.27.17-3.67-.48-7.24-1.92-10.65-1.98-4.66-5.01-8.44-9.24-11.26-3.54-2.36-7.48-3.58-11.64-4.03-3.61-.39-7.17.21-10.67,1.18-.98-1.93-1.56-4.02-2.3-6.04-1.92-5.24-3.91-10.46-5.68-15.76-.07-.09-.13-.18-.2-.26-1.84-5.13-3.67-10.25-5.51-15.38-.06-.09-.13-.18-.19-.26l-1.05-3.21c-.07-.09-.13-.18-.2-.27-.47-1.75-1.4-3.35-1.74-5.43,1.02.87,1.84,1.58,2.66,2.29,1.86,1.59,3.69,3.21,5.58,4.77,2.55,2.11,5.16,4.14,7.7,6.26,2.81,2.35,5.56,4.77,8.36,7.13,4.04,3.41,8.12,6.78,12.16,10.2,1.33,1.12,1.72,1.11,2.72-.38,2.18-3.27,3.81-6.75,4.26-10.73.42-3.67.41-7.3-.64-10.87-1.47-5.02-4.25-9.19-8.33-12.47-.1-.07-.19-.13-.29-.2-.28-.23-.54-.5-.84-.7-6.21-4.12-12.99-5.53-20.27-3.98-5.28,1.13-9.84,3.65-13.33,7.88-.1.12-.14.24-.32.29-2.37.6-4.32,1.93-6.26,3.37-4.02,2.96-6.79,6.82-8.52,11.43-1.83,4.87-2.12,9.87-.81,14.93,1.46,5.64,4.52,10.23,9.12,13.77,4.57,3.52,9.75,5.31,15.56,5.18.94-.02,1.86-.22,2.79-.3,1.91-.17,3.78-.66,5.6-1.26-.23.59.04,1.14.23,1.65,1.26,3.46,2.56,6.91,3.83,10.37,2.82,7.7,5.63,15.39,8.43,23.1.98,2.69,1.91,5.4,2.86,8.11-.42.52-.84,1.03-1.26,1.55Z"/><path class="cls-1" d="m82.14,145.88c0-.38.04-.72.55-.69.45.03.43.37.44.68h-.99Z"/><path class="cls-1" d="m86.36,1.47c-.04.25-.14.47-.44.41-.37-.08-.28-.4-.31-.66.33-.16.5.17.75.25Z"/><path class="cls-1" d="m0,71.69c.25.04.46.12.42.43-.03.24-.23.28-.42.32,0-.25,0-.5,0-.75Z"/><path class="cls-1" d="m69.23.23c-.02.16-.04.35-.25.35-.2,0-.23-.19-.25-.35.17,0,.33,0,.5,0Z"/><path class="cls-1" d="m3.4,50.82c.41.33.18.44-.17.51-.04-.2-.11-.42.17-.51Z"/><path class="cls-1" d="m1.42,58.27c.41.32.19.44-.16.51-.05-.2-.12-.41.16-.51Z"/><path class="cls-1" d="m0,68.71c.16.02.35.04.35.25,0,.21-.19.22-.35.25,0-.17,0-.33,0-.5Z"/><path class="cls-1" d="m30.49,13.66c-.09.06-.18.12-.27.18.04-.13.09-.26.27-.18Z"/><path class="cls-1" d="m27.52,15.89c-.09.06-.18.12-.27.18.04-.13.09-.25.27-.18Z"/><path class="cls-1" d="m6.41,42.87c-.06.09-.12.17-.18.26-.07-.18.05-.23.18-.26Z"/><path class="cls-2" d="m73.27,73.11c-1.83.6-3.7,1.1-5.61,1.27-.93.08-1.85.28-2.79.3-5.81.13-10.99-1.66-15.56-5.18-4.6-3.54-7.66-8.14-9.12-13.77-1.31-5.06-1.02-10.06.81-14.93,1.73-4.6,4.5-8.46,8.52-11.43,1.95-1.44,3.89-2.77,6.26-3.37.18-.05.22-.16.32-.29,3.5-4.22,8.06-6.75,13.33-7.88,7.28-1.55,14.06-.14,20.27,3.98.3.2.56.46.84.7.05.13.1.26.29.2,4.08,3.29,6.86,7.45,8.33,12.47,1.05,3.57,1.06,7.2.64,10.87-.45,3.98-2.08,7.46-4.26,10.73-1,1.49-1.39,1.51-2.72.38-4.04-3.42-8.11-6.79-12.16-10.2-2.8-2.36-5.55-4.78-8.36-7.13-2.54-2.12-5.15-4.15-7.7-6.26-1.88-1.56-3.72-3.18-5.58-4.77-.82-.7-1.64-1.41-2.66-2.29.34,2.08,1.28,3.68,1.74,5.43-.05.18.06.23.2.27.35,1.07.7,2.14,1.05,3.21-.05.18.06.23.19.26,1.84,5.13,3.67,10.25,5.51,15.38-.05.18.06.23.2.26,1.77,5.3,3.76,10.51,5.68,15.76.74,2.02,1.32,4.11,2.3,6.04,0,0,.04-.04.04-.04Z"/><path class="cls-2" d="m45.9,107.42c-.1-3.96-.06-7.88,1.44-11.67.93-2.33,2.06-4.53,3.52-6.56.56-.77,1.09-.82,1.91-.12,3.3,2.83,6.68,5.55,10.01,8.34,2.31,1.94,4.53,3.99,6.9,5.85,2.19,1.72,4.33,3.53,6.47,5.3,1.86,1.53,3.71,3.14,5.53,4.75,1.74,1.54,3.53,3.03,5.3,4.54.08.07.24.03.36.05.59.9,1.51,1.39,2.54,2.16-.43-1.42-.71-2.61-1.28-3.71-.95-2.7-1.88-5.41-2.86-8.11-2.8-7.7-5.61-15.4-8.43-23.1-1.27-3.46-2.58-6.91-3.83-10.37-.19-.51-.46-1.06-.23-1.65,0,0-.04.04-.04.04,3.49-.97,7.06-1.57,10.67-1.18,4.16.45,8.1,1.67,11.64,4.03,4.24,2.82,7.27,6.6,9.24,11.26,1.44,3.4,2.09,6.97,1.92,10.65-.15,3.21-.93,6.31-2.22,9.27-.13.04-.25.09-.19.27-.85,1.82-1.82,3.58-3.08,5.14-2.6,3.23-5.77,5.82-9.65,7.35-1.83.72-2.85,2.26-4.24,3.39-2.97,2.43-6.27,4.09-9.89,5.24-3.16,1.01-6.41.95-9.59.66-4.68-.42-8.87-2.32-12.55-5.3-2.59-2.1-4.69-4.59-6.33-7.51-1.45-2.58-2.31-5.34-2.85-8.22.03-.28.15-.59-.21-.76Z"/><path class="cls-1" d="m88.61,116.34c.56,1.1.85,2.29,1.28,3.71-1.03-.77-1.95-1.27-2.54-2.16.42-.52.84-1.03,1.26-1.55Z"/><path class="cls-1" d="m45.9,107.42c.36.18.24.48.21.76-.66-.09-.32-.46-.21-.76Z"/><path class="cls-1" d="m90.82,22.73c-.19.06-.24-.07-.29-.2.1.07.19.13.29.2Z"/><path class="cls-1" d="m58.3,32.24c-.14-.03-.25-.09-.2-.27.07.09.13.18.2.27Z"/><path class="cls-1" d="m59.54,35.71c-.14-.03-.25-.09-.19-.26.06.09.13.18.19.26Z"/><path class="cls-1" d="m65.25,51.35c-.14-.03-.25-.09-.2-.26.07.09.13.18.2.26Z"/><path class="cls-1" d="m104.29,107.44c-.07-.18.05-.23.19-.27-.06.09-.12.18-.19.27Z"/></g></g></svg>