<svg width="164" height="28" viewBox="0 0 164 28" fill="none" xmlns="http://www.w3.org/2000/svg">
<g id="logo (1)" clip-path="url(#clip0_269_76415)">
<g id="Clip path group">
<mask id="mask0_269_76415" style="mask-type:luminance" maskUnits="userSpaceOnUse" x="0" y="0" width="163" height="28">
<g id="clip0_535_251">
<path id="Vector" d="M162.281 0H0.0301514V28H162.281V0Z" fill="white"/>
</g>
</mask>
<g mask="url(#mask0_269_76415)">
<g id="Group">
<path id="Vector_2" d="M63.2947 22.5894L61.8605 17.5309H55.8551L54.4208 22.5894H51.3377L56.8556 3.70581H60.9952L66.5131 22.5894H63.2947ZM58.9662 6.76328H58.7493L56.4218 15.0425H61.2914L58.9639 6.76328H58.9662Z" fill="#F0F2DA"/>
<path id="Vector_3" d="M69.1649 8.6291H72.1127V11.0103H72.276C72.6911 10.1637 73.2415 9.499 73.9271 9.02091C74.6128 8.54281 75.4687 8.30493 76.4972 8.30493C78.139 8.30493 79.4451 8.91829 80.4199 10.145C81.3948 11.3717 81.8798 13.1932 81.8798 15.6093C81.8798 18.0254 81.3924 19.8468 80.4199 21.0736C79.4451 22.3003 78.139 22.9136 76.4972 22.9136C75.4687 22.9136 74.6128 22.6734 73.9271 22.1977C73.2415 21.7196 72.6911 21.0572 72.276 20.2083H72.1127V28.0001H69.1649V8.6291ZM75.2798 20.5045C76.3969 20.5045 77.2598 20.1617 77.8638 19.476C78.4679 18.7904 78.7711 17.8808 78.7711 16.7427V14.4712C78.7711 13.3354 78.4679 12.4235 77.8638 11.7379C77.2598 11.0522 76.3992 10.7094 75.2798 10.7094C74.846 10.7094 74.4402 10.763 74.0624 10.8727C73.6846 10.9823 73.3488 11.1432 73.0619 11.3601C72.7727 11.577 72.5442 11.8428 72.3716 12.1577C72.199 12.4725 72.1151 12.848 72.1151 13.2795V17.9321C72.1151 18.3659 72.2013 18.7391 72.3716 19.0539C72.5418 19.3687 72.7727 19.6346 73.0619 19.8515C73.3511 20.0684 73.6846 20.2293 74.0624 20.3389C74.4402 20.4485 74.846 20.5022 75.2798 20.5022V20.5045Z" fill="#F0F2DA"/>
<path id="Vector_4" d="M85.9915 20.1802H90.7538V11.0358H85.9915V8.62905H93.7017V20.1802H98.1654V22.587H85.9915V20.1802ZM92.2417 6.08466C91.4838 6.08466 90.9567 5.93074 90.6582 5.62522C90.3597 5.31971 90.2128 4.93956 90.2128 4.48946V3.92041C90.2128 3.4703 90.362 3.09016 90.6582 2.78464C90.9567 2.47913 91.4744 2.3252 92.2137 2.3252C92.953 2.3252 93.4988 2.47913 93.7973 2.78464C94.0958 3.09249 94.2427 3.4703 94.2427 3.92041V4.48946C94.2427 4.93956 94.0935 5.31971 93.7973 5.62522C93.4988 5.93306 92.981 6.08466 92.2417 6.08466Z" fill="#F0F2DA"/>
<path id="Vector_5" d="M101.521 20.1802H106.148V4.97686H101.521V2.57007H109.096V20.1802H113.723V22.587H101.521V20.1802Z" fill="#F0F2DA"/>
<path id="Vector_6" d="M117.753 20.1802H122.38V4.97686H117.753V2.57007H125.328V20.1802H129.955V22.587H117.753V20.1802Z" fill="#F0F2DA"/>
<path id="Vector_7" d="M140.07 22.9136C139.041 22.9136 138.118 22.7411 137.297 22.4006C136.476 22.0577 135.781 21.5703 135.214 20.9406C134.645 20.3086 134.209 19.5437 133.901 18.6411C133.593 17.7386 133.442 16.7287 133.442 15.6116C133.442 14.4945 133.596 13.4847 133.901 12.5821C134.207 11.6796 134.645 10.9146 135.214 10.2826C135.783 9.65057 136.476 9.16547 137.297 8.82265C138.118 8.47982 139.041 8.30957 140.07 8.30957C141.098 8.30957 142.022 8.48215 142.843 8.82265C143.664 9.16547 144.358 9.6529 144.925 10.2826C145.494 10.9146 145.93 11.6796 146.238 12.5821C146.544 13.4847 146.698 14.4945 146.698 15.6116C146.698 16.7287 146.544 17.7409 146.238 18.6411C145.93 19.5437 145.494 20.3086 144.925 20.9406C144.356 21.5726 143.664 22.0601 142.843 22.4006C142.022 22.7434 141.098 22.9136 140.07 22.9136ZM140.07 20.5861C141.152 20.5861 142.012 20.2573 142.654 19.5996C143.293 18.942 143.615 17.9624 143.615 16.6634V14.5528C143.615 13.2538 143.295 12.2766 142.654 11.6166C142.012 10.959 141.152 10.6301 140.07 10.6301C138.988 10.6301 138.127 10.959 137.486 11.6166C136.844 12.2743 136.525 13.2538 136.525 14.5528V16.6634C136.525 17.9624 136.844 18.9396 137.486 19.5996C138.125 20.2573 138.988 20.5861 140.07 20.5861Z" fill="#F0F2DA"/>
<path id="Vector_8" d="M150.459 22.5895V8.6291H153.407V11.0103H153.542C153.687 10.6488 153.871 10.3036 154.097 9.96777C154.324 9.63427 154.599 9.34508 154.923 9.10253C155.247 8.85999 155.627 8.66642 156.059 8.52182C156.493 8.37723 156.996 8.30493 157.575 8.30493C158.981 8.30493 160.117 8.76437 160.984 9.68557C161.852 10.6068 162.283 11.9128 162.283 13.6083V22.5895H159.335V14.0397C159.335 11.8218 158.37 10.7117 156.441 10.7117C156.063 10.7117 155.693 10.7607 155.331 10.861C154.97 10.9613 154.645 11.1082 154.356 11.3064C154.067 11.5047 153.839 11.7565 153.666 12.0644C153.493 12.3722 153.409 12.7221 153.409 13.1185V22.5871H150.462L150.459 22.5895Z" fill="#F0F2DA"/>
<path id="Vector_9" d="M0.0301514 27.986V0L18.6875 13.993L0.0301514 27.986Z" fill="#F0F2DA"/>
<path id="Vector_10" d="M37.3447 0V27.986L18.6873 13.993L37.3447 0Z" fill="#F0F2DA"/>
</g>
</g>
</g>
</g>
<defs>
<clipPath id="clip0_269_76415">
<rect width="163" height="28" fill="white" transform="translate(0.0301514)"/>
</clipPath>
</defs>
</svg>
