<svg width="167" height="30" viewBox="0 0 167 30" fill="none" xmlns="http://www.w3.org/2000/svg">
<g id="Frame 1618868199">
<g id="Group 1171275464">
<g id="Group 1171275462">
<path id="Vector" d="M28.9953 14.0516C28.4712 6.33641 21.793 0.509403 14.0801 1.03349C10.2379 1.2953 6.86382 3.08503 4.50893 5.76612L4.50193 5.76145C4.48513 5.78292 4.47067 5.80439 4.4562 5.82585C2.11765 8.52375 0.801606 12.1083 1.06295 15.9515C1.08722 16.3183 1.13015 16.6776 1.18289 17.0342C1.18289 17.0514 1.18755 17.0654 1.18989 17.0822C1.22582 17.317 1.26689 17.5522 1.31216 17.7823C1.35507 17.9949 1.40299 18.2066 1.4559 18.417C3.07342 24.8646 9.11369 29.4311 15.9805 28.964C23.6933 28.4394 29.5227 21.7617 28.9981 14.0469L28.9953 14.0516ZM25.9479 14.2597C26.0127 15.209 25.9525 16.1386 25.7827 17.0346C25.7827 17.03 25.778 17.0253 25.778 17.0202C24.7616 14.5402 22.7539 12.7482 20.9903 11.7583C21.3473 7.55585 19.9216 5.78292 18.3069 5.49544C17.994 5.43667 17.6724 5.44247 17.3619 5.5125C17.0513 5.58252 16.7583 5.71529 16.501 5.90266C16.2436 6.09002 16.0272 6.32802 15.8652 6.60204C15.7031 6.87605 15.5988 7.18031 15.5586 7.49611C15.5193 7.80075 15.5404 8.11016 15.6208 8.40662C15.7012 8.70307 15.8393 8.98076 16.0272 9.22377C16.2151 9.46679 16.449 9.67036 16.7157 9.82283C16.9823 9.9753 17.2765 10.0737 17.5812 10.1123C17.6937 10.1268 17.8038 10.1315 17.9116 10.1291C17.9195 10.2791 17.9235 10.4293 17.9237 10.5795C16.4308 10.2108 15.0364 10.1361 13.7642 10.2514C13.2858 10.2828 12.8097 10.3428 12.3385 10.4311C12.4971 9.01237 13.031 7.41678 14.0638 6.2524C15.0625 5.12396 16.5484 4.47947 18.1678 4.64468C18.4749 4.67595 18.803 4.75248 19.0974 4.85095C19.1119 4.85562 19.1264 4.86029 19.1385 4.86262C22.8906 6.39147 25.6534 9.95413 25.9455 14.2597H25.9479ZM16.1891 16.3972C16.1891 16.3972 16.1891 16.3995 16.1867 16.4018C15.8328 16.9105 15.4317 17.3847 14.9888 17.8182C14.318 17.1096 13.7501 16.3103 13.3017 15.4437C13.2802 15.398 13.2564 15.3574 13.2345 15.3116V15.307C12.9718 14.7454 12.7616 14.1606 12.6068 13.5602C13.6008 13.3254 14.5762 13.2391 15.5086 13.2848L15.6571 13.2918H15.6617C16.2465 13.3399 16.855 13.4477 17.4851 13.6204C17.1926 14.6038 16.7567 15.5386 16.1914 16.3948L16.1891 16.3972ZM11.4065 4.67361L11.3995 4.68295C9.75818 6.80122 9.2117 9.43425 9.23596 11.4564C5.41663 13.2484 4.59714 15.3691 5.15296 16.9119C5.16696 16.9553 5.18422 16.9959 5.20103 17.037C5.44049 17.609 5.89727 18.0625 6.47097 18.2979C7.04468 18.5333 7.68837 18.5313 8.2606 18.2924C8.83262 18.0529 9.28616 17.5961 9.52156 17.0224C9.75696 16.4487 9.75495 15.805 9.51597 15.2328C9.47248 15.1312 9.42212 15.0326 9.36524 14.9378C9.48517 14.8585 9.61444 14.7801 9.75352 14.6984C10.1796 16.1769 10.8101 17.4253 11.5456 18.4697C11.8116 18.865 12.0991 19.2458 12.4127 19.6126C11.1046 20.1852 9.45624 20.5208 7.92972 20.209C6.45407 19.9075 5.15296 18.9443 4.48467 17.4584C4.35664 17.167 4.26027 16.8627 4.19719 16.5507C4.15779 16.2827 4.12821 16.0134 4.10852 15.7433C3.76784 10.7284 6.87828 6.26454 11.4065 4.67361ZM15.7719 25.9189C12.794 26.1224 10.0097 25.1069 7.90592 23.2999C10.5609 23.662 13.115 22.8182 14.8548 21.7859C18.3167 24.1987 20.5642 23.8487 21.6231 22.5956C21.8306 22.3538 21.9864 22.0721 22.0811 21.7679C22.1757 21.4636 22.2072 21.1432 22.1736 20.8264C22.1399 20.5095 22.0418 20.2029 21.8854 19.9253C21.7289 19.6477 21.5174 19.4051 21.2638 19.2122C21.0195 19.0259 20.7409 18.8897 20.4439 18.8112C20.1469 18.7326 19.8373 18.7134 19.5329 18.7546C19.2285 18.7958 18.9352 18.8965 18.6697 19.0511C18.4042 19.2057 18.1719 19.4111 17.9858 19.6555C17.9191 19.7442 17.8589 19.8403 17.8061 19.936C17.6792 19.8711 17.5448 19.7993 17.4085 19.7204C18.384 18.714 19.1833 17.5509 19.7732 16.2795C19.9844 15.8492 20.17 15.4068 20.329 14.9546C21.4794 15.8031 22.5957 17.0608 23.0894 18.5388C23.5664 19.9668 23.3839 21.5769 22.4305 22.8976C22.2421 23.1538 22.0269 23.3891 21.7883 23.5995L21.779 23.6088C20.056 24.9659 17.963 25.7704 15.7747 25.9165L15.7719 25.9189Z" fill="url(#paint0_linear_269_76378)"/>
<path id="Vector_2" style="mix-blend-mode:overlay" opacity="0.9" d="M18.3068 5.49279C18.0442 5.44292 17.7748 5.43976 17.5111 5.48346C18.8509 6.21148 19.8258 8.24109 19.3134 12.2471C19.1437 13.5499 18.7609 14.816 18.1803 15.9946C17.6799 17.0701 17.0287 18.0687 16.2464 18.9603C16.6173 19.2393 17.0054 19.4946 17.4084 19.7248C18.384 18.7186 19.1835 17.5556 19.7736 16.2844C20.3556 15.1063 20.7385 13.84 20.9067 12.5369C21.518 7.7688 20.0181 5.7994 18.3072 5.49466L18.3068 5.49279Z" fill="url(#paint1_radial_269_76378)"/>
<g id="Vector_3" style="mix-blend-mode:overlay" opacity="0.8">
<path d="M19.3131 12.2448C19.826 8.24067 18.8506 6.2092 17.5112 5.48071C17.4585 5.48771 17.4086 5.49985 17.3554 5.51198C18.6663 6.26661 19.6099 8.29341 19.1045 12.2448C18.9348 13.5476 18.552 14.8137 17.9714 15.9923C17.4891 17.0297 16.8658 17.9956 16.1191 18.8624C16.1621 18.896 16.2031 18.9272 16.2461 18.958C17.0278 18.0658 17.6788 17.0671 18.1795 15.9918C18.7617 14.8138 19.1447 13.548 19.3131 12.2448Z" fill="white"/>
</g>
<path id="Vector_4" style="mix-blend-mode:overlay" opacity="0.5" d="M14.2215 21.328C14.0945 21.2324 13.9746 21.1316 13.8528 21.0308C11.8759 21.8554 9.13697 22.3725 6.41528 21.7401C6.85852 22.3078 7.35688 22.8303 7.90306 23.2998C10.558 23.6619 13.1122 22.8182 14.852 21.7859C14.6381 21.6365 14.4272 21.4831 14.2191 21.3257L14.2215 21.328Z" fill="url(#paint2_radial_269_76378)"/>
<path id="Vector_5" style="mix-blend-mode:overlay" opacity="0.6" d="M13.8548 21.0304C13.795 20.98 13.733 20.93 13.6756 20.8796C11.6842 21.6749 8.93127 22.1518 6.21657 21.4737C6.28377 21.5624 6.35098 21.6534 6.41771 21.7397C9.13754 22.3721 11.8779 21.855 13.8548 21.0304Z" fill="url(#paint3_linear_269_76378)"/>
<path id="Vector_6" style="mix-blend-mode:overlay" opacity="0.9" d="M5.15533 16.9142C5.16933 16.9571 5.18659 16.9982 5.20339 17.0388C5.29206 17.2498 5.40687 17.4388 5.54594 17.6091C5.50767 16.0854 6.77751 14.2233 10.5007 12.666C11.7137 12.1615 13.0016 11.8603 14.3126 11.7746C15.4945 11.6692 16.6855 11.7338 17.8491 11.9664C17.9093 11.4634 17.9331 10.9939 17.9284 10.579C16.5694 10.2369 15.1624 10.1259 13.7666 10.2509C12.4555 10.3368 11.1675 10.6379 9.95423 11.1423C5.5198 12.9969 4.56357 15.2804 5.15579 16.9165V16.9142H5.15533Z" fill="url(#paint4_radial_269_76378)"/>
<g id="Vector_7" style="mix-blend-mode:overlay" opacity="0.8">
<path d="M10.5007 12.6685C6.77753 14.2263 5.50722 16.0879 5.54596 17.6116C5.57956 17.6522 5.61549 17.6909 5.65143 17.7292C5.64863 16.2171 6.93294 14.3868 10.6062 12.8481C11.8192 12.3436 13.1071 12.0425 14.4181 11.9568C15.5577 11.856 16.7058 11.9125 17.83 12.1248C17.8375 12.0722 17.8439 12.0195 17.8491 11.9666C16.6853 11.7353 15.4945 11.6709 14.3126 11.7752C13.0017 11.8612 11.7138 12.1623 10.5007 12.6666V12.6685Z" fill="white"/>
</g>
<path id="Vector_8" style="mix-blend-mode:overlay" opacity="0.4" d="M20.9115 12.5346C20.8928 12.6928 20.8662 12.8459 20.8396 13.0018C22.5407 14.3005 24.3593 16.416 25.1742 19.0873C25.4435 18.4189 25.6465 17.7257 25.7804 17.0176C24.7668 14.5376 22.7591 12.7474 20.9955 11.7581C20.974 12.0101 20.9474 12.2663 20.9138 12.5346H20.9115Z" fill="url(#paint5_radial_269_76378)"/>
<path id="Vector_9" style="mix-blend-mode:overlay" opacity="0.5" d="M20.8395 13.002C20.8251 13.0785 20.8129 13.1578 20.7985 13.2344C22.4832 14.5616 24.2729 16.7065 25.042 19.3969C25.0873 19.2942 25.1307 19.1906 25.1713 19.088C24.3569 16.4162 22.5406 14.3031 20.8367 13.002H20.8395Z" fill="url(#paint6_linear_269_76378)"/>
<path id="Vector_10" style="mix-blend-mode:overlay" opacity="0.9" d="M21.6231 22.593C21.7963 22.389 21.934 22.1574 22.0306 21.9079C20.7294 22.7031 18.4838 22.5332 15.2711 20.0864C14.2268 19.2887 13.3216 18.3236 12.5924 17.2303C11.91 16.2597 11.3702 15.1964 10.9893 14.0728C10.5245 14.2716 10.1054 14.4872 9.74606 14.6981C10.1301 16.046 10.7375 17.32 11.5428 18.467C12.2615 19.5404 13.1575 20.5111 14.2216 21.3231C18.0456 24.2366 20.5017 23.9226 21.6203 22.5925H21.6231V22.593Z" fill="url(#paint7_radial_269_76378)"/>
<g id="Vector_11" style="mix-blend-mode:overlay" opacity="0.8">
<path d="M15.2734 20.0868C18.4837 22.5327 20.7313 22.703 22.0319 21.9073C22.051 21.8574 22.0678 21.807 22.0823 21.7589C20.7742 22.5187 18.5458 22.3194 15.3784 19.9071C14.3341 19.1094 13.4289 18.1443 12.6996 17.051C12.0425 16.1149 11.5177 15.0925 11.14 14.0129C11.0896 14.0344 11.042 14.0535 10.9939 14.075C11.3746 15.1988 11.9143 16.2623 12.5965 17.2331C13.3152 18.3064 14.2112 19.2771 15.2753 20.0891L15.2729 20.0868H15.2734Z" fill="white"/>
</g>
<path id="Vector_12" style="mix-blend-mode:overlay" opacity="0.3" d="M9.9519 11.1376C10.098 11.0774 10.244 11.0223 10.3924 10.9673C10.6659 8.84433 11.5881 6.2113 13.4959 4.17236C12.7819 4.27503 12.0795 4.44304 11.3991 4.68011C9.75729 6.79839 9.21127 9.43141 9.23554 11.454C9.46282 11.3467 9.70036 11.2407 9.94957 11.1381L9.9519 11.1376Z" fill="url(#paint8_radial_269_76378)"/>
<path id="Vector_13" style="mix-blend-mode:overlay" opacity="0.4" d="M10.3919 10.9677C10.4666 10.9416 10.5384 10.9126 10.6126 10.8865C10.9193 8.76309 11.8825 6.1422 13.8258 4.12939C13.7156 4.14153 13.605 4.156 13.4949 4.17046C11.5875 6.21173 10.6654 8.84242 10.3924 10.9654V10.9677H10.3919Z" fill="url(#paint9_linear_269_76378)"/>
<path id="Vector_14" style="mix-blend-mode:multiply" opacity="0.4" d="M14.0801 1.03366C10.237 1.29501 6.86379 3.08474 4.50844 5.76583L4.45571 5.82556C4.91306 6.28105 6.41298 7.17708 7.0192 7.55089C8.2272 6.24947 9.73398 5.26183 11.4093 4.67332C11.5269 4.51978 11.651 4.36905 11.7808 4.22297C13.3619 2.43791 15.5208 1.49615 18.0268 1.49615C18.305 1.49615 18.8729 1.54188 18.8846 1.54188C17.3252 1.0933 15.6993 0.921136 14.0806 1.0332L14.0801 1.03366Z" fill="url(#paint10_linear_269_76378)"/>
<path id="Vector_15" style="mix-blend-mode:multiply" opacity="0.4" d="M15.7718 25.9207C12.7939 26.1242 10.0097 25.1087 7.90586 23.3022C7.70828 23.2764 7.51169 23.2435 7.31644 23.2037C4.98023 22.7268 3.0827 21.3276 1.83199 19.1594C1.69427 18.9198 1.56873 18.6734 1.45584 18.4211C3.07336 24.8688 9.11364 29.4358 15.9781 28.9682C16.0093 28.2616 15.8007 26.6208 15.7695 25.9207H15.7718Z" fill="url(#paint11_linear_269_76378)"/>
<path id="Vector_16" style="mix-blend-mode:multiply" opacity="0.4" d="M28.9959 14.0513C28.5647 14.0079 26.4656 14.1736 25.9485 14.2595C26.0129 15.2087 25.9531 16.1383 25.7828 17.0343C25.8547 17.2117 25.9242 17.3937 25.9863 17.578C26.7414 19.84 26.4777 22.1809 25.227 24.3515C25.0885 24.5906 24.9382 24.8227 24.7766 25.0468C24.7766 25.0468 24.7836 25.0417 24.786 25.037C27.6304 22.2696 29.2857 18.321 28.9959 14.0536V14.0513Z" fill="url(#paint12_linear_269_76378)"/>
<path id="Vector_17" style="mix-blend-mode:multiply" opacity="0.5" d="M18.1706 4.6419C18.4772 4.67316 18.8052 4.7497 19.1002 4.84817C19.1142 4.85284 19.1291 4.8575 19.1408 4.85984C20.3427 5.35039 21.4483 6.04968 22.4066 6.92538C22.4066 6.92538 22.4113 6.92771 22.4136 6.93004C22.8738 6.40549 23.7577 5.8282 23.7577 5.8282C23.7577 5.8282 22.4043 4.44309 20.3318 4.01187C18.8822 3.70993 15.6117 3.42012 13.5485 6.93004L13.5677 6.91137C13.7212 6.68083 13.8817 6.45589 14.0661 6.24962C15.0652 5.12118 16.5507 4.47622 18.1706 4.6419Z" fill="url(#paint13_linear_269_76378)"/>
<path id="Vector_18" style="mix-blend-mode:multiply" opacity="0.5" d="M22.4303 22.8999C22.242 23.1561 22.0267 23.3914 21.7882 23.6018C21.7789 23.6111 21.7667 23.6209 21.7569 23.6307C20.7311 24.4257 19.5729 25.0332 18.3357 25.4251C18.3333 25.4251 18.331 25.4251 18.3282 25.4274C18.5536 26.0887 18.611 27.143 18.611 27.143C18.611 27.143 20.4871 26.6642 21.8965 25.0849C22.8812 23.9803 24.7689 21.2922 22.7608 17.751C22.7608 17.751 22.7636 17.7626 22.7682 17.7771C22.8928 18.0245 23.0053 18.2779 23.0916 18.5392C23.5686 19.9673 23.3861 21.5773 22.4327 22.8976L22.4303 22.8999Z" fill="url(#paint14_linear_269_76378)"/>
<path id="Vector_19" style="mix-blend-mode:multiply" opacity="0.5" d="M4.48985 17.4632C4.36163 17.1717 4.26509 16.8672 4.2019 16.5551C4.19957 16.5411 4.1949 16.5261 4.19257 16.5116C4.01523 15.2203 4.07263 13.9122 4.34844 12.6522V12.6447C3.66288 12.5103 2.72158 12.0315 2.72158 12.0315C2.72158 12.0315 2.1989 13.8982 2.86299 15.9059C3.32781 17.312 4.71012 20.2904 8.78053 20.3216C8.78053 20.3216 8.76886 20.3188 8.75439 20.3142C8.47905 20.2974 8.20371 20.2689 7.93303 20.2138C6.45691 19.9119 5.1558 18.9487 4.48705 17.4632H4.48985Z" fill="url(#paint15_linear_269_76378)"/>
<path id="Vector_20" style="mix-blend-mode:multiply" opacity="0.6" d="M17.5812 10.11C17.6937 10.124 17.8038 10.1286 17.9116 10.1263C17.9116 10.1263 17.8374 8.67212 17.6601 7.9245C17.4804 7.17921 17.2167 6.68312 16.9293 6.40311C16.7211 6.20197 16.0668 5.9523 15.5591 7.49048C15.5197 7.79513 15.5408 8.10455 15.6211 8.40103C15.7015 8.69752 15.8395 8.97524 16.0273 9.2183C16.2152 9.46136 16.4491 9.66498 16.7157 9.81751C16.9824 9.97003 17.2765 10.0685 17.5812 10.1072V10.1095V10.11Z" fill="url(#paint16_linear_269_76378)"/>
<path id="Vector_21" style="mix-blend-mode:multiply" opacity="0.5" d="M9.51915 15.2371C9.47548 15.1356 9.42496 15.0372 9.36794 14.9426C9.36794 14.9426 8.14337 15.7332 7.58755 16.2601C7.03173 16.7874 6.73445 17.2644 6.63645 17.6545C6.56691 17.935 6.67705 18.6252 8.2633 18.2967C8.83532 18.0572 9.28887 17.6004 9.52427 17.0267C9.75966 16.453 9.75765 15.8093 9.51868 15.2371H9.51915Z" fill="url(#paint17_linear_269_76378)"/>
<path id="Vector_22" style="mix-blend-mode:multiply" opacity="0.6" d="M17.9885 19.6529C17.9213 19.7416 17.8616 19.8377 17.8088 19.9329C17.8088 19.9329 19.1053 20.597 19.8408 20.8149C20.5763 21.0333 21.1368 21.0525 21.5227 20.9419C21.8008 20.863 22.3422 20.4197 21.266 19.2123C21.0217 19.0262 20.7432 18.89 20.4462 18.8115C20.1493 18.733 19.8398 18.7138 19.5354 18.755C19.231 18.7962 18.9378 18.8969 18.6724 19.0514C18.4069 19.206 18.1746 19.4113 17.9885 19.6557V19.6529Z" fill="url(#paint18_linear_269_76378)"/>
<path id="Vector_23" style="mix-blend-mode:multiply" opacity="0.3" d="M17.4856 13.6226C17.1916 14.6003 16.7791 15.4893 16.2737 16.2724C16.2471 16.313 16.2209 16.3541 16.192 16.397C16.192 16.397 16.192 16.3993 16.1897 16.4017C15.8357 16.9103 15.4346 17.3846 14.9917 17.818C15.3128 18.1582 15.6576 18.4887 16.0389 18.8027C16.4719 19.1433 16.9299 19.4508 17.4091 19.7226C18.3847 18.7164 19.1842 17.5534 19.7742 16.2822C19.9853 15.8517 20.1707 15.4092 20.3296 14.9568C19.8363 14.5951 19.3379 14.3053 18.8782 14.1088C18.4251 13.9146 17.959 13.7522 17.4833 13.6226H17.4861H17.4856Z" fill="url(#paint19_linear_269_76378)"/>
<path id="Vector_24" style="mix-blend-mode:multiply" opacity="0.3" d="M7.90639 23.3026C10.5609 23.6643 13.115 22.821 14.8548 21.7882C14.641 21.6388 14.43 21.4854 14.222 21.3281C13.5603 20.8219 12.9534 20.2479 12.4113 19.6154C11.1027 20.1875 9.45437 20.523 7.92785 20.2113C6.4522 19.9098 5.15109 18.9466 4.48234 17.4611C4.35428 17.1696 4.25791 16.8651 4.19486 16.553C4.58081 19.2602 5.94632 21.6226 7.90405 23.3021L7.90639 23.3026Z" fill="url(#paint20_linear_269_76378)"/>
<path id="Vector_25" style="mix-blend-mode:multiply" opacity="0.3" d="M14.9911 17.8176C14.3205 17.1091 13.7528 16.31 13.3045 15.4436C13.283 15.3979 13.2588 15.3573 13.2373 15.3115V15.3069C12.9746 14.7452 12.7644 14.1605 12.6096 13.5601C12.1541 13.6679 11.6968 13.8023 11.2366 13.9749C10.7258 14.1791 10.2309 14.4208 9.75585 14.6983C10.1824 16.1767 10.8124 17.4251 11.5479 18.4696C11.8139 18.8648 12.1019 19.2457 12.4159 19.6125C12.976 19.3679 13.4772 19.0781 13.8767 18.7785C14.2702 18.483 14.6433 18.1611 14.9934 17.8153L14.9911 17.8176Z" fill="url(#paint21_linear_269_76378)"/>
<path id="Vector_26" style="mix-blend-mode:multiply" opacity="0.3" d="M11.4 4.68282C9.75869 6.80109 9.2122 9.43412 9.23647 11.4563C9.47302 11.3452 9.71185 11.2391 9.95283 11.138C10.7209 10.8172 11.5207 10.5786 12.339 10.4263C12.4977 9.00757 13.0315 7.41198 14.0643 6.24761C15.063 5.11917 16.5489 4.47421 18.1688 4.63989C18.4754 4.67115 18.8035 4.74769 19.0984 4.84616C19.1124 4.85083 19.1269 4.85549 19.139 4.85783C17.6015 4.23046 15.9406 3.96416 14.2841 4.0794C13.2779 4.14894 12.3147 4.35241 11.4042 4.67349C11.4019 4.67582 11.3995 4.68049 11.3972 4.68282H11.4Z" fill="url(#paint22_linear_269_76378)"/>
<path id="Vector_27" style="mix-blend-mode:multiply" opacity="0.3" d="M25.7803 17.0153C24.7648 14.5353 22.7566 12.7428 20.993 11.7534C20.9716 12.0054 20.9454 12.264 20.909 12.5346C20.8021 13.36 20.6086 14.1719 20.3317 14.9567C21.4821 15.8052 22.5984 17.0629 23.0922 18.5413C23.5687 19.9694 23.3867 21.5794 22.4332 22.8997C22.2449 23.1559 22.0296 23.3912 21.7911 23.6016L21.7817 23.6109C23.8375 21.9962 25.2912 19.6674 25.7901 17.0321C25.7901 17.0274 25.7854 17.0223 25.7854 17.0176L25.7803 17.0153Z" fill="url(#paint23_linear_269_76378)"/>
<path id="Vector_28" style="mix-blend-mode:multiply" opacity="0.3" d="M12.3315 12.1129C12.3902 12.601 12.4821 13.0846 12.6069 13.5601C13.6014 13.3254 14.5763 13.239 15.5087 13.2848L15.6571 13.2918H15.6618C16.2465 13.3398 16.8551 13.4476 17.4856 13.6203C17.6195 13.1723 17.7324 12.707 17.8136 12.2231C17.9023 11.6196 17.9284 11.061 17.9261 10.5747C16.4337 10.206 15.0392 10.1314 13.767 10.2466C13.2886 10.278 12.8125 10.338 12.3413 10.4263C12.2741 11.0349 12.2713 11.6122 12.3339 12.111L12.3315 12.1129Z" fill="url(#paint24_linear_269_76378)"/>
</g>
<g id="Group 1171275463">
<path id="Vector_29" d="M87.7063 8.77382L85.1916 15.7729H85.2118L87.72 8.8142L87.7063 8.77382ZM43.0679 8.77382L40.5538 15.7729H40.5636L43.0777 8.79727L43.0679 8.77382ZM43.6965 10.5226L45.582 15.7729H41.8005L40.8469 18.4212H46.5453L48.1606 22.9121H51.7755L45.188 6.38672L43.6965 10.5226Z" fill="white"/>
<path id="Vector_30" d="M40.553 15.7727L43.0677 8.77355L43.0782 8.797L44.1379 5.85432H41.3626L34.5843 22.9131H37.9887L40.5634 15.7733L40.553 15.7727ZM62.7279 14.1242C61.9053 13.6389 60.8117 13.1843 59.4505 12.7662C58.6715 12.5121 58.0625 12.2777 57.6216 12.0608C57.18 11.8432 56.8725 11.5964 56.7019 11.3222C56.5312 11.0441 56.4446 10.7197 56.4446 10.3452C56.4446 9.6867 56.6986 9.17867 57.2067 8.8211C57.7154 8.46287 58.4272 8.28245 59.3404 8.28245C60.0894 8.28245 60.8684 8.39578 61.6845 8.61984C62.5 8.84389 63.2223 9.15132 63.8515 9.53951L64.323 6.7805C63.6808 6.39296 62.8979 6.08163 61.9789 5.84781C61.0803 5.61914 60.1569 5.50232 59.2297 5.5C57.9896 5.5 56.909 5.70061 55.9998 6.10573C55.0866 6.50955 54.3812 7.08532 53.8797 7.83434C53.3782 8.58336 53.1274 9.46591 53.1274 10.4826C53.1274 11.3521 53.2942 12.1012 53.6322 12.7362C53.9696 13.3719 54.518 13.9236 55.2807 14.3847C56.0428 14.8497 57.0464 15.2679 58.2866 15.6417C59.1828 15.9134 59.8784 16.1674 60.3734 16.4044C60.8684 16.6422 61.213 16.9099 61.4071 17.2004C61.6005 17.4915 61.6975 17.8387 61.6975 18.2438C61.6975 18.9459 61.4103 19.4976 60.8352 19.8923C60.2601 20.287 59.4609 20.4876 58.4442 20.4876C57.561 20.4876 56.6381 20.3508 55.6722 20.0727C54.7056 19.7952 53.866 19.4409 53.147 19.0065L52.833 21.8554C53.2505 22.1393 53.7761 22.3868 54.4047 22.5946C55.0332 22.805 55.7086 22.9691 56.4342 23.0896C57.1598 23.2095 57.8821 23.27 58.6012 23.27C60.6209 23.27 62.2062 22.8083 63.3597 21.8892C64.51 20.9689 65.0883 19.6949 65.0883 18.0634C65.0883 17.1971 64.9014 16.4448 64.5269 15.8098C64.1524 15.1741 63.5538 14.612 62.7312 14.1274L62.7279 14.1242ZM80.6348 5.85497H66.2053V8.63612H80.6348V5.85497ZM75.1363 9.80069H71.7019V22.9086H75.1363V9.80069ZM85.1921 15.7727L87.7068 8.77355L87.7198 8.81393L88.7867 5.85432H85.9977L79.2227 22.9125H82.6337L84.249 18.4209H84.2555L85.2123 15.7727H85.1921ZM88.338 10.536L90.2177 15.7727H86.4485L85.4956 18.4209H91.1836L92.7989 22.9118H96.4137L89.8295 6.39948L88.338 10.536ZM107.519 16C108.331 15.5452 109.024 14.9032 109.539 14.1274C110.063 13.3413 110.325 12.4255 110.325 11.3788C110.325 10.2416 110.071 9.26204 109.562 8.43942C109.054 7.6168 108.328 6.98111 107.385 6.533C106.442 6.08489 105.322 5.86083 104.018 5.86083H102.824V8.44268H103.567C105.84 8.44268 106.977 9.41575 106.977 11.3587C106.977 13.3015 105.803 14.2746 103.453 14.2746H102.821V16.8558H104.573L108.164 22.9151H112.003L107.516 16.0032L107.519 16ZM101.664 5.85497H98.41V22.9086H101.664V5.85497Z" fill="white"/>
</g>
</g>
</g>
<defs>
<linearGradient id="paint0_linear_269_76378" x1="5.47637" y1="24.5557" x2="23.3265" y2="6.70322" gradientUnits="userSpaceOnUse">
<stop stop-color="#E6007A"/>
<stop offset="0.21" stop-color="#703AC2"/>
<stop offset="0.46" stop-color="#0070EB"/>
<stop offset="0.77" stop-color="#0297FB"/>
<stop offset="1" stop-color="#0AE2FF"/>
</linearGradient>
<radialGradient id="paint1_radial_269_76378" cx="0" cy="0" r="1" gradientUnits="userSpaceOnUse" gradientTransform="translate(19.0208 12.1654) scale(5.32392)">
<stop stop-color="white"/>
<stop offset="1" stop-color="white" stop-opacity="0"/>
</radialGradient>
<radialGradient id="paint2_radial_269_76378" cx="0" cy="0" r="1" gradientUnits="userSpaceOnUse" gradientTransform="translate(11.1526 22.0421) scale(3.09802 3.09802)">
<stop stop-color="white"/>
<stop offset="1" stop-color="white" stop-opacity="0"/>
</radialGradient>
<linearGradient id="paint3_linear_269_76378" x1="6.50405" y1="21.5171" x2="9.48989" y2="21.4761" gradientUnits="userSpaceOnUse">
<stop stop-color="white" stop-opacity="0"/>
<stop offset="1" stop-color="white"/>
</linearGradient>
<radialGradient id="paint4_radial_269_76378" cx="0" cy="0" r="1" gradientUnits="userSpaceOnUse" gradientTransform="translate(10.5806 12.96) rotate(-120) scale(5.32392)">
<stop stop-color="white"/>
<stop offset="1" stop-color="white" stop-opacity="0"/>
</radialGradient>
<radialGradient id="paint5_radial_269_76378" cx="0" cy="0" r="1" gradientUnits="userSpaceOnUse" gradientTransform="translate(23.0684 14.8368) rotate(-120) scale(3.09802)">
<stop stop-color="white"/>
<stop offset="1" stop-color="white" stop-opacity="0"/>
</radialGradient>
<linearGradient id="paint6_linear_269_76378" x1="24.937" y1="19.123" x2="23.4086" y2="16.5581" gradientUnits="userSpaceOnUse">
<stop stop-color="white" stop-opacity="0"/>
<stop offset="1" stop-color="white"/>
</linearGradient>
<radialGradient id="paint7_radial_269_76378" cx="0" cy="0" r="1" gradientUnits="userSpaceOnUse" gradientTransform="translate(15.2364 19.6263) rotate(120) scale(5.32392)">
<stop stop-color="white"/>
<stop offset="1" stop-color="white" stop-opacity="0"/>
</radialGradient>
<radialGradient id="paint8_radial_269_76378" cx="0" cy="0" r="1" gradientUnits="userSpaceOnUse" gradientTransform="translate(10.8691 8.12193) rotate(120) scale(3.09802)">
<stop stop-color="white"/>
<stop offset="1" stop-color="white" stop-opacity="0"/>
</radialGradient>
<linearGradient id="paint9_linear_269_76378" x1="13.6456" y1="4.3576" x2="12.19" y2="6.96496" gradientUnits="userSpaceOnUse">
<stop stop-color="white" stop-opacity="0"/>
<stop offset="1" stop-color="white"/>
</linearGradient>
<linearGradient id="paint10_linear_269_76378" x1="14.2962" y1="3.032" x2="9.73389" y2="4.35925" gradientUnits="userSpaceOnUse">
<stop stop-color="#231F20"/>
<stop offset="1" stop-color="white"/>
</linearGradient>
<linearGradient id="paint11_linear_269_76378" x1="5.67745" y1="20.4269" x2="9.49212" y2="24.4087" gradientUnits="userSpaceOnUse">
<stop stop-color="#231F20"/>
<stop offset="1" stop-color="white"/>
</linearGradient>
<linearGradient id="paint12_linear_269_76378" x1="26.1496" y1="19.8279" x2="27.4769" y2="15.793" gradientUnits="userSpaceOnUse">
<stop stop-color="#231F20"/>
<stop offset="1" stop-color="white"/>
</linearGradient>
<linearGradient id="paint13_linear_269_76378" x1="16.3734" y1="5.34145" x2="22.4883" y2="6.74104" gradientUnits="userSpaceOnUse">
<stop stop-color="#231F20"/>
<stop offset="1" stop-color="white"/>
</linearGradient>
<linearGradient id="paint14_linear_269_76378" x1="22.7244" y1="20.9935" x2="18.4519" y2="25.5903" gradientUnits="userSpaceOnUse">
<stop stop-color="#231F20"/>
<stop offset="1" stop-color="white"/>
</linearGradient>
<linearGradient id="paint15_linear_269_76378" x1="5.99256" y1="18.6696" x2="4.14917" y2="12.6732" gradientUnits="userSpaceOnUse">
<stop stop-color="#231F20"/>
<stop offset="1" stop-color="white"/>
</linearGradient>
<linearGradient id="paint16_linear_269_76378" x1="17.7105" y1="7.59595" x2="15.777" y2="9.53222" gradientUnits="userSpaceOnUse">
<stop stop-color="#231F20"/>
<stop offset="1" stop-color="white"/>
</linearGradient>
<linearGradient id="paint17_linear_269_76378" x1="7.2786" y1="16.3781" x2="9.92096" y2="17.088" gradientUnits="userSpaceOnUse">
<stop stop-color="#231F20"/>
<stop offset="1" stop-color="white"/>
</linearGradient>
<linearGradient id="paint18_linear_269_76378" x1="20.0993" y1="21.0226" x2="19.3914" y2="18.3812" gradientUnits="userSpaceOnUse">
<stop stop-color="#231F20"/>
<stop offset="1" stop-color="white"/>
</linearGradient>
<linearGradient id="paint19_linear_269_76378" x1="16.0772" y1="18.673" x2="17.2392" y2="17.0704" gradientUnits="userSpaceOnUse">
<stop stop-color="#231F20"/>
<stop offset="1" stop-color="white"/>
</linearGradient>
<linearGradient id="paint20_linear_269_76378" x1="12.0804" y1="17.9787" x2="9.75865" y2="19.0857" gradientUnits="userSpaceOnUse">
<stop stop-color="#231F20"/>
<stop offset="1" stop-color="white"/>
</linearGradient>
<linearGradient id="paint21_linear_269_76378" x1="11.2366" y1="14.1135" x2="11.9553" y2="15.6065" gradientUnits="userSpaceOnUse">
<stop stop-color="#231F20"/>
<stop offset="1" stop-color="white"/>
</linearGradient>
<linearGradient id="paint22_linear_269_76378" x1="14.5795" y1="9.50365" x2="14.0834" y2="7.79046" gradientUnits="userSpaceOnUse">
<stop stop-color="#231F20"/>
<stop offset="1" stop-color="white"/>
</linearGradient>
<linearGradient id="paint23_linear_269_76378" x1="19.9416" y1="17.3503" x2="21.379" y2="17.6812" gradientUnits="userSpaceOnUse">
<stop stop-color="#231F20"/>
<stop offset="1" stop-color="white"/>
</linearGradient>
<linearGradient id="paint24_linear_269_76378" x1="17.6867" y1="12.4942" x2="15.8634" y2="12.1633" gradientUnits="userSpaceOnUse">
<stop stop-color="#231F20"/>
<stop offset="1" stop-color="white"/>
</linearGradient>
</defs>
</svg>
