<svg width="292" height="41" viewBox="0 0 292 41" fill="none" xmlns="http://www.w3.org/2000/svg">
<path d="M33.4395 22.8487C33.4395 25.4027 32.7085 27.2725 32.0233 28.2759C29.4651 32.198 25.3537 32.198 22.1559 32.198H0V0H20.9225C23.3894 0 27.5464 0 29.9676 2.64516C31.3838 4.19577 31.7949 6.15684 31.7949 7.70745C31.8863 12.4049 28.7342 14.0011 26.4501 14.7308C28.8255 15.2781 33.3938 16.7831 33.4395 22.8487ZM24.0289 9.07564C24.0289 5.51835 21.1966 5.56396 20.1916 5.56396H7.99441V12.6329H19.552C20.2373 12.6329 24.0289 13.0434 24.0289 9.07564ZM25.3994 22.1646C25.3994 18.2881 22.293 18.2425 21.1052 18.2425H7.99441V26.5428H20.42C21.6991 26.5428 25.3994 26.634 25.3994 22.1646Z" fill="white"/>
<path d="M68.8668 20.2948C68.8668 21.3437 68.7298 24.3081 66.9482 26.9989C66.4913 27.683 65.7604 28.6863 64.2529 29.8265C60.0044 33.0645 54.6139 33.1557 53.0607 33.1557C49.1777 33.1557 45.98 32.1524 44.7009 31.6051C44.1527 31.3771 43.102 30.921 41.9599 30.0545C40.6808 29.0968 39.9499 28.2303 39.5388 27.7286C38.7165 26.6796 37.209 24.2625 37.209 20.614C37.209 19.6107 37.346 16.9655 38.9449 14.4572C40.7722 11.6296 45.2034 8.0267 53.3348 8.0723C58.3142 8.0723 63.8874 9.57731 66.9025 13.9099C68.7298 16.6007 68.8668 19.0634 68.8668 20.2948ZM61.1008 20.4316C61.1008 19.7931 61.0095 18.2425 60.0958 16.7831C59.1365 15.2781 56.898 13.317 52.6496 13.5451C49.7259 13.6819 47.9443 14.7764 47.0763 15.5973C46.2997 16.327 44.975 17.9689 44.975 20.7508C44.975 23.624 46.7566 26.0868 49.4975 27.0901C50.1827 27.3181 51.3248 27.5918 53.1064 27.5918C54.751 27.5918 55.893 27.2725 56.5783 27.0445C60.6897 25.6307 61.1008 21.7998 61.1008 20.4316Z" fill="white"/>
<path d="M102.603 32.198H95.1106V28.9144C94.9279 29.0968 94.0142 30.0089 93.1919 30.5562C91.6387 31.6051 88.8978 32.7453 84.5123 32.7453C80.4466 32.7453 78.2538 31.5595 76.8834 30.465C76.4265 30.1001 75.3758 29.2792 74.782 27.911C74.2338 26.7253 74.051 25.6763 74.051 23.2136V9.12125H81.5886V21.2525C81.5886 22.7119 81.6343 24.0345 82.5023 25.2659C83.4159 26.4972 84.7407 27.0901 86.2025 27.3181C87.0705 27.455 87.8471 27.455 88.1669 27.455C88.7151 27.455 90.451 27.4093 92.0042 26.8165C94.9279 25.6307 95.1106 23.396 95.1106 20.6596V9.12125H102.603V32.198Z" fill="white"/>
<path d="M137.709 32.198H130.171V20.4316C130.171 18.4705 130.034 16.6007 128.481 15.2325C127.659 14.4572 126.334 13.7731 123.73 13.7731C121.172 13.7731 118.065 14.5028 117.06 17.2848C116.832 17.9232 116.74 18.4249 116.74 19.7931V32.198H109.294V9.12125H116.74V12.4049C117.563 11.584 117.883 11.3103 118.385 10.8999C119.71 9.89655 122.588 8.43715 126.928 8.43715C131.496 8.43715 134.237 10.2158 135.516 11.584C136.201 12.3137 136.658 13.089 136.978 14.0011C137.663 15.7798 137.709 17.5584 137.709 19.4283V32.198Z" fill="white"/>
<path d="M157.922 32.0156C156.095 32.198 154.268 32.3804 152.44 32.3804C152.029 32.3804 151.573 32.3804 151.161 32.3348C150.43 32.2892 146.776 32.1068 145.634 28.96C145.223 27.911 145.223 26.9989 145.223 25.9499V13.5451H141.477V9.12125H145.223V2.9644H152.715V9.12125H157.877V13.5451H152.715V23.9889C152.715 25.0378 152.806 25.4939 153.126 25.9499C153.583 26.5428 154.222 26.7709 155.684 26.7709C156.415 26.7709 157.191 26.6796 157.922 26.634V32.0156Z" fill="white"/>
<path d="M186.931 9.12125L176.058 33.703C175.51 34.8888 174.916 36.1201 174.185 37.2603C172.084 40.5895 169.663 41 165.962 41C164.089 41 162.262 40.9088 160.389 40.772L160.435 35.3448C161.668 35.436 162.947 35.5729 164.227 35.5729C164.455 35.5729 166.1 35.6641 167.105 34.8432C167.744 34.3415 168.064 33.6118 168.749 32.1524L158.425 9.12125H166.465L172.86 25.7675L178.982 9.12125H186.931Z" fill="white"/>
<path d="M223.842 22.8487C223.842 25.4027 223.111 27.2725 222.426 28.2759C219.868 32.198 215.756 32.198 212.558 32.198H190.402V0H211.325C213.792 0 217.949 0 220.37 2.64516C221.786 4.19577 222.197 6.15684 222.197 7.70745C222.289 12.4049 219.137 14.0011 216.853 14.7308C219.228 15.2781 223.796 16.7831 223.842 22.8487ZM214.431 9.07564C214.431 5.51835 211.599 5.56396 210.594 5.56396H198.397V12.6329H209.955C210.64 12.6329 214.431 13.0434 214.431 9.07564ZM215.802 22.1646C215.802 18.2881 212.695 18.2425 211.508 18.2425H198.397V26.5428H210.823C212.102 26.5428 215.802 26.634 215.802 22.1646Z" fill="white"/>
<path d="M236.748 6.20245H229.256V1.09455H236.748V6.20245ZM236.748 32.198H229.256V9.12125H236.748V32.198Z" fill="white"/>
<path d="M260.844 15.1413C260.159 15.0957 259.52 15.0501 258.834 15.0501C256.916 15.0501 254.357 15.3693 252.759 16.7375C252.165 17.2392 251.754 17.9232 251.662 18.1513C251.205 19.0634 251.114 20.0211 251.114 21.0701V32.198H243.531V9.12125H251.114V13.0434C251.388 12.6329 251.799 12.04 252.073 11.7208C254.906 8.34594 259.748 8.39155 260.844 8.34594V15.1413Z" fill="white"/>
<path d="M292 32.198H284.599V29.416C283.731 30.2369 283.366 30.5562 282.909 30.8754C281.767 31.6963 279.163 33.0189 275.417 33.0189C272.174 33.0189 268.702 31.8788 266.327 29.5984C265.047 28.3671 262.9 25.4939 262.9 20.842C262.9 19.9299 262.992 17.7864 263.951 15.5061C265.961 10.8999 270.484 8.39155 275.417 8.39155C276.605 8.39155 279.848 8.61958 282.909 10.3526C283.732 10.8543 284.325 11.356 284.599 11.5384V0H292V32.198ZM284.736 20.5684C284.736 20.158 284.691 18.2881 283.869 16.8743C282.544 14.594 279.483 13.6363 277.016 13.7731C275.463 13.8643 274.504 14.2748 273.955 14.594C271.717 15.8254 270.666 18.1513 270.666 20.614C270.666 22.0278 271.032 23.2136 271.169 23.6696C271.763 25.2659 273.27 27.9566 277.61 27.911C280.945 27.911 282.772 26.2236 283.549 25.129C284.051 24.3537 284.736 22.8487 284.736 20.5684Z" fill="white"/>
</svg>
