<svg width="690" height="585" viewBox="0 0 690 585" fill="none" xmlns="http://www.w3.org/2000/svg">
<path d="M45.1812 24.7055C45.1812 11.0604 56.2426 -0.000976562 69.8877 -0.000976562H819.772C833.417 -0.000976562 844.479 11.0605 844.479 24.7055V545.363H45.1812V24.7055Z" fill="#28282A"/>
<path d="M75.7684 579.812C75.5022 580.477 74.6505 581.886 73.3729 582.206C73.2398 583.137 72.6542 584.998 71.3766 584.998H16.678C15.4004 584.998 14.8148 583.137 14.6817 582.206C13.4041 581.886 12.5523 580.477 12.2861 579.812H75.7684Z" fill="#28282A"/>
<path d="M877.042 579.812C876.775 580.477 875.924 581.886 874.646 582.206C874.513 583.137 873.927 584.998 872.65 584.998H817.951C816.673 584.998 816.088 583.137 815.955 582.206C814.677 581.886 813.825 580.477 813.559 579.812H877.042Z" fill="#28282A"/>
<path d="M930 549.278V544.999H0V549.278C0 561.782 0 568.033 2.0006 572.809C3.76039 577.01 6.56837 580.425 10.0222 582.566C13.9485 584.999 19.0885 584.999 29.3684 584.999H900.632C910.912 584.999 916.051 584.999 919.978 582.566C923.432 580.425 926.24 577.01 927.999 572.809C930 568.033 930 561.782 930 549.278Z" fill="#202022"/>
<path d="M360.294 544.971H529.181C529.181 552.242 523.287 558.137 516.015 558.137H373.461C366.189 558.137 360.294 552.242 360.294 544.971Z" fill="#353447"/>
<path d="M360.294 544.971H529.181C529.181 552.242 523.287 558.137 516.015 558.137H373.461C366.189 558.137 360.294 552.242 360.294 544.971Z" fill="#353D46"/>
</svg>
