<svg width="280" height="40" viewBox="0 0 280 40" fill="none" xmlns="http://www.w3.org/2000/svg">
<path d="M32.0652 21.9097C32.0652 24.3587 31.3644 26.1517 30.7073 27.1138C28.2542 30.8748 24.3118 30.8748 21.2454 30.8748H0V0H20.0627C22.4281 0 26.4144 0 28.7361 2.53646C30.094 4.02334 30.4883 5.90382 30.4883 7.39071C30.5759 11.8951 27.5533 13.4257 25.3631 14.1254C27.6409 14.6502 32.0214 16.0934 32.0652 21.9097ZM23.0414 8.70267C23.0414 5.29157 20.3255 5.3353 19.3618 5.3353H7.66587V12.1138H18.7485C19.4056 12.1138 23.0414 12.5074 23.0414 8.70267ZM24.3556 21.2538C24.3556 17.5365 21.3768 17.4928 20.2379 17.4928H7.66587V25.452H19.5808C20.8074 25.452 24.3556 25.5395 24.3556 21.2538Z" fill="white"/>
<path d="M66.0367 19.4607C66.0367 20.4666 65.9053 23.3092 64.1969 25.8893C63.7588 26.5453 63.0579 27.5074 61.6124 28.6007C57.5385 31.7057 52.3695 31.7932 50.8802 31.7932C47.1567 31.7932 44.0904 30.8311 42.8638 30.3063C42.3382 30.0876 41.3307 29.6503 40.2355 28.8194C39.009 27.901 38.3081 27.0701 37.9139 26.5891C37.1254 25.5832 35.6798 23.2654 35.6798 19.7669C35.6798 18.8048 35.8112 16.2683 37.3444 13.863C39.0966 11.1517 43.3457 7.69683 51.143 7.74056C55.9177 7.74056 61.2619 9.18372 64.1531 13.3383C65.9053 15.9184 66.0367 18.28 66.0367 19.4607ZM58.5898 19.5919C58.5898 18.9797 58.5022 17.4928 57.6261 16.0934C56.7062 14.6502 54.5598 12.7697 50.4859 12.9884C47.6824 13.1196 45.974 14.1692 45.1417 14.9563C44.397 15.6561 43.1267 17.2304 43.1267 19.8981C43.1267 22.6532 44.8351 25.0147 47.4634 25.9768C48.1204 26.1955 49.2156 26.4579 50.924 26.4579C52.5009 26.4579 53.5961 26.1517 54.2531 25.9331C58.1956 24.5774 58.5898 20.9039 58.5898 19.5919Z" fill="white"/>
<path d="M98.386 30.8748H91.202V27.7261C91.0267 27.901 90.1506 28.7757 89.3621 29.3004C87.8728 30.3063 85.2445 31.3996 81.0392 31.3996C77.1405 31.3996 75.0379 30.2625 73.7238 29.213C73.2857 28.8631 72.2782 28.0759 71.7087 26.764C71.1831 25.627 71.0079 24.6211 71.0079 22.2596V8.7464H78.2357V20.3791C78.2357 21.7785 78.2795 23.0468 79.1118 24.2275C79.9879 25.4083 81.2582 25.9768 82.66 26.1955C83.4923 26.3267 84.237 26.3267 84.5436 26.3267C85.0692 26.3267 86.7338 26.2829 88.2232 25.7144C91.0267 24.5774 91.202 22.4345 91.202 19.8106V8.7464H98.386V30.8748Z" fill="white"/>
<path d="M132.049 30.8748H124.822V19.5919C124.822 17.7115 124.69 15.9184 123.201 14.6065C122.412 13.863 121.142 13.2071 118.645 13.2071C116.192 13.2071 113.213 13.9068 112.25 16.5744C112.031 17.1867 111.943 17.6677 111.943 18.9797V30.8748H104.803V8.7464H111.943V11.8951C112.731 11.1079 113.038 10.8455 113.52 10.4519C114.79 9.48984 117.55 8.09042 121.711 8.09042C126.092 8.09042 128.72 9.79597 129.947 11.1079C130.604 11.8076 131.042 12.5511 131.349 13.4257C132.006 15.1313 132.049 16.8368 132.049 18.6298V30.8748Z" fill="white"/>
<path d="M151.432 30.6999C149.68 30.8748 147.928 31.0497 146.176 31.0497C145.782 31.0497 145.344 31.0497 144.949 31.006C144.248 30.9623 140.744 30.7873 139.649 27.7698C139.255 26.764 139.255 25.8893 139.255 24.8835V12.9884H135.663V8.7464H139.255V2.84258H146.439V8.7464H151.389V12.9884H146.439V23.003C146.439 24.0089 146.526 24.4462 146.833 24.8835C147.271 25.452 147.884 25.6707 149.286 25.6707C149.987 25.6707 150.732 25.5832 151.432 25.5395V30.6999Z" fill="white"/>
<path d="M179.249 8.7464L168.823 32.318C168.297 33.455 167.728 34.6357 167.027 35.729C165.012 38.9215 162.69 39.3151 159.142 39.3151C157.346 39.3151 155.594 39.2276 153.798 39.0964L153.842 33.8923C155.024 33.9798 156.251 34.111 157.477 34.111C157.697 34.111 159.273 34.1984 160.237 33.4112C160.85 32.9302 161.157 32.2305 161.814 30.8311L151.914 8.7464H159.624L165.757 24.7086L171.626 8.7464H179.249Z" fill="white"/>
<path d="M214.643 21.9097C214.643 24.3587 213.942 26.1517 213.285 27.1138C210.832 30.8748 206.889 30.8748 203.823 30.8748H182.578V0H202.64C205.006 0 208.992 0 211.314 2.53646C212.672 4.02334 213.066 5.90382 213.066 7.39071C213.154 11.8951 210.131 13.4257 207.941 14.1254C210.219 14.6502 214.599 16.0934 214.643 21.9097ZM205.619 8.70267C205.619 5.29157 202.903 5.3353 201.94 5.3353H190.244V12.1138H201.326C201.983 12.1138 205.619 12.5074 205.619 8.70267ZM206.933 21.2538C206.933 17.5365 203.955 17.4928 202.816 17.4928H190.244V25.452H202.159C203.385 25.452 206.933 25.5395 206.933 21.2538Z" fill="white"/>
<path d="M227.019 5.94755H219.835V1.04957H227.019V5.94755ZM227.019 30.8748H219.835V8.7464H227.019V30.8748Z" fill="white"/>
<path d="M250.125 14.519C249.468 14.4753 248.854 14.4316 248.197 14.4316C246.357 14.4316 243.904 14.7377 242.371 16.0496C241.802 16.5307 241.407 17.1867 241.32 17.4053C240.882 18.28 240.794 19.1983 240.794 20.2042V30.8748H233.523V8.7464H240.794V12.5074C241.057 12.1138 241.451 11.5452 241.714 11.2391C244.43 8.00296 249.073 8.04669 250.125 8.00296V14.519Z" fill="white"/>
<path d="M280 30.8748H272.904V28.2071C272.071 28.9943 271.721 29.3004 271.283 29.6066C270.188 30.3937 267.691 31.662 264.099 31.662C260.989 31.662 257.659 30.5687 255.382 28.3821C254.155 27.2013 252.096 24.4462 252.096 19.9855C252.096 19.1109 252.184 17.0555 253.104 14.8689C255.031 10.4519 259.368 8.04669 264.099 8.04669C265.238 8.04669 268.348 8.26535 271.283 9.92716C272.071 10.4082 272.641 10.8893 272.904 11.0642V0H280V30.8748ZM273.035 19.7231C273.035 19.3295 272.991 17.5365 272.203 16.1808C270.932 13.9942 267.997 13.0759 265.632 13.2071C264.143 13.2945 263.223 13.6881 262.697 13.9942C260.551 15.175 259.543 17.4053 259.543 19.7669C259.543 21.1226 259.893 22.2596 260.025 22.6969C260.594 24.2275 262.04 26.8077 266.201 26.764C269.399 26.764 271.151 25.1459 271.896 24.0963C272.378 23.3529 273.035 21.9097 273.035 19.7231Z" fill="white"/>
</svg>
