<svg width="40" height="40" viewBox="0 0 40 40" fill="none" xmlns="http://www.w3.org/2000/svg">
<g id="icons8_filter_and_sort 1">
<g id="Vector">
<path d="M28.6716 17.3507C28.8266 17.0386 28.9394 16.8084 29.0545 16.5826C31.0776 12.6449 30.0351 7.82182 26.5556 5.01517C23.1336 2.255 18.005 2.18196 14.7446 5.13912C12.0198 7.6049 9.56735 10.3695 6.93335 13.0655C7.95375 13.9774 9.02284 14.9801 10.1473 15.9164C10.7338 16.4056 10.9751 16.9257 10.9685 17.7049C10.9375 22.1273 10.9353 26.5498 10.9795 30.97C11.0127 34.381 13.5427 36.8711 16.9514 36.9131C18.9037 36.9375 20.8559 36.9419 22.8082 36.9131C28.7801 36.8224 33.4195 32.0878 33.3818 26.1381C33.3575 22.4261 31.6266 19.6106 28.6694 17.3507H28.6716ZM28.873 30.7044C28.8642 30.7199 28.8575 30.7398 28.8443 30.7509L28.8266 30.7753C28.1005 31.4813 27.421 32.1033 26.6397 32.577C26.6397 32.577 26.6264 32.5881 26.622 32.5925C25.3182 33.5111 24.1606 33.7568 22.9609 33.7811C21.0087 33.8232 19.0542 33.8254 17.1019 33.7988C15.2139 33.7745 14.0784 32.6368 14.0717 30.7531C14.054 26.0717 14.0319 21.3925 14.0916 16.711C14.1049 15.6508 13.8526 14.8849 12.9849 14.2696C12.4249 13.8734 11.9534 13.3532 11.5108 12.9526C13.3523 11.0424 15.0191 9.05914 16.947 7.37913C19.1228 5.48221 22.3279 5.63936 24.6011 7.44332C26.8499 9.22736 27.5605 12.2708 26.4095 14.9248C26.0642 15.7194 25.7056 16.0027 24.7582 15.8256C20.6147 15.0532 17.2104 16.8195 15.7052 20.3942C13.8814 24.7259 16.6238 29.4339 21.2256 30.3636C22.2349 30.5672 23.4014 30.4809 24.3908 30.3104C24.6763 30.2617 25.0238 30.1953 25.3869 30.0979C27.2041 29.6132 26.5179 26.8752 24.6808 27.2847C24.0588 27.4241 23.3881 27.5635 22.7019 27.61C22.0866 27.6499 21.0286 27.402 20.5549 27.1231C18.6159 25.9809 17.9784 24.779 18.3569 22.4106C18.6823 20.3721 20.4686 18.8249 22.6134 18.7872C25.7034 18.7341 28.0231 20.1109 29.4352 22.8246C30.7943 25.4386 30.5486 28.035 28.8797 30.7044" fill="white"/>
<path d="M21.011 12.2487C20.9911 13.4351 19.9751 14.4068 18.7975 14.3714C17.6178 14.336 16.6704 13.3089 16.7147 12.1159C16.7567 10.9892 17.7705 10.0065 18.8661 10.0308C20.0105 10.0552 21.0309 11.111 21.011 12.2487Z" fill="white"/>
</g>
</g>
</svg>
