<svg width="96" height="96" viewBox="0 0 96 96" fill="none" xmlns="http://www.w3.org/2000/svg">
<g id="file-export">
<g id="Veru7A">
<path id="Vector" d="M70.793 41.2807C71.209 40.4428 71.512 39.8247 71.8211 39.2186C77.2528 28.6463 74.4537 15.6969 65.1116 8.16137C55.924 0.75067 42.1545 0.554557 33.4007 8.49417C26.0851 15.1145 19.5004 22.5371 12.4285 29.7754C15.1681 32.2239 18.0385 34.916 21.0575 37.4298C22.6323 38.7431 23.2801 40.1397 23.2622 42.2316C23.179 54.1054 23.1731 65.9791 23.292 77.8469C23.3811 87.0048 30.1737 93.6905 39.3257 93.8034C44.5673 93.8688 49.8088 93.8807 55.0504 93.8034C71.0842 93.5598 83.5403 80.8481 83.4393 64.8738C83.3739 54.9076 78.7266 47.3484 70.787 41.2807H70.793ZM71.3338 77.1338C71.31 77.1754 71.2922 77.2289 71.2565 77.2586L71.209 77.324C69.2597 79.2197 67.4353 80.8897 65.3374 82.1614C65.3374 82.1614 65.3018 82.1911 65.2899 82.203C61.7896 84.6693 58.6815 85.329 55.4605 85.3943C50.2189 85.5072 44.9714 85.5132 39.7298 85.4419C34.6606 85.3765 31.6119 82.3219 31.5941 77.2645C31.5465 64.6955 31.4871 52.1323 31.6476 39.5633C31.6832 36.7166 31.0057 34.6604 28.6762 33.0083C27.1726 31.9446 25.9068 30.548 24.7182 29.4723C29.6627 24.3437 34.1376 19.0189 39.3138 14.5083C45.1556 9.41531 53.7608 9.83725 59.8641 14.6807C65.902 19.4706 67.8097 27.642 64.7194 34.7674C63.7923 36.9009 62.8296 37.6616 60.286 37.1861C49.1611 35.1121 40.021 39.8545 35.9799 49.4521C31.083 61.0822 38.4462 73.7226 50.8013 76.2186C53.5112 76.7654 56.6431 76.5336 59.2995 76.076C60.0662 75.9452 60.9992 75.767 61.9738 75.5055C66.8529 74.204 65.0106 66.8527 60.078 67.9521C58.4081 68.3265 56.6074 68.7009 54.7652 68.8257C53.113 68.9327 50.2724 68.2671 49.0006 67.5183C43.7947 64.4518 42.0832 61.2249 43.0994 54.866C43.973 49.3927 48.7688 45.2387 54.5274 45.1376C62.8236 44.995 69.0517 48.6914 72.8432 55.9773C76.4921 62.9958 75.8325 69.9668 71.3516 77.1338" fill="white"/>
<path id="Vector_2" d="M50.2253 27.5829C50.1718 30.7682 47.4441 33.3771 44.2825 33.282C41.115 33.1869 38.5714 30.4295 38.6903 27.2263C38.8032 24.2014 41.525 21.5628 44.4667 21.6281C47.5391 21.6935 50.2788 24.5282 50.2253 27.5829Z" fill="white"/>
</g>
</g>
</svg>
