<svg width="1024" height="278" viewBox="0 0 1024 278" fill="none" xmlns="http://www.w3.org/2000/svg">
<g opacity="0.08" clip-path="url(#clip0_974_43801)">
<mask id="mask0_974_43801" style="mask-type:alpha" maskUnits="userSpaceOnUse" x="-875" y="-842" width="2774" height="1602">
<rect width="40" height="40" transform="matrix(0.866044 0.499967 -0.866044 0.499967 1031.63 -21.0503)" stroke="white"/>
<rect width="40" height="40" transform="matrix(0.866044 0.499967 -0.866044 0.499967 962.343 -21.0503)" stroke="white"/>
<rect width="40" height="40" transform="matrix(0.866044 0.499967 -0.866044 0.499967 996.985 -1.05164)" stroke="white"/>
<rect width="40" height="40" transform="matrix(0.866044 0.499967 -0.866044 0.499967 1031.63 18.947)" stroke="white"/>
<rect width="40" height="40" transform="matrix(0.866044 0.499967 -0.866044 0.499967 893.06 -21.0503)" stroke="white"/>
<rect width="40" height="40" transform="matrix(0.866044 0.499967 -0.866044 0.499967 927.701 -1.05151)" stroke="white"/>
<rect width="40" height="40" transform="matrix(0.866044 0.499967 -0.866044 0.499967 962.343 18.9471)" stroke="white"/>
<rect width="40" height="40" transform="matrix(0.866044 0.499967 -0.866044 0.499967 996.985 38.9458)" stroke="white"/>
<rect width="40" height="40" transform="matrix(0.866044 0.499967 -0.866044 0.499967 1031.63 58.9445)" stroke="white"/>
<rect width="40" height="40" transform="matrix(0.866044 0.499967 -0.866044 0.499967 823.776 -21.0503)" stroke="white"/>
<rect width="40" height="40" transform="matrix(0.866044 0.499967 -0.866044 0.499967 858.418 -1.05164)" stroke="white"/>
<rect width="40" height="40" transform="matrix(0.866044 0.499967 -0.866044 0.499967 893.06 18.9471)" stroke="white"/>
<rect width="40" height="40" transform="matrix(0.866044 0.499967 -0.866044 0.499967 927.701 38.9458)" stroke="white"/>
<rect width="40" height="40" transform="matrix(0.866044 0.499967 -0.866044 0.499967 962.343 58.9445)" stroke="white"/>
<rect width="40" height="40" transform="matrix(0.866044 0.499967 -0.866044 0.499967 996.985 78.9431)" stroke="white"/>
<rect width="40" height="40" transform="matrix(0.866044 0.499967 -0.866044 0.499967 1031.63 98.9419)" stroke="white"/>
<rect width="40" height="40" transform="matrix(0.866044 0.499967 -0.866044 0.499967 754.492 -21.0503)" stroke="white"/>
<rect width="40" height="40" transform="matrix(0.866044 0.499967 -0.866044 0.499967 789.134 -1.05164)" stroke="white"/>
<rect width="40" height="40" transform="matrix(0.866044 0.499967 -0.866044 0.499967 823.776 18.947)" stroke="white"/>
<rect width="40" height="40" transform="matrix(0.866044 0.499967 -0.866044 0.499967 858.417 38.9458)" stroke="white"/>
<rect width="40" height="40" transform="matrix(0.866044 0.499967 -0.866044 0.499967 893.06 58.9445)" stroke="white"/>
<rect width="40" height="40" transform="matrix(0.866044 0.499967 -0.866044 0.499967 927.701 78.9431)" stroke="white"/>
<rect width="40" height="40" transform="matrix(0.866044 0.499967 -0.866044 0.499967 962.343 98.9418)" stroke="white"/>
<rect width="40" height="40" transform="matrix(0.866044 0.499967 -0.866044 0.499967 996.985 118.941)" stroke="white"/>
<rect width="40" height="40" transform="matrix(0.866044 0.499967 -0.866044 0.499967 1031.63 138.939)" stroke="white"/>
<rect width="40" height="40" transform="matrix(0.866044 0.499967 -0.866044 0.499967 685.208 -21.0503)" stroke="white"/>
<rect width="40" height="40" transform="matrix(0.866044 0.499967 -0.866044 0.499967 719.851 -1.05151)" stroke="white"/>
<rect width="40" height="40" transform="matrix(0.866044 0.499967 -0.866044 0.499967 754.492 18.9471)" stroke="white"/>
<rect width="40" height="40" transform="matrix(0.866044 0.499967 -0.866044 0.499967 789.134 38.9458)" stroke="white"/>
<rect width="40" height="40" transform="matrix(0.866044 0.499967 -0.866044 0.499967 823.776 58.9446)" stroke="white"/>
<rect width="40" height="40" transform="matrix(0.866044 0.499967 -0.866044 0.499967 858.417 78.9432)" stroke="white"/>
<rect width="40" height="40" transform="matrix(0.866044 0.499967 -0.866044 0.499967 893.06 98.9419)" stroke="white"/>
<rect width="40" height="40" transform="matrix(0.866044 0.499967 -0.866044 0.499967 927.701 118.941)" stroke="white"/>
<rect width="40" height="40" transform="matrix(0.866044 0.499967 -0.866044 0.499967 962.343 138.939)" stroke="white"/>
<rect width="40" height="40" transform="matrix(0.866044 0.499967 -0.866044 0.499967 996.985 158.938)" stroke="white"/>
<rect width="40" height="40" transform="matrix(0.866044 0.499967 -0.866044 0.499967 1031.63 178.937)" stroke="white"/>
<rect width="40" height="40" transform="matrix(0.866044 0.499967 -0.866044 0.499967 615.925 -21.0503)" stroke="white"/>
<rect width="40" height="40" transform="matrix(0.866044 0.499967 -0.866044 0.499967 650.567 -1.05164)" stroke="white"/>
<rect width="40" height="40" transform="matrix(0.866044 0.499967 -0.866044 0.499967 685.209 18.9471)" stroke="white"/>
<rect width="40" height="40" transform="matrix(0.866044 0.499967 -0.866044 0.499967 719.851 38.9458)" stroke="white"/>
<rect width="40" height="40" transform="matrix(0.866044 0.499967 -0.866044 0.499967 754.493 58.9445)" stroke="white"/>
<rect width="40" height="40" transform="matrix(0.866044 0.499967 -0.866044 0.499967 789.134 78.9432)" stroke="white"/>
<rect width="40" height="40" transform="matrix(0.866044 0.499967 -0.866044 0.499967 823.776 98.9419)" stroke="white"/>
<rect width="40" height="40" transform="matrix(0.866044 0.499967 -0.866044 0.499967 858.418 118.941)" stroke="white"/>
<rect width="40" height="40" transform="matrix(0.866044 0.499967 -0.866044 0.499967 893.06 138.939)" stroke="white"/>
<rect width="40" height="40" transform="matrix(0.866044 0.499967 -0.866044 0.499967 927.701 158.938)" stroke="white"/>
<rect width="40" height="40" transform="matrix(0.866044 0.499967 -0.866044 0.499967 962.343 178.937)" stroke="white"/>
<rect width="40" height="40" transform="matrix(0.866044 0.499967 -0.866044 0.499967 996.985 198.935)" stroke="white"/>
<rect width="40" height="40" transform="matrix(0.866044 0.499967 -0.866044 0.499967 1031.63 218.934)" stroke="white"/>
<rect width="40" height="40" transform="matrix(0.866044 0.499967 -0.866044 0.499967 546.642 -21.0503)" stroke="white"/>
<rect width="40" height="40" transform="matrix(0.866044 0.499967 -0.866044 0.499967 581.284 -1.05164)" stroke="white"/>
<rect width="40" height="40" transform="matrix(0.866044 0.499967 -0.866044 0.499967 615.925 18.947)" stroke="white"/>
<rect width="40" height="40" transform="matrix(0.866044 0.499967 -0.866044 0.499967 650.567 38.9458)" stroke="white"/>
<rect width="40" height="40" transform="matrix(0.866044 0.499967 -0.866044 0.499967 685.209 58.9445)" stroke="white"/>
<rect width="40" height="40" transform="matrix(0.866044 0.499967 -0.866044 0.499967 719.851 78.9431)" stroke="white"/>
<rect width="40" height="40" transform="matrix(0.866044 0.499967 -0.866044 0.499967 754.492 98.9419)" stroke="white"/>
<rect width="40" height="40" transform="matrix(0.866044 0.499967 -0.866044 0.499967 789.134 118.941)" stroke="white"/>
<rect width="40" height="40" transform="matrix(0.866044 0.499967 -0.866044 0.499967 823.776 138.939)" stroke="white"/>
<rect width="40" height="40" transform="matrix(0.866044 0.499967 -0.866044 0.499967 858.417 158.938)" stroke="white"/>
<rect width="40" height="40" transform="matrix(0.866044 0.499967 -0.866044 0.499967 893.06 178.937)" stroke="white"/>
<rect width="40" height="40" transform="matrix(0.866044 0.499967 -0.866044 0.499967 927.701 198.935)" stroke="white"/>
<rect width="40" height="40" transform="matrix(0.866044 0.499967 -0.866044 0.499967 962.343 218.934)" stroke="white"/>
<rect width="40" height="40" transform="matrix(0.866044 0.499967 -0.866044 0.499967 996.985 238.933)" stroke="white"/>
<rect width="40" height="40" transform="matrix(0.866044 0.499967 -0.866044 0.499967 1031.63 258.931)" stroke="white"/>
<rect width="40" height="40" transform="matrix(0.866044 0.499967 -0.866044 0.499967 477.358 -21.0503)" stroke="white"/>
<rect width="40" height="40" transform="matrix(0.866044 0.499967 -0.866044 0.499967 512 -1.05151)" stroke="white"/>
<rect width="40" height="40" transform="matrix(0.866044 0.499967 -0.866044 0.499967 546.642 18.9471)" stroke="white"/>
<rect width="40" height="40" transform="matrix(0.866044 0.499967 -0.866044 0.499967 581.283 38.9458)" stroke="white"/>
<rect width="40" height="40" transform="matrix(0.866044 0.499967 -0.866044 0.499967 615.925 58.9446)" stroke="white"/>
<rect width="40" height="40" transform="matrix(0.866044 0.499967 -0.866044 0.499967 650.567 78.9432)" stroke="white"/>
<rect width="40" height="40" transform="matrix(0.866044 0.499967 -0.866044 0.499967 685.209 98.9419)" stroke="white"/>
<rect width="40" height="40" transform="matrix(0.866044 0.499967 -0.866044 0.499967 719.851 118.941)" stroke="white"/>
<rect width="40" height="40" transform="matrix(0.866044 0.499967 -0.866044 0.499967 754.492 138.939)" stroke="white"/>
<rect width="40" height="40" transform="matrix(0.866044 0.499967 -0.866044 0.499967 789.134 158.938)" stroke="white"/>
<rect width="40" height="40" transform="matrix(0.866044 0.499967 -0.866044 0.499967 823.776 178.937)" stroke="white"/>
<rect width="40" height="40" transform="matrix(0.866044 0.499967 -0.866044 0.499967 858.417 198.935)" stroke="white"/>
<rect width="40" height="40" transform="matrix(0.866044 0.499967 -0.866044 0.499967 893.06 218.934)" stroke="white"/>
<rect width="40" height="40" transform="matrix(0.866044 0.499967 -0.866044 0.499967 927.701 238.933)" stroke="white"/>
<rect width="40" height="40" transform="matrix(0.866044 0.499967 -0.866044 0.499967 962.343 258.932)" stroke="white"/>
<rect width="40" height="40" transform="matrix(0.866044 0.499967 -0.866044 0.499967 408.075 -21.0503)" stroke="white"/>
<rect width="40" height="40" transform="matrix(0.866044 0.499967 -0.866044 0.499967 442.717 -1.05164)" stroke="white"/>
<rect width="40" height="40" transform="matrix(0.866044 0.499967 -0.866044 0.499967 477.358 18.9471)" stroke="white"/>
<rect width="40" height="40" transform="matrix(0.866044 0.499967 -0.866044 0.499967 512 38.9458)" stroke="white"/>
<rect width="40" height="40" transform="matrix(0.866044 0.499967 -0.866044 0.499967 546.642 58.9445)" stroke="white"/>
<rect width="40" height="40" transform="matrix(0.866044 0.499967 -0.866044 0.499967 581.284 78.9432)" stroke="white"/>
<rect width="40" height="40" transform="matrix(0.866044 0.499967 -0.866044 0.499967 615.925 98.9419)" stroke="white"/>
<rect width="40" height="40" transform="matrix(0.866044 0.499967 -0.866044 0.499967 650.567 118.941)" stroke="white"/>
<rect width="40" height="40" transform="matrix(0.866044 0.499967 -0.866044 0.499967 685.209 138.939)" stroke="white"/>
<rect width="40" height="40" transform="matrix(0.866044 0.499967 -0.866044 0.499967 719.851 158.938)" stroke="white"/>
<rect width="40" height="40" transform="matrix(0.866044 0.499967 -0.866044 0.499967 754.493 178.937)" stroke="white"/>
<rect width="40" height="40" transform="matrix(0.866044 0.499967 -0.866044 0.499967 789.134 198.935)" stroke="white"/>
<rect width="40" height="40" transform="matrix(0.866044 0.499967 -0.866044 0.499967 823.776 218.934)" stroke="white"/>
<rect width="40" height="40" transform="matrix(0.866044 0.499967 -0.866044 0.499967 858.418 238.933)" stroke="white"/>
<rect width="40" height="40" transform="matrix(0.866044 0.499967 -0.866044 0.499967 893.06 258.931)" stroke="white"/>
<rect width="40" height="40" transform="matrix(0.866044 0.499967 -0.866044 0.499967 338.791 -21.0503)" stroke="white"/>
<rect width="40" height="40" transform="matrix(0.866044 0.499967 -0.866044 0.499967 373.433 -1.05164)" stroke="white"/>
<rect width="40" height="40" transform="matrix(0.866044 0.499967 -0.866044 0.499967 408.075 18.947)" stroke="white"/>
<rect width="40" height="40" transform="matrix(0.866044 0.499967 -0.866044 0.499967 442.717 38.9458)" stroke="white"/>
<rect width="40" height="40" transform="matrix(0.866044 0.499967 -0.866044 0.499967 477.358 58.9445)" stroke="white"/>
<rect width="40" height="40" transform="matrix(0.866044 0.499967 -0.866044 0.499967 512 78.9431)" stroke="white"/>
<rect width="40" height="40" transform="matrix(0.866044 0.499967 -0.866044 0.499967 546.642 98.9419)" stroke="white"/>
<rect width="40" height="40" transform="matrix(0.866044 0.499967 -0.866044 0.499967 581.284 118.941)" stroke="white"/>
<rect width="40" height="40" transform="matrix(0.866044 0.499967 -0.866044 0.499967 615.925 138.939)" stroke="white"/>
<rect width="40" height="40" transform="matrix(0.866044 0.499967 -0.866044 0.499967 650.567 158.938)" stroke="white"/>
<rect width="40" height="40" transform="matrix(0.866044 0.499967 -0.866044 0.499967 685.209 178.937)" stroke="white"/>
<rect width="40" height="40" transform="matrix(0.866044 0.499967 -0.866044 0.499967 719.851 198.935)" stroke="white"/>
<rect width="40" height="40" transform="matrix(0.866044 0.499967 -0.866044 0.499967 754.492 218.934)" stroke="white"/>
<rect width="40" height="40" transform="matrix(0.866044 0.499967 -0.866044 0.499967 789.134 238.933)" stroke="white"/>
<rect width="40" height="40" transform="matrix(0.866044 0.499967 -0.866044 0.499967 823.776 258.931)" stroke="white"/>
<rect width="40" height="40" transform="matrix(0.866044 0.499967 -0.866044 0.499967 269.508 -21.0503)" stroke="white"/>
<rect width="40" height="40" transform="matrix(0.866044 0.499967 -0.866044 0.499967 304.149 -1.05151)" stroke="white"/>
<rect width="40" height="40" transform="matrix(0.866044 0.499967 -0.866044 0.499967 338.791 18.9471)" stroke="white"/>
<rect width="40" height="40" transform="matrix(0.866044 0.499967 -0.866044 0.499967 373.433 38.9458)" stroke="white"/>
<rect width="40" height="40" transform="matrix(0.866044 0.499967 -0.866044 0.499967 408.075 58.9446)" stroke="white"/>
<rect width="40" height="40" transform="matrix(0.866044 0.499967 -0.866044 0.499967 442.716 78.9432)" stroke="white"/>
<rect width="40" height="40" transform="matrix(0.866044 0.499967 -0.866044 0.499967 477.358 98.9419)" stroke="white"/>
<rect width="40" height="40" transform="matrix(0.866044 0.499967 -0.866044 0.499967 512 118.941)" stroke="white"/>
<rect width="40" height="40" transform="matrix(0.866044 0.499967 -0.866044 0.499967 546.642 138.939)" stroke="white"/>
<rect width="40" height="40" transform="matrix(0.866044 0.499967 -0.866044 0.499967 581.284 158.938)" stroke="white"/>
<rect width="40" height="40" transform="matrix(0.866044 0.499967 -0.866044 0.499967 615.925 178.937)" stroke="white"/>
<rect width="40" height="40" transform="matrix(0.866044 0.499967 -0.866044 0.499967 650.567 198.935)" stroke="white"/>
<rect width="40" height="40" transform="matrix(0.866044 0.499967 -0.866044 0.499967 685.209 218.934)" stroke="white"/>
<rect width="40" height="40" transform="matrix(0.866044 0.499967 -0.866044 0.499967 719.851 238.933)" stroke="white"/>
<rect width="40" height="40" transform="matrix(0.866044 0.499967 -0.866044 0.499967 754.492 258.932)" stroke="white"/>
<rect width="40" height="40" transform="matrix(0.866044 0.499967 -0.866044 0.499967 200.224 -21.0503)" stroke="white"/>
<rect width="40" height="40" transform="matrix(0.866044 0.499967 -0.866044 0.499967 234.866 -1.05164)" stroke="white"/>
<rect width="40" height="40" transform="matrix(0.866044 0.499967 -0.866044 0.499967 269.508 18.9471)" stroke="white"/>
<rect width="40" height="40" transform="matrix(0.866044 0.499967 -0.866044 0.499967 304.149 38.9458)" stroke="white"/>
<rect width="40" height="40" transform="matrix(0.866044 0.499967 -0.866044 0.499967 338.791 58.9445)" stroke="white"/>
<rect width="40" height="40" transform="matrix(0.866044 0.499967 -0.866044 0.499967 373.433 78.9432)" stroke="white"/>
<rect width="40" height="40" transform="matrix(0.866044 0.499967 -0.866044 0.499967 408.075 98.9419)" stroke="white"/>
<rect width="40" height="40" transform="matrix(0.866044 0.499967 -0.866044 0.499967 442.717 118.941)" stroke="white"/>
<rect width="40" height="40" transform="matrix(0.866044 0.499967 -0.866044 0.499967 477.358 138.939)" stroke="white"/>
<rect width="40" height="40" transform="matrix(0.866044 0.499967 -0.866044 0.499967 512 158.938)" stroke="white"/>
<rect width="40" height="40" transform="matrix(0.866044 0.499967 -0.866044 0.499967 546.642 178.937)" stroke="white"/>
<rect width="40" height="40" transform="matrix(0.866044 0.499967 -0.866044 0.499967 581.284 198.935)" stroke="white"/>
<rect width="40" height="40" transform="matrix(0.866044 0.499967 -0.866044 0.499967 615.925 218.934)" stroke="white"/>
<rect width="40" height="40" transform="matrix(0.866044 0.499967 -0.866044 0.499967 650.567 238.933)" stroke="white"/>
<rect width="40" height="40" transform="matrix(0.866044 0.499967 -0.866044 0.499967 685.209 258.931)" stroke="white"/>
<rect width="40" height="40" transform="matrix(0.866044 0.499967 -0.866044 0.499967 130.94 -21.0503)" stroke="white"/>
<rect width="40" height="40" transform="matrix(0.866044 0.499967 -0.866044 0.499967 165.582 -1.05164)" stroke="white"/>
<rect width="40" height="40" transform="matrix(0.866044 0.499967 -0.866044 0.499967 200.224 18.947)" stroke="white"/>
<rect width="40" height="40" transform="matrix(0.866044 0.499967 -0.866044 0.499967 234.866 38.9458)" stroke="white"/>
<rect width="40" height="40" transform="matrix(0.866044 0.499967 -0.866044 0.499967 269.508 58.9445)" stroke="white"/>
<rect width="40" height="40" transform="matrix(0.866044 0.499967 -0.866044 0.499967 304.149 78.9431)" stroke="white"/>
<rect width="40" height="40" transform="matrix(0.866044 0.499967 -0.866044 0.499967 338.791 98.9419)" stroke="white"/>
<rect width="40" height="40" transform="matrix(0.866044 0.499967 -0.866044 0.499967 373.433 118.941)" stroke="white"/>
<rect width="40" height="40" transform="matrix(0.866044 0.499967 -0.866044 0.499967 408.075 138.939)" stroke="white"/>
<rect width="40" height="40" transform="matrix(0.866044 0.499967 -0.866044 0.499967 442.717 158.938)" stroke="white"/>
<rect width="40" height="40" transform="matrix(0.866044 0.499967 -0.866044 0.499967 477.358 178.937)" stroke="white"/>
<rect width="40" height="40" transform="matrix(0.866044 0.499967 -0.866044 0.499967 512 198.935)" stroke="white"/>
<rect width="40" height="40" transform="matrix(0.866044 0.499967 -0.866044 0.499967 546.642 218.934)" stroke="white"/>
<rect width="40" height="40" transform="matrix(0.866044 0.499967 -0.866044 0.499967 581.284 238.933)" stroke="white"/>
<rect width="40" height="40" transform="matrix(0.866044 0.499967 -0.866044 0.499967 615.925 258.931)" stroke="white"/>
<rect width="40" height="40" transform="matrix(0.866044 0.499967 -0.866044 0.499967 61.657 -21.0503)" stroke="white"/>
<rect width="40" height="40" transform="matrix(0.866044 0.499967 -0.866044 0.499967 96.2986 -1.05151)" stroke="white"/>
<rect width="40" height="40" transform="matrix(0.866044 0.499967 -0.866044 0.499967 130.94 18.9471)" stroke="white"/>
<rect width="40" height="40" transform="matrix(0.866044 0.499967 -0.866044 0.499967 165.582 38.9458)" stroke="white"/>
<rect width="40" height="40" transform="matrix(0.866044 0.499967 -0.866044 0.499967 200.224 58.9446)" stroke="white"/>
<rect width="40" height="40" transform="matrix(0.866044 0.499967 -0.866044 0.499967 234.866 78.9432)" stroke="white"/>
<rect width="40" height="40" transform="matrix(0.866044 0.499967 -0.866044 0.499967 269.508 98.9419)" stroke="white"/>
<rect width="40" height="40" transform="matrix(0.866044 0.499967 -0.866044 0.499967 304.149 118.941)" stroke="white"/>
<rect width="40" height="40" transform="matrix(0.866044 0.499967 -0.866044 0.499967 338.791 138.939)" stroke="white"/>
<rect width="40" height="40" transform="matrix(0.866044 0.499967 -0.866044 0.499967 373.433 158.938)" stroke="white"/>
<rect width="40" height="40" transform="matrix(0.866044 0.499967 -0.866044 0.499967 408.075 178.937)" stroke="white"/>
<rect width="40" height="40" transform="matrix(0.866044 0.499967 -0.866044 0.499967 442.716 198.935)" stroke="white"/>
<rect width="40" height="40" transform="matrix(0.866044 0.499967 -0.866044 0.499967 477.358 218.934)" stroke="white"/>
<rect width="40" height="40" transform="matrix(0.866044 0.499967 -0.866044 0.499967 512 238.933)" stroke="white"/>
<rect width="40" height="40" transform="matrix(0.866044 0.499967 -0.866044 0.499967 546.642 258.932)" stroke="white"/>
<rect width="40" height="40" transform="matrix(0.866044 0.499967 -0.866044 0.499967 -7.62646 -21.0503)" stroke="white"/>
<rect width="40" height="40" transform="matrix(0.866044 0.499967 -0.866044 0.499967 27.0154 -1.05164)" stroke="white"/>
<rect width="40" height="40" transform="matrix(0.866044 0.499967 -0.866044 0.499967 61.657 18.9471)" stroke="white"/>
<rect width="40" height="40" transform="matrix(0.866044 0.499967 -0.866044 0.499967 96.2988 38.9458)" stroke="white"/>
<rect width="40" height="40" transform="matrix(0.866044 0.499967 -0.866044 0.499967 130.941 58.9445)" stroke="white"/>
<rect width="40" height="40" transform="matrix(0.866044 0.499967 -0.866044 0.499967 165.583 78.9432)" stroke="white"/>
<rect width="40" height="40" transform="matrix(0.866044 0.499967 -0.866044 0.499967 200.224 98.9419)" stroke="white"/>
<rect width="40" height="40" transform="matrix(0.866044 0.499967 -0.866044 0.499967 234.866 118.941)" stroke="white"/>
<rect width="40" height="40" transform="matrix(0.866044 0.499967 -0.866044 0.499967 269.508 138.939)" stroke="white"/>
<rect width="40" height="40" transform="matrix(0.866044 0.499967 -0.866044 0.499967 304.149 158.938)" stroke="white"/>
<rect width="40" height="40" transform="matrix(0.866044 0.499967 -0.866044 0.499967 338.791 178.937)" stroke="white"/>
<rect width="40" height="40" transform="matrix(0.866044 0.499967 -0.866044 0.499967 373.433 198.935)" stroke="white"/>
<rect width="40" height="40" transform="matrix(0.866044 0.499967 -0.866044 0.499967 408.075 218.934)" stroke="white"/>
<rect width="40" height="40" transform="matrix(0.866044 0.499967 -0.866044 0.499967 442.717 238.933)" stroke="white"/>
<rect width="40" height="40" transform="matrix(0.866044 0.499967 -0.866044 0.499967 477.358 258.931)" stroke="white"/>
<rect width="40" height="40" transform="matrix(0.866044 0.499967 -0.866044 0.499967 -7.62646 18.947)" stroke="white"/>
<rect width="40" height="40" transform="matrix(0.866044 0.499967 -0.866044 0.499967 27.0151 38.9458)" stroke="white"/>
<rect width="40" height="40" transform="matrix(0.866044 0.499967 -0.866044 0.499967 61.657 58.9445)" stroke="white"/>
<rect width="40" height="40" transform="matrix(0.866044 0.499967 -0.866044 0.499967 96.2988 78.9431)" stroke="white"/>
<rect width="40" height="40" transform="matrix(0.866044 0.499967 -0.866044 0.499967 130.941 98.9419)" stroke="white"/>
<rect width="40" height="40" transform="matrix(0.866044 0.499967 -0.866044 0.499967 165.582 118.941)" stroke="white"/>
<rect width="40" height="40" transform="matrix(0.866044 0.499967 -0.866044 0.499967 200.224 138.939)" stroke="white"/>
<rect width="40" height="40" transform="matrix(0.866044 0.499967 -0.866044 0.499967 234.866 158.938)" stroke="white"/>
<rect width="40" height="40" transform="matrix(0.866044 0.499967 -0.866044 0.499967 269.508 178.937)" stroke="white"/>
<rect width="40" height="40" transform="matrix(0.866044 0.499967 -0.866044 0.499967 304.149 198.935)" stroke="white"/>
<rect width="40" height="40" transform="matrix(0.866044 0.499967 -0.866044 0.499967 338.791 218.934)" stroke="white"/>
<rect width="40" height="40" transform="matrix(0.866044 0.499967 -0.866044 0.499967 373.433 238.933)" stroke="white"/>
<rect width="40" height="40" transform="matrix(0.866044 0.499967 -0.866044 0.499967 408.075 258.931)" stroke="white"/>
<rect width="40" height="40" transform="matrix(0.866044 0.499967 -0.866044 0.499967 -7.62671 58.9445)" stroke="white"/>
<rect width="40" height="40" transform="matrix(0.866044 0.499967 -0.866044 0.499967 27.0151 78.9431)" stroke="white"/>
<rect width="40" height="40" transform="matrix(0.866044 0.499967 -0.866044 0.499967 61.657 98.9418)" stroke="white"/>
<rect width="40" height="40" transform="matrix(0.866044 0.499967 -0.866044 0.499967 96.2988 118.941)" stroke="white"/>
<rect width="40" height="40" transform="matrix(0.866044 0.499967 -0.866044 0.499967 130.94 138.939)" stroke="white"/>
<rect width="40" height="40" transform="matrix(0.866044 0.499967 -0.866044 0.499967 165.582 158.938)" stroke="white"/>
<rect width="40" height="40" transform="matrix(0.866044 0.499967 -0.866044 0.499967 200.224 178.937)" stroke="white"/>
<rect width="40" height="40" transform="matrix(0.866044 0.499967 -0.866044 0.499967 234.866 198.935)" stroke="white"/>
<rect width="40" height="40" transform="matrix(0.866044 0.499967 -0.866044 0.499967 269.508 218.934)" stroke="white"/>
<rect width="40" height="40" transform="matrix(0.866044 0.499967 -0.866044 0.499967 304.149 238.933)" stroke="white"/>
<rect width="40" height="40" transform="matrix(0.866044 0.499967 -0.866044 0.499967 338.791 258.931)" stroke="white"/>
<rect width="40" height="40" transform="matrix(0.866044 0.499967 -0.866044 0.499967 -7.62671 98.9419)" stroke="white"/>
<rect width="40" height="40" transform="matrix(0.866044 0.499967 -0.866044 0.499967 27.0151 118.941)" stroke="white"/>
<rect width="40" height="40" transform="matrix(0.866044 0.499967 -0.866044 0.499967 61.657 138.939)" stroke="white"/>
<rect width="40" height="40" transform="matrix(0.866044 0.499967 -0.866044 0.499967 96.2986 158.938)" stroke="white"/>
<rect width="40" height="40" transform="matrix(0.866044 0.499967 -0.866044 0.499967 130.94 178.937)" stroke="white"/>
<rect width="40" height="40" transform="matrix(0.866044 0.499967 -0.866044 0.499967 165.582 198.935)" stroke="white"/>
<rect width="40" height="40" transform="matrix(0.866044 0.499967 -0.866044 0.499967 200.224 218.934)" stroke="white"/>
<rect width="40" height="40" transform="matrix(0.866044 0.499967 -0.866044 0.499967 234.866 238.933)" stroke="white"/>
<rect width="40" height="40" transform="matrix(0.866044 0.499967 -0.866044 0.499967 269.508 258.931)" stroke="white"/>
<rect width="40" height="40" transform="matrix(0.866044 0.499967 -0.866044 0.499967 -7.62646 138.939)" stroke="white"/>
<rect width="40" height="40" transform="matrix(0.866044 0.499967 -0.866044 0.499967 27.0154 158.938)" stroke="white"/>
<rect width="40" height="40" transform="matrix(0.866044 0.499967 -0.866044 0.499967 61.657 178.937)" stroke="white"/>
<rect width="40" height="40" transform="matrix(0.866044 0.499967 -0.866044 0.499967 96.2988 198.935)" stroke="white"/>
<rect width="40" height="40" transform="matrix(0.866044 0.499967 -0.866044 0.499967 130.941 218.934)" stroke="white"/>
<rect width="40" height="40" transform="matrix(0.866044 0.499967 -0.866044 0.499967 165.582 238.933)" stroke="white"/>
<rect width="40" height="40" transform="matrix(0.866044 0.499967 -0.866044 0.499967 200.224 258.931)" stroke="white"/>
<rect width="40" height="40" transform="matrix(0.866044 0.499967 -0.866044 0.499967 -7.62646 178.937)" stroke="white"/>
<rect width="40" height="40" transform="matrix(0.866044 0.499967 -0.866044 0.499967 27.0151 198.935)" stroke="white"/>
<rect width="40" height="40" transform="matrix(0.866044 0.499967 -0.866044 0.499967 61.657 218.934)" stroke="white"/>
<rect width="40" height="40" transform="matrix(0.866044 0.499967 -0.866044 0.499967 96.2988 238.933)" stroke="white"/>
<rect width="40" height="40" transform="matrix(0.866044 0.499967 -0.866044 0.499967 130.94 258.931)" stroke="white"/>
<rect width="40" height="40" transform="matrix(0.866044 0.499967 -0.866044 0.499967 -7.62671 218.934)" stroke="white"/>
<rect width="40" height="40" transform="matrix(0.866044 0.499967 -0.866044 0.499967 27.0151 238.933)" stroke="white"/>
<rect width="40" height="40" transform="matrix(0.866044 0.499967 -0.866044 0.499967 61.657 258.931)" stroke="white"/>
<rect width="40" height="40" transform="matrix(0.866044 0.499967 -0.866044 0.499967 -7.62646 258.931)" stroke="white"/>
</mask>
<g mask="url(#mask0_974_43801)">
<circle cx="512" cy="-41" r="512" fill="url(#paint0_radial_974_43801)"/>
</g>
</g>
<defs>
<radialGradient id="paint0_radial_974_43801" cx="0" cy="0" r="1" gradientUnits="userSpaceOnUse" gradientTransform="translate(512 -41) rotate(90) scale(512)">
<stop stop-color="white"/>
<stop offset="1" stop-color="white" stop-opacity="0"/>
</radialGradient>
<clipPath id="clip0_974_43801">
<rect width="1024" height="1024" fill="white" transform="translate(0 -553)"/>
</clipPath>
</defs>
</svg>
