<svg width="244" height="243" viewBox="0 0 244 243" fill="none" xmlns="http://www.w3.org/2000/svg">
<g filter="url(#filter0_bii_631_33549)">
<rect x="44.5" y="52" width="150" height="138" rx="26" fill="white" fill-opacity="0.095"/>
</g>
<g filter="url(#filter1_f_631_33549)">
<path d="M112.846 88C115.331 88 117.344 90.0135 117.344 92.4983V110.277H108.348V92.4983C108.348 90.0135 110.361 88 112.846 88Z" fill="url(#paint0_linear_631_33549)"/>
<path d="M130.839 88C133.324 88 135.337 90.0135 135.337 92.4983V110.277H126.341V92.4983C126.341 90.0135 128.354 88 130.839 88Z" fill="url(#paint1_linear_631_33549)"/>
<path d="M88.2124 130.198C88.2124 127.713 90.2259 125.7 92.7107 125.7H110.49V134.696H92.7107C90.2259 134.696 88.2124 132.683 88.2124 130.198Z" fill="url(#paint2_linear_631_33549)"/>
<path d="M88.2124 112.205C88.2124 109.72 90.2259 107.707 92.7107 107.707H110.49V116.703H92.7107C90.2259 116.703 88.2124 114.69 88.2124 112.205Z" fill="url(#paint3_linear_631_33549)"/>
<path d="M130.41 154.831C127.926 154.831 125.912 152.818 125.912 150.333V132.554H134.909V150.333C134.909 152.818 132.895 154.831 130.41 154.831Z" fill="url(#paint4_linear_631_33549)"/>
<path d="M112.418 154.831C109.933 154.831 107.919 152.818 107.919 150.333V132.554H116.916V150.333C116.916 152.818 114.902 154.831 112.418 154.831Z" fill="url(#paint5_linear_631_33549)"/>
<path d="M155.044 112.633C155.044 115.118 153.03 117.132 150.546 117.132H132.767V108.135H150.546C153.03 108.135 155.044 110.149 155.044 112.633Z" fill="url(#paint6_linear_631_33549)"/>
<path d="M155.044 130.627C155.044 133.111 153.03 135.125 150.546 135.125H132.767V126.128H150.546C153.03 126.128 155.044 128.142 155.044 130.627Z" fill="url(#paint7_linear_631_33549)"/>
</g>
<g filter="url(#filter2_f_631_33549)">
<path d="M132.767 110.277H110.49V132.554H132.767V110.277Z" fill="white"/>
</g>
<path d="M108.133 88C110.618 88 112.632 90.0135 112.632 92.4983V110.277H103.635V92.4983C103.635 90.0135 105.649 88 108.133 88Z" fill="url(#paint8_linear_631_33549)"/>
<path d="M126.126 88C128.611 88 130.625 90.0135 130.625 92.4983V110.277H121.628V92.4983C121.628 90.0135 123.642 88 126.126 88Z" fill="url(#paint9_linear_631_33549)"/>
<path d="M83.5 130.198C83.5 127.713 85.5135 125.7 87.9983 125.7H105.777V134.696H87.9983C85.5135 134.696 83.5 132.683 83.5 130.198Z" fill="url(#paint10_linear_631_33549)"/>
<path d="M83.5 112.205C83.5 109.72 85.5135 107.707 87.9983 107.707H105.777V116.703H87.9983C85.5135 116.703 83.5 114.69 83.5 112.205Z" fill="url(#paint11_linear_631_33549)"/>
<path d="M125.698 154.831C123.213 154.831 121.2 152.818 121.2 150.333V132.554H130.196V150.333C130.196 152.818 128.183 154.831 125.698 154.831Z" fill="url(#paint12_linear_631_33549)"/>
<path d="M107.705 154.831C105.22 154.831 103.207 152.818 103.207 150.333V132.554H112.203V150.333C112.203 152.818 110.19 154.831 107.705 154.831Z" fill="url(#paint13_linear_631_33549)"/>
<path d="M150.331 112.633C150.331 115.118 148.318 117.132 145.833 117.132H128.054V108.135H145.833C148.318 108.135 150.331 110.149 150.331 112.633Z" fill="url(#paint14_linear_631_33549)"/>
<path d="M150.331 130.627C150.331 133.111 148.318 135.125 145.833 135.125H128.054V126.128H145.833C148.318 126.128 150.331 128.142 150.331 130.627Z" fill="url(#paint15_linear_631_33549)"/>
<g filter="url(#filter3_b_631_33549)">
<path d="M132.552 99.1385H101.279C97.6114 99.1385 94.6384 102.112 94.6384 105.779V137.053C94.6384 140.72 97.6114 143.693 101.279 143.693H132.552C136.22 143.693 139.193 140.72 139.193 137.053V105.779C139.193 102.112 136.22 99.1385 132.552 99.1385Z" fill="url(#paint16_linear_631_33549)"/>
<path d="M101.279 100.139H132.552C135.667 100.139 138.193 102.664 138.193 105.779V137.053C138.193 140.168 135.667 142.693 132.552 142.693H101.279C98.1637 142.693 95.6384 140.168 95.6384 137.053V105.779C95.6384 102.664 98.1637 100.139 101.279 100.139Z" stroke="url(#paint17_linear_631_33549)" stroke-width="2"/>
</g>
<path d="M124.054 110.277H109.777C107.568 110.277 105.777 112.068 105.777 114.277V128.554C105.777 130.763 107.568 132.554 109.777 132.554H124.054C126.263 132.554 128.054 130.764 128.054 128.554V114.277C128.054 112.068 126.263 110.277 124.054 110.277Z" fill="url(#paint18_linear_631_33549)"/>
<defs>
<filter id="filter0_bii_631_33549" x="-29.9293" y="-22.4293" width="298.859" height="286.859" filterUnits="userSpaceOnUse" color-interpolation-filters="sRGB">
<feFlood flood-opacity="0" result="BackgroundImageFix"/>
<feGaussianBlur in="BackgroundImageFix" stdDeviation="37.2147"/>
<feComposite in2="SourceAlpha" operator="in" result="effect1_backgroundBlur_631_33549"/>
<feBlend mode="normal" in="SourceGraphic" in2="effect1_backgroundBlur_631_33549" result="shape"/>
<feColorMatrix in="SourceAlpha" type="matrix" values="0 0 0 0 0 0 0 0 0 0 0 0 0 0 0 0 0 0 127 0" result="hardAlpha"/>
<feOffset dx="-3.01333" dy="3.01333"/>
<feGaussianBlur stdDeviation="1.50667"/>
<feComposite in2="hardAlpha" operator="arithmetic" k2="-1" k3="1"/>
<feColorMatrix type="matrix" values="0 0 0 0 1 0 0 0 0 1 0 0 0 0 1 0 0 0 0.39 0"/>
<feBlend mode="normal" in2="shape" result="effect2_innerShadow_631_33549"/>
<feColorMatrix in="SourceAlpha" type="matrix" values="0 0 0 0 0 0 0 0 0 0 0 0 0 0 0 0 0 0 127 0" result="hardAlpha"/>
<feOffset dx="2.01" dy="-2.01"/>
<feGaussianBlur stdDeviation="10"/>
<feComposite in2="hardAlpha" operator="arithmetic" k2="-1" k3="1"/>
<feColorMatrix type="matrix" values="0 0 0 0 0.84 0 0 0 0 0.84 0 0 0 0 0.84 0 0 0 0.17 0"/>
<feBlend mode="normal" in2="effect2_innerShadow_631_33549" result="effect3_innerShadow_631_33549"/>
</filter>
<filter id="filter1_f_631_33549" x="0.212402" y="0" width="242.832" height="242.831" filterUnits="userSpaceOnUse" color-interpolation-filters="sRGB">
<feFlood flood-opacity="0" result="BackgroundImageFix"/>
<feBlend mode="normal" in="SourceGraphic" in2="BackgroundImageFix" result="shape"/>
<feGaussianBlur stdDeviation="44" result="effect1_foregroundBlur_631_33549"/>
</filter>
<filter id="filter2_f_631_33549" x="22.4895" y="22.2772" width="198.277" height="198.277" filterUnits="userSpaceOnUse" color-interpolation-filters="sRGB">
<feFlood flood-opacity="0" result="BackgroundImageFix"/>
<feBlend mode="normal" in="SourceGraphic" in2="BackgroundImageFix" result="shape"/>
<feGaussianBlur stdDeviation="44" result="effect1_foregroundBlur_631_33549"/>
</filter>
<filter id="filter3_b_631_33549" x="76.6384" y="81.1385" width="80.5542" height="80.5543" filterUnits="userSpaceOnUse" color-interpolation-filters="sRGB">
<feFlood flood-opacity="0" result="BackgroundImageFix"/>
<feGaussianBlur in="BackgroundImageFix" stdDeviation="9"/>
<feComposite in2="SourceAlpha" operator="in" result="effect1_backgroundBlur_631_33549"/>
<feBlend mode="normal" in="SourceGraphic" in2="effect1_backgroundBlur_631_33549" result="shape"/>
</filter>
<linearGradient id="paint0_linear_631_33549" x1="109.391" y1="91.3953" x2="122.376" y2="101.97" gradientUnits="userSpaceOnUse">
<stop stop-color="#21D898"/>
<stop offset="1" stop-color="#198E9B"/>
</linearGradient>
<linearGradient id="paint1_linear_631_33549" x1="127.384" y1="91.3953" x2="140.369" y2="101.97" gradientUnits="userSpaceOnUse">
<stop stop-color="#21D898"/>
<stop offset="1" stop-color="#198E9B"/>
</linearGradient>
<linearGradient id="paint2_linear_631_33549" x1="91.6077" y1="133.653" x2="102.182" y2="120.668" gradientUnits="userSpaceOnUse">
<stop stop-color="#21D898"/>
<stop offset="1" stop-color="#198E9B"/>
</linearGradient>
<linearGradient id="paint3_linear_631_33549" x1="91.6077" y1="115.66" x2="102.182" y2="102.675" gradientUnits="userSpaceOnUse">
<stop stop-color="#21D898"/>
<stop offset="1" stop-color="#198E9B"/>
</linearGradient>
<linearGradient id="paint4_linear_631_33549" x1="133.865" y1="151.436" x2="120.881" y2="140.862" gradientUnits="userSpaceOnUse">
<stop stop-color="#21D898"/>
<stop offset="1" stop-color="#198E9B"/>
</linearGradient>
<linearGradient id="paint5_linear_631_33549" x1="115.872" y1="151.436" x2="102.888" y2="140.862" gradientUnits="userSpaceOnUse">
<stop stop-color="#21D898"/>
<stop offset="1" stop-color="#198E9B"/>
</linearGradient>
<linearGradient id="paint6_linear_631_33549" x1="151.649" y1="109.179" x2="141.074" y2="122.163" gradientUnits="userSpaceOnUse">
<stop stop-color="#21D898"/>
<stop offset="1" stop-color="#198E9B"/>
</linearGradient>
<linearGradient id="paint7_linear_631_33549" x1="151.649" y1="127.172" x2="141.074" y2="140.156" gradientUnits="userSpaceOnUse">
<stop stop-color="#21D898"/>
<stop offset="1" stop-color="#198E9B"/>
</linearGradient>
<linearGradient id="paint8_linear_631_33549" x1="104.679" y1="91.3953" x2="117.663" y2="101.97" gradientUnits="userSpaceOnUse">
<stop stop-color="#21D898"/>
<stop offset="1" stop-color="#198E9B"/>
</linearGradient>
<linearGradient id="paint9_linear_631_33549" x1="122.672" y1="91.3953" x2="135.656" y2="101.97" gradientUnits="userSpaceOnUse">
<stop stop-color="#21D898"/>
<stop offset="1" stop-color="#198E9B"/>
</linearGradient>
<linearGradient id="paint10_linear_631_33549" x1="86.8953" y1="133.653" x2="97.47" y2="120.668" gradientUnits="userSpaceOnUse">
<stop stop-color="#21D898"/>
<stop offset="1" stop-color="#198E9B"/>
</linearGradient>
<linearGradient id="paint11_linear_631_33549" x1="86.8953" y1="115.66" x2="97.47" y2="102.675" gradientUnits="userSpaceOnUse">
<stop stop-color="#21D898"/>
<stop offset="1" stop-color="#198E9B"/>
</linearGradient>
<linearGradient id="paint12_linear_631_33549" x1="129.153" y1="151.436" x2="116.168" y2="140.861" gradientUnits="userSpaceOnUse">
<stop stop-color="#21D898"/>
<stop offset="1" stop-color="#198E9B"/>
</linearGradient>
<linearGradient id="paint13_linear_631_33549" x1="111.159" y1="151.436" x2="98.1749" y2="140.861" gradientUnits="userSpaceOnUse">
<stop stop-color="#21D898"/>
<stop offset="1" stop-color="#198E9B"/>
</linearGradient>
<linearGradient id="paint14_linear_631_33549" x1="146.936" y1="109.179" x2="136.361" y2="122.163" gradientUnits="userSpaceOnUse">
<stop stop-color="#21D898"/>
<stop offset="1" stop-color="#198E9B"/>
</linearGradient>
<linearGradient id="paint15_linear_631_33549" x1="146.936" y1="127.172" x2="136.361" y2="140.156" gradientUnits="userSpaceOnUse">
<stop stop-color="#21D898"/>
<stop offset="1" stop-color="#198E9B"/>
</linearGradient>
<linearGradient id="paint16_linear_631_33549" x1="97.1538" y1="141.177" x2="136.677" y2="101.654" gradientUnits="userSpaceOnUse">
<stop stop-color="white" stop-opacity="0.2"/>
<stop offset="1" stop-color="white" stop-opacity="0.49"/>
</linearGradient>
<linearGradient id="paint17_linear_631_33549" x1="97.7835" y1="102.643" x2="135.027" y2="142.464" gradientUnits="userSpaceOnUse">
<stop stop-color="white"/>
<stop offset="1" stop-color="white" stop-opacity="0"/>
</linearGradient>
<linearGradient id="paint18_linear_631_33549" x1="117.231" y1="113.762" x2="117.126" y2="131.452" gradientUnits="userSpaceOnUse">
<stop stop-color="#85FFB7"/>
<stop offset="1" stop-color="#30FF80"/>
</linearGradient>
</defs>
</svg>
