<svg width="251" height="219" viewBox="0 0 251 219" fill="none" xmlns="http://www.w3.org/2000/svg">
<g filter="url(#filter0_bii_300_98979)">
<rect x="50" y="40" width="150" height="138" rx="26" fill="white" fill-opacity="0.095"/>
</g>
<g filter="url(#filter1_f_300_98979)">
<path d="M158.048 88.5732H135.634C133.04 88.5732 130.938 90.6758 130.938 93.2696V126.287C130.938 128.88 133.04 130.983 135.634 130.983H158.048C160.642 130.983 162.745 128.88 162.745 126.287V93.2696C162.745 90.6758 160.642 88.5732 158.048 88.5732Z" fill="url(#paint0_linear_300_98979)"/>
<path d="M115.26 88.5732H92.8454C90.2516 88.5732 88.1489 90.6758 88.1489 93.2696V126.287C88.1489 128.88 90.2516 130.983 92.8454 130.983H115.26C117.854 130.983 119.956 128.88 119.956 126.287V93.2696C119.956 90.6758 117.854 88.5732 115.26 88.5732Z" fill="url(#paint1_linear_300_98979)"/>
</g>
<g filter="url(#filter2_f_300_98979)">
<path d="M131.847 108.069L121.971 102.368C120.656 101.611 119.015 102.557 119.015 104.077V115.479C119.015 116.999 120.656 117.946 121.971 117.188L131.847 111.487C133.162 110.73 133.162 108.832 131.847 108.074V108.069Z" fill="white"/>
</g>
<path d="M158.048 88.5732H135.634C133.04 88.5732 130.938 90.6759 130.938 93.2697V126.287C130.938 128.88 133.04 130.983 135.634 130.983H158.048C160.642 130.983 162.745 128.88 162.745 126.287V93.2697C162.745 90.6759 160.642 88.5732 158.048 88.5732Z" fill="url(#paint2_linear_300_98979)"/>
<path d="M115.26 88.5732H92.8454C90.2516 88.5732 88.1489 90.6759 88.1489 93.2697V126.287C88.1489 128.88 90.2516 130.983 92.8454 130.983H115.26C117.854 130.983 119.956 128.88 119.956 126.287V93.2697C119.956 90.6759 117.854 88.5732 115.26 88.5732Z" fill="url(#paint3_linear_300_98979)"/>
<g filter="url(#filter3_b_300_98979)">
<path d="M142.524 81H108.749C106.155 81 104.053 83.1027 104.053 85.6964V133.855C104.053 136.448 106.155 138.551 108.749 138.551H142.524C145.117 138.551 147.22 136.448 147.22 133.855V85.6964C147.22 83.1027 145.117 81 142.524 81Z" fill="url(#paint4_linear_300_98979)"/>
<path d="M108.749 82H142.524C144.565 82 146.22 83.6549 146.22 85.6964V133.855C146.22 135.896 144.565 137.551 142.524 137.551H108.749C106.708 137.551 105.053 135.896 105.053 133.855V85.6964C105.053 83.655 106.708 82 108.749 82Z" stroke="url(#paint5_linear_300_98979)" stroke-width="2"/>
</g>
<path d="M134.716 107.773L121.85 100.347C120.137 99.3606 118 100.594 118 102.574V117.426C118 119.406 120.137 120.639 121.85 119.653L134.716 112.227C136.428 111.24 136.428 108.767 134.716 107.78V107.773Z" fill="url(#paint6_linear_300_98979)"/>
<defs>
<filter id="filter0_bii_300_98979" x="-24.4293" y="-34.4293" width="298.859" height="286.859" filterUnits="userSpaceOnUse" color-interpolation-filters="sRGB">
<feFlood flood-opacity="0" result="BackgroundImageFix"/>
<feGaussianBlur in="BackgroundImageFix" stdDeviation="37.2147"/>
<feComposite in2="SourceAlpha" operator="in" result="effect1_backgroundBlur_300_98979"/>
<feBlend mode="normal" in="SourceGraphic" in2="effect1_backgroundBlur_300_98979" result="shape"/>
<feColorMatrix in="SourceAlpha" type="matrix" values="0 0 0 0 0 0 0 0 0 0 0 0 0 0 0 0 0 0 127 0" result="hardAlpha"/>
<feOffset dx="-3.01333" dy="3.01333"/>
<feGaussianBlur stdDeviation="1.50667"/>
<feComposite in2="hardAlpha" operator="arithmetic" k2="-1" k3="1"/>
<feColorMatrix type="matrix" values="0 0 0 0 1 0 0 0 0 1 0 0 0 0 1 0 0 0 0.39 0"/>
<feBlend mode="normal" in2="shape" result="effect2_innerShadow_300_98979"/>
<feColorMatrix in="SourceAlpha" type="matrix" values="0 0 0 0 0 0 0 0 0 0 0 0 0 0 0 0 0 0 127 0" result="hardAlpha"/>
<feOffset dx="2.01" dy="-2.01"/>
<feGaussianBlur stdDeviation="10"/>
<feComposite in2="hardAlpha" operator="arithmetic" k2="-1" k3="1"/>
<feColorMatrix type="matrix" values="0 0 0 0 0.84 0 0 0 0 0.84 0 0 0 0 0.84 0 0 0 0.17 0"/>
<feBlend mode="normal" in2="effect2_innerShadow_300_98979" result="effect3_innerShadow_300_98979"/>
</filter>
<filter id="filter1_f_300_98979" x="0.148926" y="0.573181" width="250.596" height="218.41" filterUnits="userSpaceOnUse" color-interpolation-filters="sRGB">
<feFlood flood-opacity="0" result="BackgroundImageFix"/>
<feBlend mode="normal" in="SourceGraphic" in2="BackgroundImageFix" result="shape"/>
<feGaussianBlur stdDeviation="44" result="effect1_foregroundBlur_300_98979"/>
</filter>
<filter id="filter2_f_300_98979" x="31.0149" y="14.1016" width="189.818" height="191.353" filterUnits="userSpaceOnUse" color-interpolation-filters="sRGB">
<feFlood flood-opacity="0" result="BackgroundImageFix"/>
<feBlend mode="normal" in="SourceGraphic" in2="BackgroundImageFix" result="shape"/>
<feGaussianBlur stdDeviation="44" result="effect1_foregroundBlur_300_98979"/>
</filter>
<filter id="filter3_b_300_98979" x="86.0527" y="63" width="79.1672" height="93.551" filterUnits="userSpaceOnUse" color-interpolation-filters="sRGB">
<feFlood flood-opacity="0" result="BackgroundImageFix"/>
<feGaussianBlur in="BackgroundImageFix" stdDeviation="9"/>
<feComposite in2="SourceAlpha" operator="in" result="effect1_backgroundBlur_300_98979"/>
<feBlend mode="normal" in="SourceGraphic" in2="effect1_backgroundBlur_300_98979" result="shape"/>
</filter>
<linearGradient id="paint0_linear_300_98979" x1="134.628" y1="95.037" x2="157.853" y2="130.165" gradientUnits="userSpaceOnUse">
<stop stop-color="#21D898"/>
<stop offset="1" stop-color="#198E9B"/>
</linearGradient>
<linearGradient id="paint1_linear_300_98979" x1="91.8392" y1="95.037" x2="115.064" y2="130.165" gradientUnits="userSpaceOnUse">
<stop stop-color="#21D898"/>
<stop offset="1" stop-color="#198E9B"/>
</linearGradient>
<linearGradient id="paint2_linear_300_98979" x1="134.628" y1="95.0371" x2="157.853" y2="130.165" gradientUnits="userSpaceOnUse">
<stop stop-color="#21D898"/>
<stop offset="1" stop-color="#198E9B"/>
</linearGradient>
<linearGradient id="paint3_linear_300_98979" x1="91.8392" y1="95.0371" x2="115.064" y2="130.165" gradientUnits="userSpaceOnUse">
<stop stop-color="#21D898"/>
<stop offset="1" stop-color="#198E9B"/>
</linearGradient>
<linearGradient id="paint4_linear_300_98979" x1="106.49" y1="135.302" x2="155.502" y2="98.5396" gradientUnits="userSpaceOnUse">
<stop stop-color="white" stop-opacity="0.2"/>
<stop offset="1" stop-color="white" stop-opacity="0.49"/>
</linearGradient>
<linearGradient id="paint5_linear_300_98979" x1="107.1" y1="85.5263" x2="154.165" y2="123.272" gradientUnits="userSpaceOnUse">
<stop stop-color="white"/>
<stop offset="1" stop-color="white" stop-opacity="0"/>
</linearGradient>
<linearGradient id="paint6_linear_300_98979" x1="127.255" y1="103.129" x2="127.15" y2="119.01" gradientUnits="userSpaceOnUse">
<stop stop-color="#85FFB7"/>
<stop offset="1" stop-color="#30FF80"/>
</linearGradient>
</defs>
</svg>
