<svg width="120" height="60" viewBox="0 0 120 60" fill="none" xmlns="http://www.w3.org/2000/svg">
<g id="discourse-ar21 1">
<path id="Vector" d="M38.0601 21.2999C38.5431 21.2929 39.0081 21.4899 39.3401 21.8399C39.6901 22.1849 39.8821 22.6599 39.8731 23.1399C39.8831 23.6259 39.6911 24.0939 39.3451 24.4349C39.0171 24.7819 38.5591 24.9749 38.0821 24.9709C37.8411 24.9744 37.6019 24.9277 37.3798 24.8339C37.1578 24.7401 36.9576 24.6011 36.7921 24.4259C36.4421 24.0759 36.2491 23.5959 36.2591 23.1009C36.2596 22.6224 36.4496 22.1636 36.7875 21.8248C37.1253 21.486 37.5836 21.2947 38.0621 21.2929L38.0601 21.2999ZM36.6401 27.4699H39.4771V39.2999H36.6401V27.4699ZM48.9801 29.3459L47.2201 31.1059C46.5048 30.3885 45.8541 30.0299 45.2681 30.0299C45.0038 30.0144 44.7416 30.0853 44.5211 30.2319C44.4383 30.2874 44.3705 30.3624 44.3234 30.4503C44.2763 30.5381 44.2515 30.6362 44.2511 30.7359C44.2522 30.893 44.313 31.0438 44.4211 31.1579C44.6736 31.379 44.9595 31.5589 45.2681 31.6909L46.3081 32.2109C47.4014 32.7522 48.1538 33.3032 48.5651 33.8639C49.0387 34.5457 49.2497 35.3757 49.1593 36.2009C49.0688 37.0261 48.6831 37.7908 48.0731 38.3539C47.3344 39.0259 46.3444 39.3619 45.1031 39.3619C44.3393 39.3829 43.5817 39.2181 42.8956 38.8818C42.2095 38.5454 41.6153 38.0475 41.1641 37.4309L42.9241 35.5259C43.2525 35.9101 43.65 36.2293 44.0961 36.4669C44.4522 36.6793 44.8542 36.8031 45.2681 36.8279C45.5921 36.844 45.9118 36.7487 46.1741 36.5579C46.3821 36.4179 46.5091 36.1849 46.5171 35.9339C46.5171 35.4959 46.1048 35.0699 45.2801 34.6559L44.3251 34.1779C42.4964 33.2559 41.5821 32.1032 41.5821 30.7199C41.5751 29.8399 41.9521 29.0039 42.6171 28.4279C43.3401 27.7819 44.2871 27.4399 45.2551 27.4749C45.979 27.471 46.6936 27.6384 47.3404 27.9634C47.9873 28.2884 48.5481 28.7618 48.9771 29.3449L48.9801 29.3459ZM62.1981 30.0489L59.8361 31.3469C59.4684 30.9377 59.0205 30.6085 58.5201 30.3799C58.0348 30.1905 57.5169 30.0988 56.9961 30.1099C56.5252 30.0893 56.0548 30.1627 55.6125 30.3258C55.1703 30.4889 54.7649 30.7384 54.4201 31.0599C53.7621 31.6949 53.4041 32.5799 53.4351 33.4929C53.4051 34.3729 53.7501 35.2229 54.3821 35.8379C54.714 36.1509 55.105 36.3945 55.5322 36.5546C55.9594 36.7146 56.4142 36.7878 56.8701 36.7699C58.1401 36.7699 59.1288 36.3372 59.8361 35.4719L62.0761 37.0049C60.8648 38.5815 59.1531 39.3699 56.9411 39.3699C54.9518 39.3699 53.3944 38.7832 52.2691 37.6099C50.9551 36.2899 50.3451 34.4229 50.6251 32.5799C50.9051 30.7369 52.0431 29.1379 53.6901 28.2679C54.7061 27.7279 55.8421 27.4529 56.9931 27.4679C58.0401 27.451 59.0764 27.6809 60.0181 28.1389C60.8963 28.5779 61.6472 29.2348 62.1991 30.0469L62.1981 30.0489ZM69.1851 27.4689C70.2421 27.4649 71.2821 27.7409 72.1981 28.2689C73.109 28.7805 73.8665 29.5264 74.3922 30.4293C74.9179 31.3321 75.1927 32.3591 75.1881 33.4039C75.1931 34.4539 74.9181 35.4869 74.3941 36.3959C73.8854 37.3055 73.1387 38.0594 72.2341 38.5769C71.313 39.1016 70.2691 39.3725 69.2091 39.3619C68.4351 39.3737 67.6669 39.226 66.9524 38.928C66.2379 38.63 65.5924 38.1881 65.0561 37.6299C63.9291 36.5239 63.3061 35.0029 63.3361 33.4239C63.3291 31.8584 63.9415 30.3536 65.0397 29.2378C66.1378 28.1221 67.6327 27.4858 69.1981 27.4679L69.1851 27.4689ZM69.2321 30.1419C68.8212 30.1323 68.4129 30.2092 68.0337 30.3677C67.6545 30.5262 67.3129 30.7627 67.0311 31.0619C66.7377 31.3758 66.509 31.7445 66.3582 32.1469C66.2074 32.5493 66.1374 32.9774 66.1521 33.4069C66.1161 34.2889 66.4321 35.1499 67.0321 35.7989C67.6021 36.4049 68.4021 36.7389 69.2321 36.7129C69.6464 36.7243 70.0584 36.6476 70.441 36.488C70.8235 36.3284 71.1678 36.0894 71.4511 35.7869C72.0491 35.1419 72.3661 34.2869 72.3311 33.4069C72.348 32.9742 72.279 32.5424 72.1281 32.1365C71.9772 31.7306 71.7475 31.3585 71.4521 31.0419C71.1665 30.7441 70.8211 30.5099 70.4387 30.3548C70.0563 30.1997 69.6445 30.1272 69.2321 30.1419ZM76.9221 27.7619H79.7941V33.2079C79.7574 33.9512 79.8305 34.6959 80.0111 35.4179C80.1383 35.8043 80.3843 36.1406 80.7141 36.3789C81.0656 36.6162 81.4832 36.7363 81.9071 36.7219C82.3338 36.7359 82.7545 36.6182 83.1121 36.3849C83.4573 36.1406 83.7152 35.7923 83.8481 35.3909C83.9654 35.0642 84.0241 34.3642 84.0241 33.2909V27.7509H86.8611V32.5429C86.8611 34.5162 86.7044 35.8672 86.3911 36.5959C86.0511 37.4359 85.4641 38.1519 84.7061 38.6479C83.8515 39.1522 82.8696 39.3994 81.8781 39.3599C80.6381 39.3599 79.6381 39.0825 78.8781 38.5279C78.0981 37.9539 77.5321 37.1379 77.2631 36.2099C77.0431 35.5199 76.9331 34.2692 76.9331 32.4579L76.9221 27.7619ZM88.7341 27.7619H91.1671V29.1859C91.392 28.6711 91.7551 28.2288 92.2161 27.9079C92.6391 27.6209 93.1381 27.4679 93.6491 27.4709C94.0514 27.4792 94.4465 27.5795 94.8041 27.7639L93.9241 30.2079C93.6723 30.065 93.3919 29.9799 93.1031 29.9589C92.6651 29.9589 92.2958 30.2295 91.9951 30.7709C91.6951 31.3122 91.5451 32.3722 91.5451 33.9509V39.0709H88.7311L88.7341 27.7619ZM102.84 29.3449L101.08 31.1049C100.367 30.3875 99.7191 30.0289 99.1371 30.0289C98.8728 30.0134 98.6106 30.0843 98.3901 30.2309C98.3073 30.2864 98.2395 30.3614 98.1924 30.4493C98.1453 30.5371 98.1205 30.6352 98.1201 30.7349C98.1212 30.892 98.182 31.0428 98.2901 31.1569C98.5431 31.3749 98.8301 31.5519 99.1371 31.6819L100.177 32.2019C101.27 32.7432 102.023 33.2942 102.434 33.8549C103.411 35.2549 103.201 37.1799 101.942 38.3549C101.203 39.0269 100.213 39.3629 98.9721 39.3629C98.206 39.3855 97.4459 39.2213 96.7575 38.8843C96.0691 38.5473 95.4732 38.0478 95.0211 37.4289L96.7811 35.5239C97.1091 35.9079 97.5071 36.2269 97.9531 36.4639C98.3151 36.6779 98.7231 36.8009 99.1531 36.8219C99.4771 36.838 99.7968 36.7427 100.059 36.5519C100.254 36.4089 100.372 36.1839 100.379 35.9519C100.379 35.5139 99.9668 35.0879 99.1421 34.6739L98.1871 34.1959C96.3584 33.2739 95.4441 32.1212 95.4441 30.7379C95.4371 29.8579 95.8141 29.0219 96.4791 28.4459C97.2021 27.7999 98.1491 27.4589 99.1171 27.4929C99.841 27.489 100.556 27.6564 101.202 27.9814C101.849 28.3064 102.41 28.7798 102.839 29.3629L102.84 29.3449ZM116.322 34.2399H107.2C107.3 34.9879 107.677 35.6699 108.255 36.1569C108.876 36.6485 109.653 36.9011 110.444 36.8689C110.951 36.8766 111.455 36.7823 111.925 36.5914C112.394 36.4005 112.821 36.1171 113.179 35.7579L115.571 36.8809C115.029 37.6789 114.291 38.3249 113.429 38.7569C112.501 39.1824 111.487 39.39 110.466 39.3639C108.693 39.3639 107.247 38.8039 106.128 37.6839C105.58 37.1333 105.149 36.4765 104.864 35.7538C104.578 35.0311 104.443 34.2577 104.466 33.4809C104.416 31.8809 105.018 30.3289 106.134 29.1809C107.227 28.0489 108.746 27.4289 110.319 27.4709C112.097 27.4709 113.546 28.0409 114.666 29.1809C115.783 30.3209 116.34 31.8255 116.336 33.6949L116.322 34.2399ZM113.485 32.0039C113.305 31.3819 112.918 30.8409 112.389 30.4679C111.829 30.0729 111.155 29.8679 110.469 29.8819C109.719 29.8679 108.987 30.1019 108.385 30.5469C107.924 30.9426 107.567 31.4457 107.345 32.0119L113.485 32.0039ZM18.8551 14.7869C10.5991 14.7869 3.6521 21.4769 3.6521 29.7349V45.1999L18.8521 45.1849C27.1051 45.1849 33.8001 38.2389 33.8001 29.9819C33.8001 21.7249 27.1001 14.7759 18.8551 14.7759V14.7869Z" fill="white"/>
<g id="Group 1171275575">
<path id="Vector_2" d="M3.6521 29.7349C3.6521 21.4769 10.5991 14.7869 18.8551 14.7869V14.7759C27.1001 14.7759 33.8001 21.7249 33.8001 29.9819C33.8001 38.2389 27.1051 45.1849 18.8521 45.1849L3.6521 45.1999V29.7349Z" fill="white"/>
<path id="Vector_3" d="M18.9999 20.573C17.3954 20.5746 15.8188 20.9927 14.4244 21.7863C13.0299 22.5798 11.8652 23.7218 11.0443 25.1004C10.2235 26.479 9.77448 28.047 9.74128 29.6512C9.70807 31.2553 10.0918 32.8406 10.8549 34.252L9.17993 39.644L15.1999 38.284C18.6469 39.837 22.6929 39.14 25.4199 36.522C28.1469 33.904 29.0099 29.892 27.5999 26.382C26.1899 22.872 22.7899 20.574 19.0079 20.572L18.9999 20.573Z" fill="#FFF9AE"/>
<path id="Vector_4" d="M26.3519 24.2C27.6032 25.8369 28.2727 27.8444 28.2546 29.9048C28.2365 31.9651 27.5317 33.9605 26.2519 35.5752C24.972 37.1899 23.1902 38.3317 21.1885 38.8198C19.1867 39.3078 17.0794 39.1144 15.1999 38.27L9.17993 39.6479L15.3059 38.924C19.3689 41.304 24.5709 40.257 27.4059 36.49C30.2409 32.723 29.7699 27.436 26.3499 24.2H26.3519Z" fill="#00AEEF"/>
<path id="Vector_5" d="M24.6459 22.4949C26.0589 23.9927 26.9323 25.9187 27.1282 27.9685C27.324 30.0182 26.8311 32.0748 25.7273 33.813C24.6236 35.5513 22.9719 36.8721 21.0335 37.5666C19.0951 38.2611 16.9804 38.2897 15.0239 37.6479L9.17993 39.6479L15.1999 38.2849C19.4869 40.2219 24.5459 38.6349 26.9599 34.5989C29.3739 30.5629 28.3799 25.3549 24.6449 22.4929L24.6459 22.4949Z" fill="#00A94F"/>
<path id="Vector_6" d="M11.3999 34.454C9.72193 30.41 11.1049 25.744 14.7149 23.264C18.3249 20.784 23.1769 21.174 26.3469 24.194C23.4109 20.341 18.0019 19.4 13.9469 22.036C9.89193 24.672 8.53493 29.994 10.8549 34.246L9.17993 39.64L11.3999 34.454Z" fill="#F15D22"/>
<path id="Vector_7" d="M10.856 34.2479C8.77404 30.4029 9.66604 25.6249 12.992 22.7879C16.318 19.9509 21.178 19.8259 24.646 22.4899C21.319 18.9869 15.859 18.6279 12.102 21.6659C8.34504 24.7039 7.55404 30.1189 10.284 34.1059L9.18204 39.6459L10.856 34.2479Z" fill="#E31B23"/>
</g>
</g>
</svg>
