<svg width="167" height="30" viewBox="0 0 167 30" fill="none" xmlns="http://www.w3.org/2000/svg">
<g id="Frame 1618868200">
<g id="_2086020840128">
<g id="Group 1171275466">
<path id="Vector" d="M46.5207 5.71338C44.9737 5.71338 43.4847 5.90874 42.8775 6.07242C41.9957 6.32058 41.774 6.70602 41.6103 7.50858L38.1097 23.6759C38.0516 24.0086 37.9988 24.2831 37.9988 24.5577C37.9988 25.3603 38.5215 25.883 39.3769 25.883C40.3167 25.883 40.7021 25.2758 40.8922 24.3359L41.8849 19.7318C42.5713 19.8163 43.4847 19.8955 44.7836 19.8955C50.4965 19.8955 54.05 16.8067 54.05 12.1444C54.0553 8.0577 51.2093 5.71338 46.5207 5.71338ZM44.6463 17.2449C43.7645 17.2449 43.0729 17.2185 42.4393 17.134L44.2873 8.55402C44.8681 8.46954 45.7234 8.35866 46.6052 8.35866C49.6412 8.35866 51.1829 9.79482 51.1829 12.1655C51.1829 15.2068 48.9759 17.2449 44.6463 17.2449Z" fill="white"/>
<path id="Vector_2" d="M136.397 20.5554C135.927 20.5554 135.626 20.83 135.045 21.4689C134.026 22.5196 133.387 23.0951 132.59 23.0951C131.872 23.0951 131.487 22.5143 131.487 21.5797C131.487 21.057 131.597 20.4181 131.735 19.7317L132.754 14.9322H135.816C136.782 14.9322 137.363 14.3778 137.363 13.3852C137.363 12.8308 137.004 12.4189 136.18 12.4189H133.308L133.804 10.1855C133.863 9.85286 133.915 9.5519 133.915 9.27206C133.915 8.50118 133.393 7.94678 132.537 7.94678C131.624 7.94678 131.212 8.55398 131.022 9.49382L130.388 12.4189H129.089C128.097 12.4189 127.516 12.9733 127.516 13.966C127.516 14.5204 127.901 14.9322 128.73 14.9322H129.86L128.841 19.6789C128.73 20.2017 128.593 21.057 128.593 21.9388C128.593 24.1722 129.755 25.7985 132.236 25.7985C133.672 25.7985 134.94 25.0804 135.906 24.225C136.846 23.3961 137.532 22.377 137.532 21.717C137.527 21.0781 137.031 20.5554 136.397 20.5554Z" fill="white"/>
<path id="Vector_3" d="M72.9471 7.34506C72.9471 6.5425 72.3927 6.01978 71.5374 6.01978C70.6239 6.01978 70.2121 6.62698 70.022 7.56682L66.5742 23.5916C66.4897 23.9243 66.4369 24.1988 66.4369 24.4734C66.4369 25.2759 66.9913 25.7987 67.815 25.7987C68.7548 25.7987 69.1667 25.1915 69.362 24.2516L72.8099 8.22682C72.8679 7.89418 72.9471 7.61962 72.9471 7.34506Z" fill="white"/>
<path id="Vector_4" d="M122.188 12.1392C117.774 12.1392 114.77 16.5269 114.77 20.6928C114.77 20.772 114.77 20.8512 114.775 20.9251C114.084 21.9758 113.197 23.0635 112.589 23.0635C112.151 23.0635 111.982 22.6517 111.982 22.0128C111.982 21.2419 112.204 19.943 112.452 18.8131L114.744 8.22144C114.802 7.8888 114.855 7.61424 114.855 7.33968C114.855 6.53712 114.332 6.0144 113.476 6.0144C112.537 6.0144 112.151 6.6216 111.961 7.56144L110.72 13.3008C110.06 12.6144 109.089 12.1392 107.631 12.1392C104.701 12.1392 101.75 14.3938 100.604 17.8574C99.3366 21.131 98.2067 23.0635 97.3144 23.0635C96.9817 23.0635 96.7917 22.789 96.7917 22.319C96.7917 20.941 97.5625 17.5723 97.8952 15.9461C98.0061 15.3389 98.0589 15.0907 98.0589 14.7317C98.0589 13.5173 96.0472 12.0811 93.423 12.0811C90.3923 12.0811 87.6467 14.003 86.2739 16.849C84.2305 20.4605 82.3561 23.0582 81.4269 23.0582C81.015 23.0582 80.8725 22.5355 80.7669 22.0392L80.0805 18.2376L84.2992 14.7898C84.6846 14.4571 85.1809 13.9872 85.1809 13.38C85.1809 12.6355 84.6846 12.1392 83.9401 12.1392C83.3857 12.1392 82.9211 12.4718 82.4512 12.8573L76.1099 18.1003L78.2325 8.22672C78.2905 7.89408 78.3697 7.61952 78.3697 7.34496C78.3697 6.5424 77.8153 6.01968 76.96 6.01968C76.0465 6.01968 75.6347 6.62688 75.4446 7.56672L71.9968 23.5915C71.9123 23.9242 71.8595 24.1987 71.8595 24.4733C71.8595 25.2758 72.4139 25.7986 73.2376 25.7986C74.1774 25.7986 74.5893 25.1914 74.7846 24.2515L75.2281 22.1818L77.8206 20.0856L78.4542 23.2853C78.7024 24.5525 79.3677 25.7933 81.0731 25.7933C82.7733 25.7933 84.1144 24.241 85.4555 22.1395C85.8621 24.3413 87.4249 25.7933 89.6003 25.7933C91.7809 25.7933 93.2699 24.4944 94.2361 22.7573V22.8154C94.2361 24.6106 95.1496 25.7933 96.7441 25.7933C98.1909 25.7933 99.3947 24.9221 100.467 23.0688C101.074 24.6845 102.436 25.7933 104.331 25.7933C106.565 25.7933 108.165 24.4416 109.184 22.5672V22.7309C109.184 24.7162 110.176 25.7933 111.803 25.7933C113.239 25.7933 114.459 24.959 115.504 23.6021C116.296 24.959 117.716 25.7933 119.638 25.7933C124.052 25.7933 127.057 21.4056 127.057 17.2133C127.046 14.267 125.251 12.1392 122.188 12.1392ZM94.6849 17.7413C93.8824 21.1891 92.1769 23.148 90.2445 23.148C88.9456 23.148 88.2328 22.1554 88.2328 20.6664C88.2328 17.7413 90.3553 14.5944 93.196 14.5944C94.0513 14.5944 94.7113 14.8426 95.2921 15.2016L94.6849 17.7413ZM110.05 16.2787C109.168 20.3338 107.151 23.148 104.949 23.148C103.735 23.148 103.017 22.2082 103.017 20.6664C103.017 17.7149 105.06 14.6525 107.79 14.6525C108.841 14.6525 109.638 15.0115 110.219 15.4814L110.05 16.2787ZM119.955 23.148C118.355 23.148 117.695 21.9864 117.695 20.5291C117.695 17.8522 119.543 14.7898 121.861 14.7898C123.461 14.7898 124.121 15.9514 124.121 17.4086C124.121 20.1173 122.273 23.148 119.955 23.148Z" fill="white"/>
<path id="Vector_5" d="M60.9246 12.1392C56.5105 12.1392 53.5062 16.5268 53.5062 20.6928C53.5062 23.6707 55.3014 25.7932 58.3585 25.7932C62.7726 25.7932 65.7769 21.4056 65.7769 17.2132C65.7769 14.267 63.9817 12.1392 60.9246 12.1392ZM58.6859 23.148C57.0861 23.148 56.4261 21.9864 56.4261 20.5291C56.4261 17.8521 58.2741 14.7897 60.592 14.7897C62.1918 14.7897 62.8518 15.9513 62.8518 17.4086C62.8518 20.1172 61.0038 23.148 58.6859 23.148Z" fill="white"/>
</g>
<g id="Group 1171275465">
<path id="Vector_6" d="M15.415 7.26946C18.1527 7.26946 20.372 5.97792 20.372 4.38473C20.372 2.79154 18.1527 1.5 15.415 1.5C12.6773 1.5 10.458 2.79154 10.458 4.38473C10.458 5.97792 12.6773 7.26946 15.415 7.26946Z" fill="#E6007A"/>
<path id="Vector_7" d="M15.415 29.0002C18.1527 29.0002 20.372 27.7086 20.372 26.1154C20.372 24.5222 18.1527 23.2307 15.415 23.2307C12.6773 23.2307 10.458 24.5222 10.458 26.1154C10.458 27.7086 12.6773 29.0002 15.415 29.0002Z" fill="#E6007A"/>
<path id="Vector_8" d="M8.505 11.2641C9.87384 8.89326 9.86503 6.32555 8.48533 5.52896C7.10562 4.73236 4.87749 6.00853 3.50865 8.37936C2.13981 10.7502 2.14862 13.3179 3.52833 14.1145C4.90803 14.9111 7.13616 13.6349 8.505 11.2641Z" fill="#E6007A"/>
<path id="Vector_9" d="M27.3174 22.1257C28.6862 19.7548 28.6774 17.1871 27.2977 16.3905C25.918 15.5939 23.6899 16.8701 22.321 19.2409C20.9522 21.6118 20.961 24.1795 22.3407 24.9761C23.7204 25.7727 25.9485 24.4965 27.3174 22.1257Z" fill="#E6007A"/>
<path id="Vector_10" d="M8.48762 24.9715C9.86732 24.1749 9.87613 21.6072 8.50729 19.2364C7.13845 16.8656 4.91032 15.5894 3.53061 16.386C2.15091 17.1826 2.1421 19.7503 3.51094 22.1211C4.87978 24.492 7.10791 25.7681 8.48762 24.9715Z" fill="#E6007A"/>
<path id="Vector_11" d="M27.303 14.1122C28.6827 13.3156 28.6915 10.7479 27.3227 8.37703C25.9538 6.0062 23.7257 4.73003 22.346 5.52663C20.9663 6.32323 20.9575 8.89093 22.3263 11.2618C23.6951 13.6326 25.9233 14.9088 27.303 14.1122Z" fill="#E6007A"/>
</g>
</g>
</g>
</svg>
