<svg width="25" height="24" viewBox="0 0 25 24" fill="none" xmlns="http://www.w3.org/2000/svg">
<g id="GitHub" clip-path="url(#clip0_882_922)">
<g id="Subtract">
<path d="M10.1421 19.4797C10.0506 19.5033 9.93521 19.5077 9.79993 19.4841L9.96404 19.5395C10.928 19.8387 11.9539 20 13.0187 20C14.1447 20 15.2507 19.8171 16.2653 19.4831C15.756 19.584 15.565 19.2697 15.565 19.0061L15.569 18.4322L15.577 16.2365C15.577 15.2918 15.2587 14.6874 14.8926 14.3731C17.1565 14.1214 19.5358 13.2652 19.5358 9.39984C19.5358 8.29188 19.1419 7.39833 18.4934 6.69362C18.5968 6.44183 18.9509 5.4096 18.3899 4.02477C18.3899 4.02477 17.5385 3.74642 15.5889 5.05601C14.7773 4.82931 13.9099 4.71669 13.0426 4.71669C12.1832 4.71472 11.3277 4.82931 10.4962 5.057C8.55063 3.7597 7.69521 4.02378 7.69521 4.02378C7.13819 5.40861 7.4923 6.44084 7.59574 6.69263C7.1939 7.12834 6.88754 7.64077 6.71645 8.22696C6.60903 8.58989 6.54935 8.98085 6.54935 9.39984C6.54935 13.2519 8.92064 14.1214 11.1845 14.3731C10.8901 14.6249 10.6235 15.0651 10.536 15.7196C9.95112 15.9837 8.48697 16.4115 7.56789 14.8885C7.37692 14.5866 6.80399 13.8435 6.00427 13.8563C5.14885 13.8686 5.65813 14.3348 6.01621 14.5231C6.44988 14.7626 6.94324 15.6562 7.05862 15.9463C7.26551 16.5133 7.92597 17.5957 10.4843 17.1295C10.4843 17.9734 10.4962 18.7661 10.4962 19.0051C10.4962 19.1994 10.3967 19.4138 10.1421 19.4797Z" fill="#191E23"/>
<path d="M10.1421 19.4797C10.0506 19.5033 9.93521 19.5077 9.79993 19.4841L9.96404 19.5395C10.928 19.8387 11.9539 20 13.0187 20C14.1447 20 15.2507 19.8171 16.2653 19.4831C15.756 19.584 15.565 19.2697 15.565 19.0061L15.569 18.4322L15.577 16.2365C15.577 15.2918 15.2587 14.6874 14.8926 14.3731C17.1565 14.1214 19.5358 13.2652 19.5358 9.39984C19.5358 8.29188 19.1419 7.39833 18.4934 6.69362C18.5968 6.44183 18.9509 5.4096 18.3899 4.02477C18.3899 4.02477 17.5385 3.74642 15.5889 5.05601C14.7773 4.82931 13.9099 4.71669 13.0426 4.71669C12.1832 4.71472 11.3277 4.82931 10.4962 5.057C8.55063 3.7597 7.69521 4.02378 7.69521 4.02378C7.13819 5.40861 7.4923 6.44084 7.59574 6.69263C7.1939 7.12834 6.88754 7.64077 6.71645 8.22696C6.60903 8.58989 6.54935 8.98085 6.54935 9.39984C6.54935 13.2519 8.92064 14.1214 11.1845 14.3731C10.8901 14.6249 10.6235 15.0651 10.536 15.7196C9.95112 15.9837 8.48697 16.4115 7.56789 14.8885C7.37692 14.5866 6.80399 13.8435 6.00427 13.8563C5.14885 13.8686 5.65813 14.3348 6.01621 14.5231C6.44988 14.7626 6.94324 15.6562 7.05862 15.9463C7.26551 16.5133 7.92597 17.5957 10.4843 17.1295C10.4843 17.9734 10.4962 18.7661 10.4962 19.0051C10.4962 19.1994 10.3967 19.4138 10.1421 19.4797Z" fill="white"/>
</g>
</g>
<defs>
<clipPath id="clip0_882_922">
<rect width="24" height="24" fill="white" transform="translate(0.535767)"/>
</clipPath>
</defs>
</svg>
