<svg width="42" height="41" viewBox="0 0 42 41" fill="none" xmlns="http://www.w3.org/2000/svg">
<g id="60e4a1e73807563947e7fb99_icon-section-about-1-crypto-template.svg" opacity="0.84992" clip-path="url(#clip0_430_27863)">
<path id="Vector" opacity="0.4" d="M2.75124 8.51221H26.5484C27.6493 8.51221 28.5429 9.4052 28.5429 10.5055C28.5429 11.6057 27.6493 12.4988 26.5484 12.4988H2.75124C1.65033 12.4988 0.756836 11.6057 0.756836 10.5055C0.756836 9.4052 1.65033 8.51221 2.75124 8.51221Z" fill="white"/>
<g id="Mask group">
<mask id="mask0_430_27863" style="mask-type:alpha" maskUnits="userSpaceOnUse" x="24" y="0" width="18" height="22">
<g id="Group">
<path id="Vector_2" fill-rule="evenodd" clip-rule="evenodd" d="M24.4185 21.4653V0H41.5796V21.4653H24.4185Z" fill="white"/>
</g>
</mask>
<g mask="url(#mask0_430_27863)">
<g id="Group_2">
<path id="Vector_3" d="M25.7654 0.183228C26.0168 0.183228 26.2646 0.253226 26.4837 0.389637L40.7359 9.36584C41.1274 9.61352 41.3663 10.0425 41.3663 10.5055C41.3663 10.9686 41.1274 11.3977 40.7359 11.6453L26.4837 20.6215C26.0689 20.8818 25.5444 20.898 25.1153 20.6592C24.6842 20.4223 24.4185 19.9718 24.4185 19.4818V1.52939C24.4185 1.03938 24.6842 0.58887 25.1153 0.351945C25.3181 0.238867 25.5427 0.183228 25.7654 0.183228Z" fill="white"/>
</g>
</g>
</g>
<path id="Vector_4" opacity="0.4" d="M39.319 32.059H15.5218C14.4208 32.059 13.5273 31.1659 13.5273 30.0657C13.5273 28.9653 14.4208 28.0724 15.5218 28.0724H39.319C40.4198 28.0724 41.3134 28.9653 41.3134 30.0657C41.3134 31.1659 40.4198 32.059 39.319 32.059Z" fill="white"/>
<g id="Mask group_2">
<mask id="mask1_430_27863" style="mask-type:alpha" maskUnits="userSpaceOnUse" x="0" y="19" width="18" height="22">
<g id="Group_3">
<path id="Vector_5" fill-rule="evenodd" clip-rule="evenodd" d="M17.5156 19.1058V40.5711H0.354492V19.1058H17.5156Z" fill="white"/>
</g>
</mask>
<g mask="url(#mask1_430_27863)">
<g id="Group_4">
<path id="Vector_6" d="M16.1688 40.3878C15.9174 40.3878 15.6696 40.3178 15.4505 40.1815L1.19823 31.2053C0.806727 30.9575 0.567871 30.5286 0.567871 30.0655C0.567871 29.6025 0.806727 29.1734 1.19823 28.9258L15.4505 19.9496C15.8653 19.6893 16.3898 19.6732 16.8189 19.9118C17.25 20.1488 17.5157 20.5993 17.5157 21.0893V39.0418C17.5157 39.5317 17.25 39.9822 16.8189 40.2191C16.616 40.3322 16.3915 40.3878 16.1688 40.3878Z" fill="white"/>
</g>
</g>
</g>
</g>
<defs>
<clipPath id="clip0_430_27863">
<rect width="42" height="41" fill="white"/>
</clipPath>
</defs>
</svg>
