<svg width="128" height="60" viewBox="0 0 128 60" fill="none" xmlns="http://www.w3.org/2000/svg">
<path d="M23.6684 29.9948C25.8653 28.1606 27.6477 26.1399 28.9948 23.9637C30.7772 21.0725 31.6788 18.057 31.6788 15H28.5699C28.5699 17.4767 27.8238 19.943 26.342 22.3368C25.0777 24.3782 23.2746 26.3471 21.0984 28.0777C20.2798 27.5285 19.4404 27.0104 18.5803 26.5337C23.2021 23.2487 25.7306 19.1658 25.7306 15H22.6218C22.6218 18.2124 20.3212 21.601 16.3212 24.3161C16 24.5337 15.658 24.7513 15.3264 24.9585C14.6632 24.6788 14 24.4197 13.3264 24.1917V15.0104H10.2176V23.2798C9.18135 23.0311 8.13471 22.8446 7.10881 22.7098V15.0104H4V22.5026V25.6114C6.41451 25.6114 8.97409 26.0466 11.513 26.8446C8.96373 27.8601 6.32124 28.4301 4 28.4301V31.5389C6.32124 31.5389 8.95337 32.1192 11.513 33.1244C8.98446 33.9223 6.42487 34.3575 4 34.3575V37.4663V44.9896H7.10881V37.2902C8.13471 37.1658 9.18135 36.9689 10.2176 36.7202V44.9896H13.3264V35.8083C14 35.5699 14.6632 35.3212 15.3264 35.0415C15.6684 35.2487 16 35.456 16.3212 35.6839C20.3212 38.3886 22.6218 41.7876 22.6218 45H25.7306C25.7306 40.8342 23.1917 36.7513 18.5803 33.4663C19.4404 32.9896 20.2798 32.4715 21.0984 31.9223C23.2746 33.6425 25.0881 35.6218 26.342 37.6632C27.8135 40.057 28.5699 42.5233 28.5699 45H31.6788C31.6788 41.943 30.7772 38.9275 28.9948 36.0363C27.658 33.8497 25.8653 31.829 23.6684 29.9948ZM11.9793 29.9948C13.1813 29.5596 14.3627 29.0311 15.5026 28.4301C16.4767 28.8964 17.4301 29.4249 18.3627 29.9948C17.4404 30.5648 16.487 31.0933 15.5026 31.5596C14.3627 30.9585 13.171 30.4404 11.9793 29.9948Z" fill="#1DE9B6"/>
<path d="M54.7047 38.8862L50.5907 34.3266H49.8653V38.8862H45.8342V20.7307H49.8653V30.5442H50.4249L54.4353 26.2333H59.3057L53.7617 32.2644L59.886 38.8965H54.7047V38.8862Z" fill="white"/>
<path d="M73.4924 38.8861H69.4613V37.8809C68.4354 38.8032 67.1193 39.2695 65.5235 39.2695C63.8136 39.2695 62.3525 38.6478 61.1504 37.3939C59.9483 36.14 59.3473 34.5338 59.3473 32.5649C59.3473 30.6167 59.9483 29.0105 61.1504 27.7462C62.3525 26.482 63.8136 25.8499 65.5235 25.8499C67.1193 25.8499 68.4354 26.3162 69.4613 27.2385V26.2333H73.4924V38.8861ZM68.539 34.9172C69.1504 34.3058 69.4613 33.5182 69.4613 32.5545C69.4613 31.6115 69.1504 30.8343 68.539 30.2125C67.9276 29.5908 67.2022 29.2799 66.3525 29.2799C65.4613 29.2799 64.7255 29.5908 64.1556 30.2022C63.5856 30.8136 63.2955 31.6011 63.2955 32.5649C63.2955 33.539 63.5856 34.3265 64.1556 34.9379C64.7255 35.539 65.4613 35.8499 66.3525 35.8499C67.1919 35.8291 67.9276 35.5286 68.539 34.9172Z" fill="white"/>
<path d="M84.8706 26.1503L84.6945 30.1813H83.9587C81.0468 30.1813 79.596 31.7668 79.596 34.9275V38.886H75.5649V26.2228H79.596V28.6477C80.6427 26.9171 82.0934 26.0466 83.9587 26.0466C84.3007 26.0466 84.6012 26.0777 84.8706 26.1503Z" fill="white"/>
<path d="M106.788 27.2695C107.71 28.2229 108.176 29.4561 108.176 30.969V38.8861H104.166V31.8291C104.166 31.1245 103.969 30.5545 103.565 30.1296C103.161 29.7048 102.653 29.4872 102.052 29.4872C101.296 29.4872 100.695 29.7566 100.249 30.3058C99.8034 30.855 99.5858 31.6426 99.5858 32.6892V38.8965H95.5547V31.8291C95.5547 31.1245 95.3578 30.5545 94.9536 30.1296C94.5495 29.7048 94.0417 29.4872 93.42 29.4872C92.6635 29.4872 92.0728 29.7566 91.6376 30.3058C91.2127 30.855 90.9951 31.6426 90.9951 32.6892V38.8965H86.964V26.2229H90.9951V27.3835C91.9174 26.3576 93.1609 25.8499 94.7256 25.8499C96.5909 25.8499 97.9692 26.5649 98.8604 27.9949C99.9484 26.5649 101.451 25.8499 103.347 25.8499C104.715 25.8499 105.866 26.3265 106.788 27.2695Z" fill="white"/>
<path d="M124.394 38.8861H120.363V37.8809C119.337 38.8032 118.021 39.2695 116.425 39.2695C114.715 39.2695 113.254 38.6478 112.052 37.3939C110.85 36.14 110.249 34.5338 110.249 32.5649C110.249 30.6167 110.85 29.0105 112.052 27.7462C113.254 26.482 114.715 25.8499 116.425 25.8499C118.021 25.8499 119.337 26.3162 120.363 27.2385V26.2333H124.394V38.8861ZM119.441 34.9172C120.052 34.3058 120.363 33.5182 120.363 32.5545C120.363 31.6115 120.052 30.8343 119.441 30.2125C118.829 29.5908 118.104 29.2799 117.254 29.2799C116.363 29.2799 115.627 29.5908 115.057 30.2022C114.487 30.8136 114.197 31.6011 114.197 32.5649C114.197 33.539 114.487 34.3265 115.057 34.9379C115.627 35.539 116.363 35.8499 117.254 35.8499C118.104 35.8291 118.829 35.5286 119.441 34.9172Z" fill="white"/>
</svg>
