<svg width="34" height="34" viewBox="0 0 34 34" fill="none" xmlns="http://www.w3.org/2000/svg">
<g id="Icon-Black 1">
<g id="Group 1410119489">
<path id="Vector 1113" d="M15.9019 25.7761L22.1607 24.5839L27.8235 17.431L10.8353 15.3447L6.36469 19.2192L15.9019 25.7761Z" fill="#5E7406"/>
<path id="Vector" fill-rule="evenodd" clip-rule="evenodd" d="M23.0292 12.3357C24.3409 11.2413 25.8043 10.825 27.2077 10.9302C28.7048 11.0425 30.0901 11.7442 31.1249 12.7635C32.1593 13.7828 32.8702 15.1462 32.984 16.6176C33.0988 18.1025 32.6016 19.6576 31.2909 21.0224C31.1711 21.1482 31.0486 21.2722 30.9234 21.3947C24.9781 27.2511 17.0808 27.2666 17 27.2666H16.9996C16.9593 27.2666 9.03691 27.2663 3.07629 21.3941L3.07501 21.3926C2.95195 21.2707 2.83077 21.1479 2.7114 21.0245L2.71045 21.0233C1.39908 19.6597 0.901441 18.1049 1.01589 16.6201C1.12929 15.1489 1.83961 13.7854 2.87395 12.7657C3.90821 11.7461 5.29343 11.0438 6.79075 10.931C8.19409 10.8253 9.65776 11.2412 10.9701 12.335C11.1112 10.6479 11.8464 9.33492 12.9136 8.43225C14.0517 7.4695 15.535 7 16.9997 7C18.4644 7 19.9476 7.4695 21.0857 8.43225C22.153 9.33504 22.8883 10.6483 23.0292 12.3357ZM17.2718 26.6729L17.2716 26.6655H17.2721L17.2718 26.6729ZM16.7275 26.6729L16.7273 26.6655H16.7278L16.7275 26.6729ZM21.4663 18.5408C21.3036 18.5408 21.2473 18.7722 21.351 18.8948C21.5346 19.1119 21.6451 19.3913 21.6451 19.696C21.6451 20.3876 21.0762 20.9482 20.3743 20.9482C19.6723 20.9482 19.1032 20.3876 19.1032 19.696C19.1032 19.659 19.0542 19.6407 19.0321 19.6706C18.8316 19.9419 18.6963 20.2464 18.6406 20.5661C18.6094 20.7461 18.4608 20.8955 18.2741 20.8955H18.1711C17.9274 20.8955 17.7265 20.7008 17.7624 20.465C18.0089 18.8493 19.6252 17.6775 21.4663 17.6775C23.3073 17.6775 24.9236 18.8493 25.17 20.465C25.2058 20.7008 25.0049 20.8955 24.7614 20.8955C24.5176 20.8955 24.3248 20.6998 24.2718 20.4671C24.0309 19.4081 22.9139 18.5408 21.4663 18.5408ZM10.1795 19.696C10.1795 19.6472 10.1153 19.621 10.0851 19.6599C9.87083 19.9354 9.72482 20.2473 9.66301 20.5761C9.62653 20.7703 9.46615 20.9318 9.26432 20.9318H9.18868C8.94506 20.9318 8.74409 20.7372 8.78001 20.5015C9.02636 18.8849 10.6428 17.714 12.4838 17.714C14.3248 17.714 15.9413 18.8849 16.1876 20.5015C16.2236 20.7372 16.0226 20.9318 15.7789 20.9318C15.5354 20.9318 15.3424 20.7363 15.2895 20.5036C15.0487 19.4439 13.9317 18.5772 12.4838 18.5772C12.3522 18.5772 12.304 18.7593 12.3921 18.8549C12.5968 19.0772 12.7216 19.3723 12.7216 19.696C12.7216 20.3876 12.1525 20.9482 11.4506 20.9482C10.7486 20.9482 10.1795 20.3876 10.1795 19.696ZM18.4136 22.7159C18.5858 22.5472 18.8519 22.4652 19.0657 22.5794C19.2795 22.6938 19.3606 22.9591 19.2065 23.1439C18.7047 23.745 17.8923 24.1262 16.9963 24.1262C16.1007 24.1262 15.2865 23.7492 14.7841 23.1433C14.6306 22.9582 14.7127 22.6929 14.9269 22.5794C15.1411 22.4658 15.4067 22.549 15.5787 22.7177C15.9099 23.0431 16.4124 23.2631 16.9963 23.2631C17.5786 23.2631 18.0817 23.0407 18.4136 22.7159Z" fill="white"/>
</g>
</g>
</svg>
