<svg width="118" height="34" viewBox="0 0 118 34" fill="none" xmlns="http://www.w3.org/2000/svg">
<path d="M1.62093 19.5485H12.0889L6.05904 31.2693C5.75765 31.8552 6.48382 32.4282 6.98356 31.9989L25.9718 15.6865C26.3941 15.3237 26.1375 14.6314 25.5808 14.6314H15.1716L21.3541 2.75379C21.659 2.16819 20.9323 1.59151 20.4313 2.02137L1.23026 18.4931C0.807568 18.8557 1.064 19.5485 1.62093 19.5485Z" fill="#FFA700"/>
<path d="M35.2 19.4585H37.4558C37.6991 20.2707 38.4289 20.6878 39.402 20.6878C40.4193 20.6878 41.0828 20.2927 41.0828 19.5244C41.0828 18.9976 40.7511 18.7122 39.9328 18.5146L37.8981 18.0317C36.5048 17.7024 35.4653 16.9561 35.4653 15.3537C35.4653 13.5976 37.0356 12.3024 39.1808 12.3024C41.4809 12.3024 42.7858 13.4 43.1175 15.178H40.9501C40.7511 14.5415 40.1761 14.1024 39.1587 14.1024C38.3847 14.1024 37.5885 14.4537 37.5885 15.222C37.5885 15.661 37.8981 15.9463 38.6058 16.122L40.6847 16.6049C42.3656 17 43.206 17.9439 43.206 19.3707C43.206 21.3024 41.5915 22.4878 39.3799 22.4878C37.0798 22.4878 35.4875 21.3463 35.2 19.4585Z" fill="white"/>
<path d="M45.8093 22.2683V12.522H48.0209V13.4439C48.5517 12.8293 49.5248 12.3024 50.6748 12.3024C52.9085 12.3024 54.147 13.7732 54.147 15.9244V22.2683H51.9354V16.2976C51.9354 15.0902 51.3383 14.3 50.0777 14.3C49.1267 14.3 48.2642 14.8927 48.0209 15.8585V22.2683H45.8093Z" fill="white"/>
<path d="M64.7653 22.2683H62.6643V21.7195C62.3326 22.0488 61.3373 22.4439 60.2315 22.4439C58.219 22.4439 56.5603 21.2585 56.5603 19.261C56.5603 17.4171 58.219 16.122 60.3864 16.122C61.271 16.122 62.2662 16.4293 62.6643 16.7146V15.9244C62.6643 14.9366 62.0451 14.1683 60.7844 14.1683C59.8998 14.1683 59.3469 14.5415 59.1036 15.222H56.9805C57.268 13.5537 58.8161 12.3024 60.8287 12.3024C63.3057 12.3024 64.7653 13.6634 64.7653 15.8805V22.2683ZM62.6643 19.678V18.8659C62.421 18.2512 61.5364 17.878 60.6517 17.878C59.6565 17.878 58.6171 18.2951 58.6171 19.261C58.6171 20.2488 59.6565 20.6659 60.6517 20.6659C61.5364 20.6659 62.421 20.2927 62.6643 19.678Z" fill="white"/>
<path d="M70.0281 21.4341V26H67.8165V12.522H70.0281V13.3561C70.4704 12.8073 71.4435 12.3024 72.5272 12.3024C75.4023 12.3024 77.0831 14.6732 77.0831 17.3951C77.0831 20.1171 75.4023 22.4878 72.5272 22.4878C71.4435 22.4878 70.4704 21.9829 70.0281 21.4341ZM70.0281 15.5512V19.239C70.4041 20.0073 71.2445 20.5341 72.1512 20.5341C73.8542 20.5341 74.8715 19.1951 74.8715 17.3951C74.8715 15.5951 73.8542 14.2561 72.1512 14.2561C71.2445 14.2561 70.4041 14.7829 70.0281 15.5512Z" fill="white"/>
<path d="M78.8904 19.4585H81.1463C81.3895 20.2707 82.1194 20.6878 83.0925 20.6878C84.1098 20.6878 84.7733 20.2927 84.7733 19.5244C84.7733 18.9976 84.4416 18.7122 83.6233 18.5146L81.5886 18.0317C80.1953 17.7024 79.1558 16.9561 79.1558 15.3537C79.1558 13.5976 80.7261 12.3024 82.8713 12.3024C85.1714 12.3024 86.4762 13.4 86.808 15.178H84.6406C84.4416 14.5415 83.8665 14.1024 82.8492 14.1024C82.0751 14.1024 81.279 14.4537 81.279 15.222C81.279 15.661 81.5886 15.9463 82.2963 16.122L84.3752 16.6049C86.056 17 86.8964 17.9439 86.8964 19.3707C86.8964 21.3024 85.282 22.4878 83.0704 22.4878C80.7703 22.4878 79.1779 21.3463 78.8904 19.4585Z" fill="white"/>
<path d="M89.4997 22.2683V8H91.7114V13.4439C92.2421 12.8293 93.2152 12.3024 94.3653 12.3024C96.599 12.3024 97.8375 13.7732 97.8375 15.9244V22.2683H95.6259V16.2976C95.6259 15.0902 95.0288 14.3 93.7682 14.3C92.8172 14.3 91.9546 14.8927 91.7114 15.8585V22.2683H89.4997Z" fill="white"/>
<path d="M109.54 17.3951C109.54 20.3805 107.638 22.4878 104.873 22.4878C102.108 22.4878 100.207 20.3805 100.207 17.3951C100.207 14.4098 102.108 12.3024 104.873 12.3024C107.638 12.3024 109.54 14.4098 109.54 17.3951ZM107.328 17.3951C107.328 15.5512 106.465 14.1902 104.873 14.1902C103.281 14.1902 102.418 15.5512 102.418 17.3951C102.418 19.239 103.281 20.6 104.873 20.6C106.465 20.6 107.328 19.239 107.328 17.3951Z" fill="white"/>
<path d="M112.556 19.6341V14.3439H111.007V12.522H112.556V9.90976H114.767V12.522H116.979V14.3439H114.767V19.3927C114.767 20.1829 115.21 20.5341 115.939 20.5341C116.382 20.5341 116.89 20.3585 117.2 20.139V22.1366C116.824 22.3561 116.227 22.4878 115.541 22.4878C113.794 22.4878 112.556 21.5659 112.556 19.6341Z" fill="white"/>
</svg>
