<svg width="258" height="38" viewBox="0 0 258 38" fill="none" xmlns="http://www.w3.org/2000/svg">
<path d="M254.81 0C255.68 0.0408602 256.421 0.449462 257.033 1.22581C257.646 1.96129 257.968 2.88065 258 3.98387V34.0161C257.807 36.4677 256.743 37.7957 254.81 38C253.907 38 253.118 37.6323 252.441 36.8968C251.797 36.1204 251.474 35.1602 251.474 34.0161V3.98387C251.507 2.83979 251.845 1.9 252.489 1.16452C253.134 0.388172 253.907 0 254.81 0Z" fill="white"/>
<path d="M241.155 0C242.025 0.0408602 242.766 0.449462 243.379 1.22581C243.991 1.96129 244.313 2.88065 244.345 3.98387V34.0161C244.152 36.4677 243.089 37.7957 241.155 38C240.253 38 239.463 37.6323 238.786 36.8968C238.142 36.1204 237.82 35.1602 237.82 34.0161V3.98387C237.852 2.83979 238.19 1.9 238.835 1.16452C239.479 0.388172 240.253 0 241.155 0Z" fill="white"/>
<path d="M224.068 33.8941V19.1231C224.068 18.1016 223.649 17.5704 222.812 17.5295H205.893C205.281 17.5704 204.749 17.9177 204.298 18.5715C203.847 19.1844 203.508 19.9199 203.283 20.7779C203.089 21.5951 202.993 22.4328 202.993 23.2908C202.993 24.108 203.089 24.9457 203.283 25.8037C203.508 26.6209 203.847 27.3564 204.298 28.0102C204.749 28.6231 205.281 28.9295 205.893 28.9295H218.268C219.17 28.9295 219.927 29.3381 220.54 30.1553C221.184 30.9317 221.506 31.8919 221.506 33.036C221.506 34.1801 221.184 35.1403 220.54 35.9166C219.927 36.7338 219.17 37.1424 218.268 37.1424H206.086C203.831 37.1016 201.962 36.3048 200.479 34.7521C199.029 33.1586 197.982 31.3812 197.337 29.4199C196.725 27.4177 196.419 25.3543 196.419 23.2295C196.419 21.1865 196.741 19.1844 197.386 17.2231C198.03 15.2209 199.077 13.4435 200.528 11.8908C201.978 10.2973 204.121 9.43922 206.957 9.31664H227.259C228.161 9.31664 228.934 9.70481 229.579 10.4812C230.223 11.2166 230.562 12.1564 230.594 13.3005V33.8941C230.594 35.0381 230.256 35.9984 229.579 36.7747C228.934 37.5102 228.161 37.8779 227.259 37.8779C225.325 37.6736 224.262 36.3457 224.068 33.8941Z" fill="white"/>
<path d="M164.637 0C165.507 0.0408602 166.248 0.449462 166.861 1.22581C167.473 1.96129 167.795 2.88065 167.828 3.98387V14.2194H183.538V3.98387C183.57 2.83979 183.908 1.9 184.553 1.16452C185.197 0.388172 185.971 0 186.873 0C187.743 0.0408602 188.484 0.449462 189.096 1.22581C189.709 1.96129 190.031 2.88065 190.063 3.98387V34.0161C189.87 36.4677 188.806 37.7957 186.873 38C185.971 38 185.181 37.6323 184.504 36.8968C183.86 36.1204 183.538 35.1602 183.538 34.0161V22.4323H167.828V34.0161C167.634 36.4677 166.571 37.7957 164.637 38C163.735 38 162.945 37.6323 162.269 36.8968C161.624 36.1204 161.302 35.1602 161.302 34.0161V3.98387C161.334 2.83979 161.672 1.9 162.317 1.16452C162.961 0.388172 163.735 0 164.637 0Z" fill="white"/>
<path d="M138.753 8.40855C140.429 8.40855 142.072 8.65371 143.683 9.14403C145.327 9.63435 146.89 10.3698 148.372 11.3505C149.855 12.2903 151.16 13.5569 152.288 15.1505C153.448 16.744 154.076 18.644 154.173 20.8505V33.9053C153.98 36.3569 152.916 37.6849 150.983 37.8892C150.08 37.8892 149.291 37.5215 148.614 36.786C147.97 36.0096 147.647 35.0494 147.647 33.9053V22.7505C147.583 21.4838 147.196 20.4419 146.487 19.6247C145.81 18.7666 145.037 18.0924 144.167 17.6021C143.329 17.1118 142.443 16.744 141.508 16.4989C140.606 16.2537 139.688 16.1311 138.753 16.1311C137.818 16.1311 136.884 16.2537 135.949 16.4989C135.047 16.744 134.161 17.1118 133.291 17.6021C132.453 18.0924 131.679 18.7666 130.97 19.6247C130.294 20.4419 129.923 21.4838 129.859 22.7505V33.9053C129.698 36.3569 128.65 37.6849 126.717 37.8892C125.814 37.8892 125.025 37.5215 124.348 36.786C123.704 36.0096 123.381 35.0494 123.381 33.9053V20.8505C123.478 18.644 124.09 16.744 125.218 15.1505C126.346 13.5569 127.651 12.2903 129.134 11.3505C130.616 10.3698 132.163 9.63435 133.774 9.14403C135.418 8.65371 137.077 8.40855 138.753 8.40855Z" fill="white"/>
<path d="M91.938 37.9416C90.8424 37.9416 89.7467 37.6964 88.651 37.2061C87.5876 36.7158 86.5564 36.0007 85.5574 35.0609C84.5584 34.0803 83.6883 32.7932 82.9471 31.1996C82.2059 29.6061 81.8031 27.7061 81.7386 25.4996V12.4448C81.7386 11.3007 82.0609 10.3609 82.7054 9.62545C83.3821 8.84911 84.1716 8.46094 85.074 8.46094C87.0075 8.66524 88.0548 9.99319 88.216 12.4448V25.0093C88.2482 25.99 88.4093 26.8276 88.6994 27.5222C88.9894 28.176 89.3116 28.7072 89.6661 29.1158C90.0206 29.4835 90.3751 29.7695 90.7296 29.9738C91.1163 30.1373 91.503 30.219 91.8897 30.219C92.2764 30.219 92.6631 30.1373 93.0498 29.9738C93.4365 29.7695 93.8071 29.4835 94.1616 29.1158C94.5161 28.7072 94.8383 28.176 95.1284 27.5222C95.4184 26.8276 95.5634 25.99 95.5634 25.0093V12.4448C95.5634 11.3007 95.8857 10.3609 96.5302 9.62545C97.2069 8.84911 97.9965 8.46094 98.8988 8.46094C100.832 8.66524 101.896 9.99319 102.089 12.4448V25.0093C102.121 25.99 102.282 26.8072 102.573 27.4609C102.863 28.1556 103.185 28.7072 103.539 29.1158C103.894 29.4835 104.248 29.7695 104.603 29.9738C104.989 30.1373 105.376 30.219 105.763 30.219C106.15 30.219 106.536 30.1373 106.923 29.9738C107.31 29.7695 107.68 29.4835 108.035 29.1158C108.389 28.7072 108.712 28.176 109.002 27.5222C109.292 26.8276 109.437 25.99 109.437 25.0093V12.4448C109.437 11.3007 109.759 10.3609 110.403 9.62545C111.08 8.84911 111.87 8.46094 112.772 8.46094C114.705 8.66524 115.769 9.99319 115.962 12.4448V25.4996C115.962 27.7061 115.576 29.6061 114.802 31.1996C114.061 32.7932 113.191 34.0803 112.192 35.0609C111.225 36.0007 110.194 36.7158 109.098 37.2061C108.035 37.6964 106.939 37.9416 105.811 37.9416C104.716 37.9416 103.62 37.6964 102.524 37.2061C101.461 36.7158 100.429 35.9803 99.4305 34.9996C99.2372 34.8362 99.0599 34.6523 98.8988 34.448C98.7054 34.6523 98.5282 34.8362 98.3671 34.9996C97.3681 35.9803 96.3207 36.7158 95.2251 37.2061C94.1616 37.6964 93.0659 37.9416 91.938 37.9416Z" fill="white"/>
<path d="M50.6821 37.1424C47.8462 37.0199 45.7032 36.1822 44.2531 34.6295C42.8029 33.036 41.7556 31.2586 41.1111 29.2973C40.4666 27.2951 40.1443 25.2726 40.1443 23.2295C40.1443 21.1048 40.4504 19.0618 41.0627 17.1005C41.7072 15.0984 42.7546 13.3209 44.2047 11.7682C45.6871 10.1747 47.5562 9.3575 49.812 9.31664H65.4737C67.7295 9.3575 69.5825 10.1747 71.0326 11.7682C72.515 13.3209 73.5623 15.0984 74.1746 17.1005C74.8191 19.0618 75.1414 21.1048 75.1414 23.2295C75.1414 25.2726 74.8191 27.2951 74.1746 29.2973C73.5301 31.2586 72.4828 33.036 71.0326 34.6295C69.5825 36.1822 67.4394 37.0199 64.6036 37.1424H50.6821ZM49.6186 17.5295C49.0064 17.5295 48.4746 17.8564 48.0235 18.5102C47.5723 19.1231 47.2339 19.8586 47.0084 20.7166C46.815 21.5338 46.7183 22.351 46.7183 23.1682C46.7183 24.0263 46.815 24.8844 47.0084 25.7424C47.2339 26.5596 47.5723 27.2951 48.0235 27.9489C48.4746 28.5618 49.0064 28.8887 49.6186 28.9295H65.667C66.2793 28.8887 66.811 28.5618 67.2622 27.9489C67.7134 27.2951 68.0356 26.5596 68.229 25.7424C68.4546 24.8844 68.5673 24.0263 68.5673 23.1682C68.5673 22.351 68.4546 21.5338 68.229 20.7166C68.0356 19.8586 67.7134 19.1231 67.2622 18.5102C66.811 17.8564 66.2793 17.5295 65.667 17.5295H49.6186Z" fill="white"/>
<path d="M0 5.08439C0 3.94031 0.306144 2.98009 0.918432 2.20375C1.56295 1.38654 2.33636 0.977941 3.23868 0.977941H40.2682C41.1706 0.977941 41.944 1.36611 42.5885 2.14246C43.2008 2.95966 43.5069 3.94031 43.5069 5.08439C43.5069 6.22848 43.1847 7.20912 42.5402 8.02633C41.9279 8.80267 41.1706 9.19084 40.2682 9.19084H25.0405V34.0134C24.8471 36.465 23.7837 37.793 21.8501 37.9973C20.9478 37.9973 20.1583 37.6296 19.4816 36.8941C18.837 36.1177 18.5148 35.1575 18.5148 34.0134V9.19084H3.23868C2.33636 9.19084 1.57906 8.78224 0.96677 7.96504C0.322257 7.18869 0 6.22848 0 5.08439Z" fill="white"/>
</svg>
