<svg width="233" height="40" viewBox="0 0 233 40" fill="none" xmlns="http://www.w3.org/2000/svg">
<path d="M170.716 1.66895V39.3729H162.813V24.3771H147.059V39.3514H139.147V1.66895H146.979V16.6948H162.759V1.66895H170.716Z" fill="white"/>
<path d="M82.4747 37.5108C80.4301 38.313 78.7093 39.2909 76.851 39.6727C69.8035 41.1225 63.4569 36.1468 63.3415 29.1679C63.2661 24.7842 63.3282 20.4004 63.3282 16.0123C63.3282 14.481 63.3282 12.9497 63.3282 11.3197H70.8813C70.8813 12.435 70.8813 13.5631 70.8813 14.6869C70.8813 19.4996 70.8635 24.3123 70.8813 29.125C70.8901 31.0553 72.1497 32.4322 74.1145 32.7496C75.8176 33.0241 77.6182 31.9732 78.1859 30.3132C78.3545 29.8199 78.3811 29.2666 78.3811 28.739C78.3944 22.9655 78.3899 17.1919 78.3899 11.3197H85.9297C85.9297 11.6929 85.9297 12.0704 85.9297 12.4478C85.9297 18.0112 85.9164 23.5746 85.9385 29.1336C85.9474 31.1025 87.2868 32.518 89.2826 32.7668C91.0567 32.9898 92.8307 31.8317 93.3097 30.0987C93.4295 29.6612 93.4384 29.1851 93.4428 28.7261C93.4517 22.9526 93.4472 17.179 93.4472 11.3154H100.983C100.983 12.8982 100.983 14.4896 100.983 16.081C100.983 20.2503 100.96 24.4239 100.991 28.5932C101.022 33.1914 99.0444 36.6959 94.7733 38.7419C90.4934 40.7965 86.3421 40.2947 82.5013 37.528C82.4126 37.4637 82.3195 37.4079 82.4791 37.5108H82.4747Z" fill="white"/>
<path d="M200.795 14.537C201.5 13.7435 202.25 13.04 202.817 12.2207C203.474 11.2685 204.294 11.0369 205.452 11.3285V39.3126C204.436 39.6043 203.616 39.5271 202.973 38.4976C202.352 37.4982 201.553 36.5931 200.888 35.7224C199.225 36.7175 197.69 37.8585 195.974 38.6263C186.718 42.7613 176.309 36.8462 175.399 27.0535C174.996 22.7169 175.887 18.7535 178.743 15.3306C183.019 10.209 191.809 7.63536 199.212 13.3188C199.726 13.7134 200.24 14.1124 200.79 14.537H200.795ZM182.957 24.9774C182.921 29.5671 185.809 32.6469 190.226 32.7241C194.306 32.7927 197.908 29.2025 197.948 25.0289C197.983 21.1084 194.391 17.4238 190.501 17.398C185.973 17.3637 182.992 20.3577 182.957 24.9817V24.9774Z" fill="white"/>
<path d="M44.2747 39.9298C35.6661 39.8354 29.1287 33.2684 29.2174 24.8011C29.3017 16.4024 36.0342 10.0326 44.7315 10.127C53.2026 10.2171 59.5804 16.7155 59.4739 25.1442C59.3675 33.5171 52.6837 40.0242 44.2792 39.9341L44.2747 39.9298ZM51.8322 25.7233C51.8499 22.2789 50.5637 19.8082 48.4083 18.5171C44.8823 16.4024 40.3452 17.3075 38.1631 20.5631C35.7903 24.1019 36.7793 29.2835 40.2875 31.514C42.718 33.0582 45.3125 33.1397 47.845 31.8657C50.6391 30.4674 51.7524 28.031 51.8278 25.719L51.8322 25.7233Z" fill="white"/>
<path d="M20.2275 39.3766H12.3862V9.21346H0.5V1.68555H32.0427V9.16199H20.2275V39.3766Z" fill="white"/>
<path d="M132.876 39.3891H125.345C125.345 38.3596 125.345 37.343 125.345 36.3265C125.345 31.977 125.371 27.6275 125.336 23.2781C125.314 20.4985 123.194 18.2723 120.315 17.9034C117.632 17.5603 114.953 19.246 114.217 21.8154C114.026 22.4888 113.995 23.2223 113.995 23.9301C113.977 28.6398 113.986 33.3453 113.986 38.0551C113.986 38.4712 113.986 38.8915 113.986 39.3719H106.522V11.2849C107.44 11.1562 108.292 10.9932 108.957 11.9283C109.449 12.6232 110.101 13.2108 110.731 13.8971C112.576 12.413 114.581 11.4307 116.851 10.9289C124.937 9.14448 132.871 15.2311 132.876 23.2438C132.876 28.2366 132.876 33.2295 132.876 38.2224C132.876 38.5741 132.876 38.9258 132.876 39.3934V39.3891Z" fill="white"/>
<path d="M218.819 39.3766H211.39V0.0126953H218.819V39.3766Z" fill="white"/>
<path d="M224.714 0H232.147V39.3639H224.714V0Z" fill="white"/>
</svg>
