<svg width="249" height="42" viewBox="0 0 249 42" fill="none" xmlns="http://www.w3.org/2000/svg">
<g id="Frame 1618868213">
<g id="Vector">
<path d="M7.60133 17.5111V32.8918C7.59637 33.186 7.65186 33.4781 7.76436 33.7501C7.87687 34.022 8.04401 34.268 8.25546 34.473C8.45553 34.6806 8.69571 34.8456 8.96147 34.9578C9.22722 35.0701 9.51302 35.1274 9.80158 35.1262H12.931V41.7996H9.80158C8.62493 41.8048 7.45936 41.5725 6.37484 41.1167C5.31859 40.6772 4.36268 40.0282 3.56507 39.2089C2.7648 38.4019 2.12646 37.4495 1.68445 36.403C1.21954 35.3147 0.986643 34.1417 1.00059 32.9586V0H7.60133V5.4263H59.7606V11.4613H7.60876V17.4889L7.60133 17.5111Z" fill="white"/>
<path d="M24.8985 23.4422C25.6051 21.9594 26.7352 20.7184 28.1466 19.8757C29.5579 19.0329 31.1874 18.626 32.8298 18.7063V23.4422C28.2138 23.1824 25.2851 25.8918 24.8985 29.8112V41.7996H19.9406V18.877H24.8985V23.4422Z" fill="white"/>
<path d="M57.0995 32.2238H39.7725C40.0711 33.8683 40.9514 35.3509 42.2531 36.4015C43.5548 37.452 45.1911 38.0005 46.8638 37.947C48.066 37.9609 49.2585 37.732 50.3699 37.2741C51.4812 36.8161 52.4883 36.1386 53.3308 35.2821L55.9845 38.088C54.7685 39.3684 53.2943 40.3766 51.6593 41.0458C50.0243 41.7151 48.2656 42.0302 46.4996 41.9703C39.4231 41.9703 34.7699 37.2715 34.7699 30.3828C34.7699 23.4942 39.5569 18.7582 46.3658 18.7211C54.4309 18.7063 57.709 23.9841 57.0995 32.2238ZM52.8105 28.6087C52.6395 24.8971 50.1865 22.6702 46.4327 22.6702C42.8127 22.6702 40.2705 24.9565 39.7428 28.6087H52.8105Z" fill="white"/>
<path d="M76.032 38.9788C74.3892 41.0053 71.7579 41.9926 68.4426 41.9926C63.4846 41.9926 60.3775 38.9417 60.3775 34.8887C60.3775 30.7169 63.5292 28.0445 69.0447 28H75.9874V27.3171C75.9874 24.4295 74.1291 22.7073 70.5091 22.7073C68.0708 22.7802 65.7121 23.5904 63.7448 25.0308L61.7304 21.5864C64.9193 19.6935 67.2459 18.7063 71.6018 18.7063C77.5484 18.7063 80.8264 21.72 80.871 26.7529L80.9008 41.7996H76.032V38.9788ZM75.9874 33.7306V31.6225H69.7806C66.5471 31.6225 65.0382 32.4836 65.0382 34.6734C65.0382 36.7444 66.7181 38.0732 69.4981 38.0732C73.0141 38.088 75.7272 36.2248 75.9874 33.7306Z" fill="white"/>
<path d="M102.413 21.0148L100.606 24.6744C98.6189 23.4398 96.3444 22.7415 94.0056 22.6479C92.0656 22.6479 90.6458 23.2937 90.6458 24.9343C90.6458 29.1506 102.844 26.8717 102.799 35.1782C102.799 39.8696 98.6217 41.9852 94.0056 41.9852C90.6458 41.9852 87.063 40.8643 84.781 38.7932L86.5501 35.2672C88.7175 37.0408 91.4196 38.0344 94.2212 38.088C96.3323 38.088 97.9378 37.3457 97.9378 35.6384C97.9378 30.947 85.8662 33.5748 85.9108 25.3054C85.9108 20.6585 89.9619 18.6766 94.355 18.6766C97.213 18.6456 100.016 19.4591 102.413 21.0148Z" fill="white"/>
<path d="M128.63 41.7996H123.672V37.3457C122.126 40.5302 119.212 41.9555 115.495 42C110.24 42 107.088 38.6373 107.088 33.1739V18.877H112.046V31.7487C112.046 35.193 114.075 37.3012 117.398 37.3012C121.36 37.2195 123.687 34.1612 123.687 30.1527V18.877H128.63V41.7996Z" fill="white"/>
<path d="M140.91 23.4422C142.463 20.3393 145.221 18.7063 148.848 18.7063V23.4422C144.232 23.1824 141.303 25.8918 140.91 29.8112V41.7996H135.952V18.877H140.91V23.4422Z" fill="white"/>
<path d="M158.363 16.2047V24.3701H173.103V28.9353H158.363V37.2492H175.348V41.7996H153.271V11.6395H174.828V16.2047H158.363Z" fill="white"/>
<path d="M194.979 38.9788C193.336 41.0053 190.705 41.9926 187.39 41.9926C182.432 41.9926 179.325 38.9417 179.325 34.8887C179.325 30.7169 182.476 28.0445 187.992 28H194.935V27.3171C194.935 24.4295 193.076 22.7073 189.456 22.7073C187.018 22.7802 184.659 23.5904 182.692 25.0308L180.663 21.5864C183.852 19.6935 186.178 18.7063 190.534 18.7063C196.481 18.7063 199.759 21.72 199.803 26.7529L199.848 41.7996H194.979V38.9788ZM194.935 33.7306V31.6225H188.728C185.494 31.6225 183.985 32.4836 183.985 34.6734C183.985 36.7444 185.665 38.0732 188.445 38.0732C191.961 38.088 194.674 36.2248 194.935 33.7306Z" fill="white"/>
<path d="M221.36 21.0148L219.554 24.6744C217.566 23.4398 215.292 22.7415 212.953 22.6479C211.013 22.6479 209.593 23.2937 209.593 24.9343C209.593 29.1506 221.791 26.8717 221.746 35.1782C221.746 39.8696 217.569 41.9852 212.953 41.9852C209.593 41.9852 206.01 40.8643 203.728 38.7932L205.497 35.2672C207.665 37.0408 210.367 38.0344 213.168 38.088C215.279 38.088 216.885 37.3457 216.885 35.6384C216.885 30.947 204.813 33.5748 204.858 25.3054C204.858 20.6585 208.909 18.6766 213.302 18.6766C216.16 18.6456 218.964 19.4591 221.36 21.0148Z" fill="white"/>
<path d="M246.923 32.2238H229.596C229.895 33.8722 230.779 35.3579 232.085 36.4089C233.391 37.4599 235.033 38.0059 236.709 37.947C237.912 37.9609 239.104 37.732 240.215 37.2741C241.327 36.8161 242.334 36.1386 243.176 35.2821L245.808 38.088C244.592 39.3684 243.118 40.3766 241.483 41.0458C239.848 41.7151 238.089 42.0302 236.323 41.9703C229.254 41.9703 224.593 37.2715 224.593 30.3828C224.593 23.4942 229.38 18.7582 236.189 18.7211C244.254 18.7063 247.562 23.9841 246.923 32.2238ZM242.611 28.6087C242.441 24.8971 239.988 22.6702 236.234 22.6702C232.614 22.6702 230.072 24.9565 229.507 28.6087H242.611Z" fill="white"/>
</g>
</g>
</svg>
