<svg width="175" height="26" viewBox="0 0 175 26" fill="none" xmlns="http://www.w3.org/2000/svg">
<g clip-path="url(#clip0_882_737)">
<mask id="mask0_882_737" style="mask-type:luminance" maskUnits="userSpaceOnUse" x="0" y="0" width="175" height="26">
<path d="M174.941 0H0V25.925H174.941V0Z" fill="white"/>
</mask>
<g mask="url(#mask0_882_737)">
<path d="M139.137 2.29517V24.2702H134.53V15.5302H125.349V24.2577H120.737V2.29517H125.302V11.0527H134.499V2.29517H139.137Z" fill="white"/>
<path d="M87.7069 23.1852C86.5152 23.6527 85.5122 24.2227 84.4292 24.4452C80.3217 25.2902 76.6227 22.3902 76.5555 18.3227C76.5115 15.7677 76.5477 13.2127 76.5477 10.6552C76.5477 9.76272 76.5477 8.87022 76.5477 7.92022H80.9498C80.9498 8.57022 80.9498 9.22772 80.9498 9.88272C80.9498 12.6877 80.9395 15.4927 80.9498 18.2977C80.955 19.4227 81.6891 20.2252 82.8343 20.4102C83.8269 20.5702 84.8764 19.9577 85.2072 18.9902C85.3055 18.7027 85.321 18.3802 85.321 18.0727C85.3287 14.7077 85.3261 11.3427 85.3261 7.92022H89.7205C89.7205 8.13772 89.7205 8.35772 89.7205 8.57772C89.7205 11.8202 89.7128 15.0627 89.7257 18.3027C89.7309 19.4502 90.5115 20.2752 91.6747 20.4202C92.7087 20.5502 93.7427 19.8752 94.0219 18.8652C94.0916 18.6102 94.0968 18.3327 94.0994 18.0652C94.1046 14.7002 94.102 11.3352 94.102 7.91772H98.4938C98.4938 8.84022 98.4938 9.76772 98.4938 10.6952C98.4938 13.1252 98.4809 15.5577 98.499 17.9877C98.517 20.6677 97.3642 22.7102 94.8749 23.9027C92.3804 25.1002 89.9609 24.8077 87.7224 23.1952C87.6707 23.1577 87.6164 23.1252 87.7094 23.1852H87.7069Z" fill="white"/>
<path d="M156.668 9.79524C157.079 9.33274 157.516 8.92274 157.846 8.44524C158.229 7.89024 158.707 7.75524 159.382 7.92524V24.2352C158.79 24.4052 158.312 24.3602 157.937 23.7602C157.575 23.1777 157.11 22.6502 156.722 22.1427C155.753 22.7227 154.858 23.3877 153.858 23.8352C148.463 26.2452 142.396 22.7977 141.866 17.0902C141.631 14.5627 142.151 12.2527 143.815 10.2577C146.307 7.27274 151.431 5.77274 155.745 9.08524C156.045 9.31524 156.345 9.54774 156.665 9.79524H156.668ZM146.271 15.8802C146.25 18.5552 147.933 20.3502 150.508 20.3952C152.886 20.4352 154.985 18.3427 155.008 15.9102C155.029 13.6252 152.935 11.4777 150.668 11.4627C148.029 11.4427 146.292 13.1877 146.271 15.8827V15.8802Z" fill="white"/>
<path d="M65.4429 24.5952C60.4255 24.5402 56.6153 20.7127 56.667 15.7777C56.7161 10.8827 60.6401 7.17021 65.7091 7.22521C70.6463 7.27771 74.3635 11.0652 74.3014 15.9777C74.2394 20.8577 70.3439 24.6502 65.4455 24.5977L65.4429 24.5952ZM69.8476 16.3152C69.8579 14.3077 69.1083 12.8677 67.852 12.1152C65.797 10.8827 63.1526 11.4102 61.8808 13.3077C60.4979 15.3702 61.0743 18.3902 63.119 19.6902C64.5356 20.5902 66.0477 20.6377 67.5237 19.8952C69.1523 19.0802 69.8011 17.6602 69.845 16.3127L69.8476 16.3152Z" fill="white"/>
<path d="M51.4272 24.2727H46.8571V6.69268H39.9294V2.30518H58.3135V6.66268H51.4272V24.2727Z" fill="white"/>
<path d="M117.082 24.2802H112.693C112.693 23.6802 112.693 23.0877 112.693 22.4952C112.693 19.9602 112.708 17.4252 112.688 14.8902C112.675 13.2702 111.439 11.9727 109.762 11.7577C108.198 11.5577 106.636 12.5402 106.207 14.0377C106.096 14.4302 106.078 14.8577 106.078 15.2702C106.068 18.0152 106.073 20.7577 106.073 23.5027C106.073 23.7452 106.073 23.9902 106.073 24.2702H101.722V7.90023C102.257 7.82523 102.754 7.73023 103.142 8.27523C103.428 8.68023 103.808 9.02273 104.176 9.42273C105.251 8.55773 106.419 7.98523 107.743 7.69273C112.455 6.65273 117.08 10.2002 117.082 14.8702C117.082 17.7802 117.082 20.6902 117.082 23.6002C117.082 23.8052 117.082 24.0102 117.082 24.2827V24.2802Z" fill="white"/>
<path d="M167.173 24.2726H162.843V1.33008H167.173V24.2726Z" fill="white"/>
<path d="M170.608 1.32251H174.941V24.265H170.608V1.32251Z" fill="white"/>
<path d="M15.8043 10.3202C16.1015 10.3377 16.3135 10.3577 16.5229 10.3577C18.5883 10.3602 20.6562 10.3727 22.7216 10.3427C23.0162 10.3377 23.3781 10.1802 23.5927 9.98021C24.3966 9.22521 25.5598 9.15771 26.3095 9.88021C27.0487 10.5927 27.0643 11.5752 26.3456 12.2627C25.5366 13.0352 24.4199 12.9777 23.5953 12.1852C23.3704 11.9702 22.9775 11.8177 22.6595 11.8152C20.315 11.7852 17.9679 11.8027 15.6233 11.7952C14.5739 11.7927 14.3748 11.5877 14.3774 10.5927C14.3774 9.43021 14.3645 8.26521 14.3826 7.10271C14.3955 6.28521 14.6798 6.03271 15.5251 6.03021C17.3113 6.02521 19.0975 6.01021 20.8837 6.04021C21.411 6.05021 21.5454 5.87521 21.5299 5.39771C21.4963 4.44771 21.5196 3.49521 21.5196 2.49271H1.50702V5.99771C1.70864 6.00771 1.93612 6.02771 2.161 6.02771C4.22637 6.02771 6.29431 6.02771 8.35967 6.02771C9.56684 6.02771 9.93131 6.39521 9.93131 7.55771C9.92614 11.1302 9.9158 14.7052 9.94424 18.2777C9.94424 18.5552 10.151 18.9052 10.3759 19.0902C11.1592 19.7327 11.2884 20.7177 10.6215 21.4502C9.87703 22.2677 8.58973 22.3102 7.81167 21.5427C7.11891 20.8577 7.20421 19.8252 7.9435 19.1627C8.18131 18.9502 8.4062 18.5827 8.40879 18.2852C8.42947 14.8577 8.40362 11.4302 8.39845 8.00021C8.39845 7.48021 8.06241 7.45521 7.66691 7.45771C5.4723 7.45771 3.2777 7.45771 1.0805 7.45521C0.279173 7.45521 0.0491137 7.30021 0.0284343 6.53271C-0.0103397 5.01771 -0.0077548 3.50021 0.0258493 1.98521C0.0413589 1.25271 0.286928 1.07271 1.17356 1.06271C2.95975 1.04271 4.74594 1.05021 6.53213 1.05021C11.5676 1.05021 16.603 1.05021 21.6359 1.05521C22.8353 1.05521 23.024 1.24271 23.024 2.38521C23.024 3.71521 23.0266 5.04521 23.0214 6.37521C23.0162 7.20521 22.7578 7.45271 21.9099 7.45521C20.103 7.45521 18.2936 7.47271 16.4867 7.44771C15.949 7.44021 15.7681 7.61771 15.7939 8.13021C15.8327 8.83271 15.8043 9.54021 15.8043 10.3177V10.3202Z" fill="#66A5FF"/>
<path d="M23.8591 16.3376H15.8018C15.8018 16.5901 15.8018 16.8126 15.8018 17.0351C15.8018 19.2801 15.8044 21.5251 15.8018 23.7701C15.8018 24.6526 15.5743 24.8876 14.6593 24.9001C13.6046 24.9151 12.55 24.8726 11.4953 24.9101C11.2187 24.9201 10.8827 25.0726 10.6888 25.2651C10.0167 25.9351 9.16112 26.1251 8.35204 25.6951C7.69546 25.3451 7.30514 24.8051 7.36459 24.0751C7.42146 23.3751 7.88158 22.8951 8.53815 22.6326C9.2852 22.3351 10.0245 22.4251 10.5363 23.0301C10.8904 23.4476 11.2678 23.5251 11.759 23.5126C12.5732 23.4926 13.3875 23.5076 14.2896 23.5076C14.2896 23.2426 14.2896 23.0226 14.2896 22.8026C14.2896 20.4951 14.287 18.1876 14.2922 15.8826C14.2922 15.1226 14.5455 14.8751 15.3365 14.8726C18.3273 14.8651 21.3206 14.8651 24.3114 14.8726C25.1205 14.8726 25.3712 15.1326 25.3738 15.9376C25.3816 18.2026 25.3764 20.4676 25.379 22.7351C25.379 22.9601 25.379 23.1826 25.379 23.4601H30.4273C30.4429 23.2826 30.4739 23.1051 30.4739 22.9251C30.4739 16.5451 30.4739 10.1676 30.4816 3.78759C30.4816 3.41759 30.3782 3.18509 30.0448 2.97009C29.3856 2.54259 29.1995 1.8401 29.4606 1.0976C29.7061 0.422597 30.355 0.00759653 31.177 9.6528e-05C32.0455 -0.00740347 32.7357 0.422597 32.9968 1.1326C33.2449 1.8101 33.0511 2.57509 32.41 2.95009C31.9188 3.23759 31.924 3.61759 31.9266 4.05759C31.9344 10.4801 31.9395 16.9026 31.9447 23.3251C31.9447 24.5201 31.5647 24.9026 30.3446 24.9051C28.6024 24.9101 26.8576 24.9101 25.1153 24.9051C24.1822 24.9026 23.8668 24.6001 23.8668 23.7101C23.8616 21.2801 23.8668 18.8501 23.8668 16.3376H23.8591Z" fill="#66A5FF"/>
</g>
</g>
<defs>
<clipPath id="clip0_882_737">
<rect width="175" height="26" fill="white"/>
</clipPath>
</defs>
</svg>
